<svg width="30" height="28" viewBox="0 0 30 28" fill="none" xmlns="http://www.w3.org/2000/svg">
<path d="M1 25.7565C1.18491 25.3593 1.44515 25.0511 1.92454 25.0237C2.04097 25.0168 2.03412 24.9278 2.03412 24.8388C2.03412 24.6744 2.02727 24.51 2.03412 24.3457C2.05467 23.8115 2.43818 23.4211 2.97236 23.3937C3.25315 23.38 3.53394 23.3869 3.82157 23.3869C4.22563 23.38 4.17769 23.4348 4.17769 23.0171C4.17769 22.8527 4.17085 22.6884 4.17769 22.524C4.19824 22.1131 4.38315 21.8597 4.77351 21.7364C4.91048 21.6953 4.93787 21.6337 4.93103 21.5104C4.92418 21.3187 4.93103 21.1269 4.93103 20.9351C4.93103 20.5105 5.06115 20.3188 5.33509 20.3119C5.62272 20.3051 5.75284 20.5105 5.75284 20.9488C5.75284 21.1337 5.76654 21.3118 5.75284 21.4967C5.73915 21.6748 5.81448 21.709 5.97199 21.709C6.26648 21.6953 6.55412 21.6953 6.8486 21.709C7.03351 21.7159 7.0746 21.6542 7.0746 21.4762C7.06775 20.8941 7.06775 20.3119 7.06775 19.7298C7.06775 17.6958 7.06775 15.6687 7.0746 13.6347C7.0746 13.4155 7.03351 13.3196 6.79381 13.3402C6.53357 13.3607 6.26648 13.3607 5.99939 13.3402C5.78709 13.3265 5.746 13.4087 5.746 13.6004C5.75284 15.2578 5.75284 16.9151 5.75284 18.5724C5.75284 18.6614 5.75969 18.7573 5.73915 18.8464C5.69121 19.0587 5.56109 19.1888 5.33509 19.1888C5.11593 19.1888 4.97897 19.0587 4.93787 18.8464C4.91733 18.7573 4.92418 18.6683 4.92418 18.5724C4.92418 16.9151 4.92418 15.2578 4.93103 13.6004C4.93103 13.4361 4.90363 13.347 4.72557 13.2991C4.35575 13.1895 4.19824 12.9019 4.17769 12.5321C4.164 12.3061 4.17085 12.0732 4.17769 11.8472C4.18454 11.7034 4.12291 11.6555 3.98594 11.6623C3.67775 11.6692 3.36272 11.6692 3.05454 11.6623C2.582 11.6486 2.27382 11.3404 2.26012 10.8679C2.25327 10.6556 2.25327 10.4501 2.26012 10.2378C2.26697 10.094 2.21903 10.0461 2.07521 10.0461C1.904 10.0529 1.73279 10.0598 1.56158 10.0187C1.26024 9.95019 1.07533 9.77213 1.04794 9.46395C1.02739 9.18316 1.03424 8.90237 1.04109 8.62158C1.05479 8.3134 1.27394 8.16958 1.51364 8.03946C3.28739 7.10807 5.06115 6.18352 6.8349 5.25213C9.42363 3.89613 12.0124 2.54698 14.5942 1.17729C15.012 0.951288 15.3818 0.930743 15.7996 1.17729C16.2995 1.47862 16.82 1.73886 17.3336 2.0128C17.3884 2.0402 17.45 2.06759 17.498 2.10183C17.724 2.24565 17.7925 2.45795 17.6897 2.66341C17.5802 2.86886 17.3405 2.9442 17.1008 2.82092C16.5392 2.52644 15.9776 2.2251 15.4229 1.91008C15.2654 1.82104 15.1421 1.80735 14.9777 1.89638C10.6769 4.16322 6.37606 6.41637 2.06836 8.67637C1.95879 8.73801 1.84236 8.77225 1.84236 8.94346C1.84236 9.14207 1.87661 9.2311 2.10945 9.2311C10.6906 9.22425 19.2786 9.22425 27.8597 9.22425C27.9556 9.22425 28.0994 9.29273 28.1268 9.12152C28.1542 8.93661 28.1405 8.79279 27.9282 8.67637C25.0792 7.14231 22.2303 5.59456 19.3813 4.05365C19.2238 3.96462 19.0594 3.88244 18.9019 3.79341C18.6417 3.64274 18.5595 3.42359 18.6691 3.20444C18.7855 2.99213 19.0252 2.9305 19.2854 3.07432C19.9223 3.40989 20.5524 3.75916 21.1825 4.10159C23.6 5.40965 26.0175 6.72455 28.435 8.01892C28.798 8.21752 28.9897 8.47092 28.9555 8.88182C28.9418 9.0051 28.9555 9.13522 28.9555 9.26534C28.9486 9.80637 28.7089 10.0392 28.1679 10.0529C27.7296 10.0598 27.7296 10.0598 27.7296 10.5049C27.7296 10.635 27.7365 10.7583 27.7296 10.8884C27.7022 11.3473 27.4009 11.6486 26.942 11.6692C26.6339 11.6829 26.3257 11.676 26.0106 11.6692C25.86 11.6623 25.7983 11.7171 25.8052 11.8746C25.8189 12.0732 25.812 12.2787 25.8052 12.4773C25.7983 12.9361 25.6271 13.1964 25.1888 13.3333C25.0313 13.3813 25.0519 13.4703 25.0519 13.573C25.0519 14.2373 25.0519 14.9016 25.0519 15.5659C25.0519 17.5246 25.0519 19.4833 25.0519 21.4419C25.0519 21.6063 25.0655 21.7159 25.2642 21.7707C25.6203 21.8734 25.7846 22.1542 25.8052 22.5103C25.8189 22.6952 25.8257 22.8733 25.8052 23.0582C25.7778 23.3253 25.8463 23.4417 26.1408 23.4074C26.4215 23.3801 26.7023 23.3937 26.99 23.4074C27.5515 23.428 27.9351 23.8252 27.9556 24.3868C27.9556 24.4416 27.9625 24.4963 27.9556 24.5511C27.9214 24.8456 27.9488 25.0374 28.3323 25.1059C28.7226 25.1744 28.9692 25.5647 28.9897 25.9825C29.0034 26.2633 29.0034 26.5509 28.9897 26.8317C28.976 27.2357 28.7432 27.4617 28.3323 27.4754C28.2706 27.4754 28.2022 27.4754 28.1405 27.4754C19.3745 27.4754 10.6084 27.4754 1.84236 27.4823C1.45885 27.4823 1.16436 27.3933 1 27.0303C1 26.592 1 26.1742 1 25.7565ZM10.6632 17.5383C10.6632 16.2234 10.6632 14.9153 10.67 13.6004C10.67 13.4361 10.6358 13.347 10.4577 13.2922C10.1153 13.1895 9.92357 12.9156 9.91672 12.5526C9.90987 12.3061 9.90987 12.0595 9.91672 11.813C9.91672 11.6965 9.87563 11.6486 9.7592 11.6486C9.45102 11.6555 9.14284 11.6555 8.82781 11.6486C8.67714 11.6418 8.6429 11.7171 8.64975 11.8472C8.6566 12.0664 8.6566 12.2855 8.64975 12.5047C8.6429 12.806 8.54702 13.1279 8.25939 13.2032C7.81424 13.3128 7.89642 13.6073 7.89642 13.9018C7.89642 14.0935 7.89642 14.2853 7.89642 14.477C7.89642 16.7987 7.89642 19.1203 7.89642 21.4419C7.89642 21.5584 7.85533 21.6748 8.04708 21.7296C8.46484 21.8528 8.6429 22.1199 8.64975 22.5651C8.6566 22.7774 8.6566 22.9828 8.64975 23.1951C8.6429 23.3321 8.69084 23.3937 8.83466 23.3869C9.13599 23.38 9.43732 23.38 9.73866 23.3869C9.88932 23.3937 9.92357 23.3253 9.91672 23.1883C9.90987 22.9486 9.90987 22.7157 9.91672 22.4761C9.93041 22.1199 10.1016 21.8528 10.4372 21.757C10.6495 21.6953 10.6632 21.5857 10.6632 21.4077C10.6564 20.1202 10.6632 18.8327 10.6632 17.5383ZM22.107 17.552C22.107 16.2508 22.1002 14.9496 22.1139 13.6415C22.1139 13.4498 22.0933 13.3402 21.8742 13.2785C21.5865 13.2032 21.4222 12.9772 21.3811 12.6827C21.3537 12.5115 21.3605 12.3403 21.3605 12.1622C21.3605 11.6555 21.3605 11.6486 20.8674 11.6555C20.6209 11.6555 20.3059 11.5527 20.1552 11.6965C19.984 11.8541 20.1209 12.1759 20.1004 12.4293C20.1004 12.4636 20.1004 12.5047 20.1004 12.5389C20.0867 12.9156 19.9018 13.1758 19.5388 13.2922C19.395 13.3402 19.3402 13.395 19.3471 13.5525C19.3539 16.196 19.3539 18.8327 19.3471 21.4762C19.3471 21.6337 19.395 21.6885 19.5388 21.7364C19.9086 21.8528 20.0936 22.1199 20.1004 22.5171C20.1073 22.7363 20.1073 22.9554 20.1004 23.1746C20.0936 23.3253 20.1346 23.3869 20.299 23.38C20.5935 23.3664 20.8811 23.3664 21.1756 23.38C21.34 23.3869 21.3811 23.3184 21.3742 23.1746C21.3674 22.9554 21.3674 22.7363 21.3742 22.5171C21.3879 22.1473 21.5454 21.8528 21.9153 21.7501C22.1139 21.6953 22.1276 21.5926 22.1276 21.4214C22.1002 20.1407 22.107 18.8464 22.107 17.552ZM16.3748 17.5246C16.3748 16.2165 16.3748 14.9016 16.3748 13.5936C16.3748 13.4498 16.3611 13.3539 16.1831 13.2991C15.8133 13.1895 15.642 12.9293 15.6352 12.5115C15.6283 12.2924 15.6283 12.0732 15.6352 11.8541C15.642 11.7171 15.601 11.6555 15.4503 11.6555C15.149 11.6623 14.8476 11.6623 14.5463 11.6555C14.4025 11.6555 14.3477 11.7034 14.3545 11.8472C14.3614 12.0732 14.3614 12.2992 14.3545 12.5321C14.3408 12.9361 14.1696 13.1827 13.7861 13.3059C13.6423 13.3539 13.6149 13.4224 13.6149 13.5525C13.6149 16.2028 13.6217 18.8532 13.6149 21.5036C13.6149 21.6474 13.6628 21.7022 13.793 21.7433C14.1559 21.8597 14.3408 22.1131 14.3545 22.4966C14.3614 22.7226 14.3614 22.9486 14.3545 23.1814C14.3477 23.3253 14.3956 23.4006 14.5531 23.3937C14.8408 23.3869 15.1353 23.3869 15.4297 23.3937C15.5873 23.4006 15.642 23.339 15.6352 23.1883C15.6283 22.9417 15.6283 22.6952 15.642 22.4487C15.6626 22.1062 15.8407 21.8597 16.1694 21.757C16.3406 21.7022 16.3817 21.62 16.3817 21.4488C16.3748 20.1476 16.3748 18.8327 16.3748 17.5246ZM14.9983 26.6399C19.258 26.6399 23.5246 26.6399 27.7844 26.6399C27.8666 26.6399 27.9488 26.6399 28.0309 26.6399C28.0857 26.6399 28.1611 26.6468 28.1611 26.5783C28.1679 26.3591 28.2295 26.1331 28.1268 25.9345C28.0515 25.7839 27.8666 25.8455 27.7228 25.8455C19.2443 25.8455 10.7591 25.8455 2.28067 25.8455C1.81497 25.8455 1.82867 25.8455 1.80812 26.3112C1.79442 26.592 1.87661 26.6536 2.15054 26.6536C6.43769 26.6331 10.718 26.6399 14.9983 26.6399ZM14.9983 25.01C18.9088 25.01 22.8124 25.01 26.7229 25.01C26.8051 25.01 26.8872 25.0031 26.9694 25.01C27.0995 25.0168 27.1475 24.962 27.1406 24.8319C27.1338 24.7429 27.1406 24.647 27.1406 24.558C27.1406 24.2293 27.1201 24.2087 26.7777 24.2087C18.9225 24.2087 11.0673 24.2087 3.21891 24.2087C2.85594 24.2087 2.87648 24.2156 2.84909 24.695C2.83539 24.9826 2.94497 25.01 3.19151 25.01C7.12939 25.01 11.0604 25.01 14.9983 25.01ZM14.9846 10.8405C17.861 10.8405 20.7442 10.8405 23.6205 10.8405C24.6341 10.8405 25.6408 10.8405 26.6544 10.8405C26.7297 10.8405 26.8599 10.8816 26.8804 10.7994C26.942 10.5802 26.942 10.3406 26.8941 10.1282C26.8599 9.97758 26.6749 10.0529 26.5585 10.0529C18.8882 10.0461 11.2179 10.0461 3.54079 10.0461C3.08194 10.0461 3.10248 10.0461 3.07509 10.5049C3.05454 10.7926 3.15727 10.8405 3.42436 10.8405C7.28005 10.8336 11.1357 10.8405 14.9846 10.8405ZM12.7999 17.5315C12.7999 16.2302 12.7931 14.929 12.8068 13.6278C12.8068 13.395 12.7383 13.3265 12.5123 13.347C12.2657 13.3676 12.0192 13.3676 11.7727 13.347C11.5193 13.3196 11.4782 13.4224 11.4782 13.6552C11.485 16.2371 11.485 18.8258 11.485 21.4077C11.485 21.4556 11.4919 21.4967 11.485 21.5447C11.4713 21.6748 11.533 21.7159 11.6631 21.7159C11.9576 21.709 12.2452 21.6953 12.5397 21.7159C12.7657 21.7296 12.8068 21.6474 12.8068 21.4419C12.7931 20.1339 12.7999 18.8327 12.7999 17.5315ZM17.1966 17.5109C17.1966 18.8053 17.2035 20.0928 17.1898 21.3871C17.1898 21.6611 17.272 21.7364 17.5254 21.709C17.7582 21.6885 17.9979 21.6885 18.2376 21.709C18.4773 21.7296 18.5184 21.6337 18.5184 21.4145C18.5116 19.5038 18.5116 17.5931 18.5116 15.6824C18.5116 14.9907 18.5047 14.299 18.5184 13.6073C18.5253 13.3881 18.4499 13.3265 18.2376 13.3402C17.9774 13.3539 17.7103 13.3607 17.4432 13.3402C17.2309 13.3265 17.1898 13.4087 17.1898 13.6073C17.2035 14.9085 17.1966 16.2097 17.1966 17.5109ZM24.2369 17.5315C24.2369 16.2165 24.23 14.9085 24.2437 13.5936C24.2437 13.3881 24.1889 13.3265 23.9835 13.3402C23.7232 13.3607 23.4562 13.3607 23.1891 13.3402C22.9699 13.3265 22.9151 13.395 22.9151 13.6073C22.922 15.7851 22.922 17.9629 22.922 20.1407C22.922 20.5859 22.9288 21.031 22.9151 21.483C22.9083 21.6679 22.9699 21.7159 23.148 21.709C23.4219 21.6953 23.6959 21.6885 23.9698 21.709C24.1821 21.7227 24.2437 21.6542 24.2437 21.4419C24.2369 20.1407 24.2369 18.8327 24.2369 17.5315ZM6.40345 12.5252C6.67739 12.5252 6.95133 12.5252 7.22527 12.5252C7.84163 12.5252 7.82793 12.5252 7.83478 11.9089C7.83478 11.6897 7.75945 11.6555 7.56769 11.6555C6.93078 11.6623 6.29387 11.6623 5.65696 11.6623C4.98581 11.6623 4.99266 11.6623 5.00636 12.3266C5.01321 12.5047 5.08169 12.5321 5.23236 12.5321C5.62272 12.5184 6.01309 12.5252 6.40345 12.5252ZM23.5863 12.5252C23.8534 12.5252 24.1136 12.5252 24.3807 12.5252C25.0108 12.5252 25.0039 12.5252 25.0039 11.8952C25.0039 11.6897 24.9217 11.6555 24.7437 11.6555C24.0999 11.6623 23.4493 11.6555 22.8056 11.6555C22.1549 11.6555 22.1618 11.6555 22.1755 12.3061C22.1755 12.4704 22.2166 12.5321 22.3878 12.5252C22.785 12.5184 23.1822 12.5252 23.5863 12.5252ZM6.4103 22.524C5.99939 22.524 5.58848 22.5308 5.18442 22.5171C4.97212 22.5103 4.97212 22.6473 5.01321 22.7637C5.07484 22.9691 4.8146 23.3458 5.17757 23.3664C5.99939 23.4211 6.8349 23.38 7.66357 23.3869C7.80054 23.3869 7.84848 23.3184 7.82793 23.202C7.77999 22.976 7.94436 22.7226 7.7252 22.524C7.69096 22.4966 7.62248 22.5171 7.56769 22.5171C7.17733 22.524 6.79381 22.524 6.4103 22.524ZM23.5863 22.524C23.3192 22.524 23.0589 22.524 22.7919 22.524C22.1481 22.524 22.1549 22.524 22.1686 23.1746C22.1755 23.3458 22.2303 23.3869 22.3946 23.3869C23.0521 23.38 23.7027 23.3869 24.3602 23.3869C25.0245 23.3869 25.0176 23.3869 24.9971 22.7157C24.9902 22.5514 24.9354 22.5171 24.7848 22.524C24.3876 22.5308 23.9835 22.524 23.5863 22.524ZM12.1288 12.5252C12.4027 12.5252 12.6767 12.5252 12.9437 12.5252C13.5533 12.5252 13.5464 12.5252 13.5396 11.9089C13.5396 11.7239 13.4848 11.6555 13.293 11.6623C12.6493 11.676 12.0055 11.6692 11.3617 11.6692C10.7043 11.6692 10.7111 11.6692 10.7248 12.3335C10.7248 12.4841 10.7659 12.5389 10.9234 12.5321C11.3275 12.5184 11.7247 12.5252 12.1288 12.5252ZM17.8952 11.6623C17.6213 11.6623 17.3473 11.6623 17.0802 11.6623C16.4365 11.6623 16.4433 11.6623 16.457 12.3129C16.457 12.4773 16.5118 12.5252 16.6762 12.5252C17.3268 12.5184 17.9842 12.5184 18.6348 12.5184C19.2923 12.5184 19.2854 12.5184 19.2717 11.8609C19.2717 11.6829 19.1964 11.6555 19.0457 11.6555C18.6622 11.6692 18.2787 11.6623 17.8952 11.6623ZM12.1219 23.3937C12.3822 23.3937 12.6493 23.3937 12.9095 23.3937C13.5533 23.3937 13.5464 23.3937 13.5396 22.7431C13.5396 22.5514 13.4574 22.524 13.2999 22.524C12.6561 22.5308 12.0124 22.524 11.3617 22.524C10.6837 22.524 10.6906 22.524 10.7248 23.2088C10.7317 23.3595 10.7865 23.3937 10.9166 23.3937C11.3207 23.3869 11.7247 23.3937 12.1219 23.3937ZM17.8815 22.524C17.6076 22.524 17.3336 22.524 17.0665 22.524C16.4433 22.524 16.4502 22.524 16.457 23.1609C16.457 23.339 16.5118 23.3937 16.6899 23.3937C17.3336 23.3869 17.9774 23.3869 18.628 23.3869C19.2991 23.3869 19.2991 23.3869 19.2717 22.7089C19.2649 22.5651 19.2306 22.5171 19.0868 22.524C18.6828 22.5308 18.2856 22.524 17.8815 22.524Z" fill="white" stroke="white" stroke-width="0.2"/>
</svg>
