<svg width="28" height="23" viewBox="0 0 28 23" fill="none" xmlns="http://www.w3.org/2000/svg">
<path d="M0 0.355764C0.177707 0.122523 0.388735 0.000349326 0.699722 0.000349326C1.89925 0.0225627 3.09877 0.0336694 4.29829 0.000349326C4.75367 -0.0107574 4.69814 0.244697 4.69814 0.522364C4.69814 0.788925 4.77588 1.0777 4.3094 1.06659C3.38754 1.04438 2.46569 1.0777 1.54383 1.05549C1.17731 1.04438 1.05514 1.16655 1.07735 1.53307C1.09956 2.11062 1.05514 2.71038 1.08846 3.29904C1.12178 3.75441 1.02182 4.00987 0.499802 3.90991C0.344308 3.87659 0.166601 3.90991 0 3.90991C0 2.72149 0 1.53307 0 0.355764Z" fill="white"/>
<path d="M0 18.1265C1.07735 18.1376 1.06624 18.1376 1.08846 19.2371C1.09956 19.8036 0.833003 20.5255 1.21063 20.8809C1.55494 21.203 2.26577 20.9587 2.8211 20.9698C3.33201 20.9809 3.85403 20.9809 4.36493 20.9698C4.85363 20.9587 4.66482 21.3252 4.68703 21.5584C4.70924 21.8028 4.73146 22.0249 4.35383 22.0249C3.09877 22.0027 1.84371 22.0138 0.588655 22.0249C0.310988 22.0249 0.166601 21.8472 0 21.6806C0 20.4922 0 19.3038 0 18.1265Z" fill="white"/>
<path d="M27.9889 3.90993C26.9115 3.89882 26.9226 3.89882 26.9115 2.79926C26.9004 2.24392 27.1448 1.53309 26.8227 1.18879C26.4673 0.811157 25.7453 1.09993 25.1789 1.06661C24.8457 1.0444 24.5125 1.06661 24.1793 1.06661C23.5906 1.06661 23.3685 0.722304 23.5573 0.166968C23.624 -0.0107388 23.7461 0.0225813 23.8683 0.0225813C25.0456 0.0225813 26.234 0.0225813 27.4113 0.0114746C27.7001 0.0114746 27.8334 0.189182 28 0.355782C27.9889 1.53309 27.9889 2.72151 27.9889 3.90993Z" fill="white"/>
<path d="M27.9889 21.6806C27.8112 21.9139 27.6001 22.036 27.2892 22.0249C26.1785 22.0027 25.0789 22.0027 23.9683 22.0249C23.5573 22.036 23.524 21.8472 23.5462 21.5251C23.5684 21.2475 23.4573 20.9365 23.9571 20.9587C24.8013 20.992 25.6565 20.9587 26.5006 20.9698C26.8116 20.9809 26.9226 20.8698 26.9115 20.5588C26.8893 19.948 26.9448 19.3371 26.9004 18.7373C26.856 18.2042 27.067 18.0598 27.5446 18.1265C27.689 18.1487 27.8445 18.1265 27.9889 18.1265C27.9889 19.3038 27.9889 20.4922 27.9889 21.6806Z" fill="white"/>
<path d="M4.09839 11.0182C4.09839 8.74129 4.10949 6.47553 4.08728 4.19865C4.08728 3.7766 4.19835 3.67664 4.6093 3.67664C5.96431 3.68774 5.96431 3.67664 5.96431 5.03165C5.96431 9.28552 5.95321 13.5394 5.97542 17.7822C5.97542 18.2486 5.84214 18.3708 5.38676 18.3597C4.09839 18.3375 4.09839 18.3486 4.09839 17.0602C4.09839 15.0499 4.09839 13.0285 4.09839 11.0182Z" fill="white"/>
<path d="M20.6363 11.0736C20.6363 13.3172 20.6251 15.5496 20.6474 17.7932C20.6474 18.2042 20.5807 18.3708 20.1142 18.3596C18.7703 18.3374 18.7703 18.3596 18.7703 17.0046C18.7703 12.773 18.7814 8.53021 18.7592 4.29856C18.7592 3.85429 18.8148 3.65437 19.3479 3.66548C20.6362 3.7099 20.6474 3.67658 20.6474 4.96496C20.6362 7.00859 20.6363 9.04112 20.6363 11.0736Z" fill="white"/>
<path d="M9.75171 11.0182C9.75171 8.74129 9.76281 6.47553 9.7406 4.19865C9.7406 3.7766 9.86277 3.67664 10.2737 3.67664C11.5954 3.68774 11.5954 3.67664 11.5954 4.99833C11.5954 9.2522 11.5843 13.5061 11.6065 17.7599C11.6065 18.2597 11.4732 18.3708 10.9957 18.3597C9.76281 18.3264 9.76281 18.3486 9.76281 17.1157C9.75171 15.0832 9.75171 13.0507 9.75171 11.0182Z" fill="white"/>
<path d="M23.8905 10.996C23.8905 13.2729 23.8794 15.5497 23.9016 17.8266C23.9016 18.2264 23.8239 18.3708 23.3907 18.3597C22.2245 18.3375 22.2245 18.3597 22.2245 17.1713C22.2245 12.873 22.2356 8.58583 22.2134 4.28753C22.2134 3.82105 22.2911 3.65445 22.802 3.66556C23.8905 3.70998 23.8905 3.67666 23.8905 4.77623C23.8905 6.85318 23.8905 8.93013 23.8905 10.996Z" fill="white"/>
<path d="M17.1377 11.0182C17.1377 13.2951 17.1155 15.5609 17.1488 17.8377C17.1599 18.4597 16.7934 18.3264 16.4491 18.3486C16.0714 18.3709 15.8049 18.382 15.8049 17.8377C15.8271 13.2951 15.8271 8.74135 15.8049 4.19871C15.8049 3.56562 16.1603 3.71001 16.5046 3.6878C16.8822 3.66558 17.1488 3.65448 17.1377 4.19871C17.1155 6.47558 17.1377 8.74135 17.1377 11.0182Z" fill="white"/>
<path d="M14.2166 11.0181C14.2166 13.2728 14.2055 15.5274 14.2277 17.7932C14.2277 18.1819 14.1944 18.3819 13.7057 18.3708C13.2503 18.3708 13.2059 18.193 13.2059 17.8154C13.217 13.2839 13.217 8.75235 13.2059 4.22081C13.2059 3.84319 13.2503 3.67658 13.7057 3.66548C14.1833 3.65437 14.2277 3.85429 14.2277 4.24303C14.2055 6.49769 14.2166 8.76345 14.2166 11.0181Z" fill="white"/>
<path d="M7.55254 11.0183C7.55254 8.7303 7.55254 6.43121 7.55254 4.14323C7.55254 3.95442 7.44147 3.66564 7.83021 3.68785C7.99681 3.69896 8.11898 3.72117 8.10787 3.9211C8.10787 4.03216 8.10787 4.14323 8.10787 4.2543C8.10787 8.76362 8.10787 13.2729 8.10787 17.7823C8.10787 17.9489 8.11898 18.1266 8.06345 18.271C8.00791 18.4153 7.83021 18.3598 7.71914 18.3376C7.45258 18.3043 7.55254 18.0821 7.55254 17.9489C7.54143 15.8941 7.55254 13.8505 7.55254 11.7957C7.55254 11.5292 7.55254 11.2737 7.55254 11.0183Z" fill="white"/>
<path d="M26.9671 11.5736H0.244347C0.111067 11.5736 0 11.4625 0 11.3292V10.7072C0 10.574 0.111067 10.4629 0.244347 10.4629H26.9671C27.1004 10.4629 27.2114 10.574 27.2114 10.7072V11.3292C27.2225 11.4625 27.1115 11.5736 26.9671 11.5736Z" fill="#FF0000"/>
</svg>
