<svg width="28" height="27" viewBox="0 0 28 27" fill="none" xmlns="http://www.w3.org/2000/svg">
<path d="M28 26.0856C27.8539 25.7933 27.62 25.6764 27.2912 25.691C26.9259 25.7129 26.5605 25.691 26.1952 25.6983C26.0418 25.6983 25.976 25.6545 25.9906 25.501C25.9979 25.428 25.9906 25.3549 25.9906 25.2818C25.9906 20.0866 25.9906 14.8914 25.9906 9.69624C25.9906 9.06054 25.8445 8.9144 25.2015 8.9144C24.0835 8.9144 22.9582 8.9144 21.8403 8.9144C21.3215 8.9144 21.1388 9.10438 21.1315 9.62317C21.1315 10.0397 21.1169 10.4635 21.1388 10.88C21.1461 11.0992 21.095 11.1795 20.8612 11.1795C19.6117 11.1649 18.3622 11.1649 17.1127 11.1795C16.8935 11.1795 16.8424 11.1138 16.8424 10.9019C16.8497 8.21294 16.8497 5.52401 16.8497 2.83507C16.8497 2.25783 16.6816 2.08977 16.0971 2.08977C15.7317 2.08977 15.3664 2.08246 15.001 2.08977C14.8549 2.08977 14.8111 2.04593 14.8111 1.89979C14.8184 1.4833 14.8184 1.0595 14.8111 0.643006C14.8038 0.2119 14.5992 0 14.1681 0C11.0334 0 7.89875 0 4.76409 0C4.33298 0 4.12839 0.197286 4.12109 0.635699C4.11378 1.04489 4.11378 1.45407 4.12109 1.86326C4.12109 2.02401 4.07725 2.08977 3.90188 2.08246C3.55846 2.06785 3.20772 2.07516 2.8643 2.08246C2.43319 2.08977 2.2286 2.28706 2.2286 2.72547C2.2286 5.79436 2.2286 8.87056 2.2286 11.9395C2.2286 12.3486 2.43319 12.5825 2.77662 12.5825C3.11273 12.5825 3.32463 12.3413 3.32463 11.9395C3.32463 9.13361 3.33194 6.32777 3.31733 3.51461C3.31733 3.24426 3.37578 3.17119 3.66075 3.17119C7.59186 3.1785 11.5157 3.1785 15.4468 3.17119C15.6806 3.17119 15.7537 3.21503 15.7537 3.46347C15.7463 10.7704 15.7463 18.0846 15.7537 25.3914C15.7537 25.618 15.7171 25.6983 15.4614 25.6983C14.3653 25.6837 13.2766 25.6837 12.1806 25.6983C11.9614 25.6983 11.9102 25.6326 11.9102 25.4207C11.9175 24.047 11.9175 22.666 11.9175 21.2923C11.9175 20.7808 11.7349 20.5981 11.2234 20.5981C10.1273 20.5981 9.03862 20.5981 7.94259 20.5981C7.43111 20.5981 7.25574 20.7735 7.25574 21.2923C7.25574 22.666 7.24843 24.047 7.26305 25.4207C7.26305 25.6399 7.20459 25.6983 6.98539 25.691C5.86743 25.6837 4.74217 25.6764 3.62422 25.691C3.38309 25.691 3.32463 25.6399 3.32463 25.3914C3.33194 22.6587 3.33194 19.9259 3.33194 17.1858C3.33194 17.1054 3.33194 17.0251 3.33194 16.9374C3.32463 16.5501 3.12004 16.3163 2.79123 16.3163C2.44781 16.309 2.23591 16.5501 2.23591 16.952C2.23591 19.7505 2.2286 22.5491 2.24322 25.3476C2.24322 25.618 2.19207 25.7129 1.9071 25.691C1.46868 25.6618 1.03027 25.6764 0.591858 25.6837C0.23382 25.691 -1.90735e-06 25.9102 -1.90735e-06 26.2244C-1.90735e-06 26.5386 0.241127 26.7578 0.591858 26.7724C0.643005 26.7724 0.701462 26.7724 0.752609 26.7724C9.58664 26.7724 18.4207 26.7724 27.2474 26.7797C27.5835 26.7797 27.8319 26.6848 27.9927 26.3925C28 26.3048 28 26.1952 28 26.0856ZM16.8424 18.9979C16.8424 16.8497 16.8424 14.6942 16.8351 12.5459C16.8351 12.3194 16.8935 12.2537 17.12 12.261C19.619 12.2683 22.1106 12.2683 24.6096 12.261C24.8361 12.261 24.9019 12.3267 24.8946 12.5532C24.8873 13.9489 24.8873 15.3445 24.8873 16.7328C24.8873 19.619 24.8873 22.5125 24.8946 25.3987C24.8946 25.6253 24.8507 25.7202 24.6023 25.7056C24.0543 25.6837 23.5063 25.6837 22.9656 25.7056C22.7317 25.7129 22.6514 25.6545 22.6587 25.4061C22.6733 24.7119 22.666 24.0177 22.666 23.3309C22.666 22.8413 22.476 22.6514 21.9864 22.6514C21.263 22.6514 20.547 22.6514 19.8236 22.6514C19.3413 22.6514 19.144 22.8486 19.1367 23.3309C19.1367 24.0543 19.1294 24.7704 19.1367 25.4937C19.1367 25.6618 19.0856 25.7129 18.9175 25.7056C18.3257 25.6983 17.7338 25.691 17.142 25.7056C16.9008 25.7129 16.8205 25.6545 16.8205 25.3987C16.8497 23.2651 16.8424 21.1315 16.8424 18.9979ZM8.35177 23.6962C8.35177 23.1117 8.35908 22.5271 8.35177 21.9499C8.35177 21.7672 8.38831 21.6942 8.58559 21.6942C9.25783 21.7088 9.93737 21.7015 10.6096 21.6942C10.7704 21.6942 10.8288 21.738 10.8288 21.9061C10.8215 23.0971 10.8215 24.2954 10.8288 25.4864C10.8288 25.6618 10.7704 25.6983 10.6096 25.6983C9.94468 25.691 9.27975 25.691 8.61482 25.6983C8.41754 25.7056 8.34447 25.6545 8.35177 25.4426C8.35908 24.8653 8.35177 24.2808 8.35177 23.6962ZM9.46242 2.08246C8.27871 2.08246 7.09499 2.08246 5.91127 2.08246C5.21712 2.08246 5.22443 2.08246 5.20981 1.38831C5.20251 1.14718 5.26827 1.08142 5.5094 1.08873C8.00835 1.09603 10.5073 1.09603 13.0063 1.09603C13.2328 1.09603 13.5251 1.00104 13.6639 1.13257C13.8173 1.27871 13.6931 1.57829 13.7223 1.81211C13.7516 2.02401 13.6785 2.08977 13.4593 2.08977C12.1294 2.08246 10.7996 2.08246 9.46242 2.08246ZM23.5501 10.0031C23.6962 10.0031 23.8424 9.99582 23.9885 10.0031C24.2881 10.0177 24.7119 9.8643 24.8434 10.0616C24.9969 10.2808 24.8873 10.6754 24.8946 10.9896C24.9019 11.1138 24.858 11.1722 24.7265 11.1722C23.952 11.1649 23.1775 11.1649 22.4102 11.1722C22.2714 11.1722 22.2203 11.1211 22.2203 10.9823C22.2276 10.7265 22.2276 10.4708 22.2203 10.2223C22.2129 10.0543 22.2641 10.0031 22.4322 10.0031C22.8048 10.0104 23.1775 10.0031 23.5501 10.0031ZM20.2401 24.7192C20.2401 24.4562 20.2474 24.1931 20.2401 23.9301C20.2328 23.7912 20.2766 23.7328 20.4228 23.7401C20.7443 23.7474 21.0585 23.7474 21.38 23.7401C21.5188 23.7401 21.5772 23.7839 21.5772 23.9301C21.5699 24.4562 21.5699 24.9896 21.5772 25.5157C21.5772 25.6545 21.5334 25.7056 21.3873 25.7056C21.0658 25.6983 20.7516 25.6983 20.4301 25.7056C20.2912 25.7056 20.2328 25.6691 20.2401 25.523C20.2474 25.2526 20.2401 24.9896 20.2401 24.7192Z" fill="white"/>
<path d="M5.34866 16.404C5.34866 16.7693 5.34866 17.1346 5.34866 17.4927C5.35597 17.9019 5.54595 18.1065 5.94783 18.1065C6.68583 18.1138 7.42382 18.1138 8.16182 18.1065C8.55639 18.1065 8.75368 17.9019 8.75368 17.5219C8.76098 16.7766 8.76098 16.0313 8.75368 15.286C8.75368 14.9207 8.54178 14.7161 8.17643 14.7088C7.43113 14.7015 6.68583 14.7015 5.94052 14.7088C5.57518 14.7088 5.36328 14.9207 5.35597 15.286C5.34866 15.6587 5.34866 16.0313 5.34866 16.404ZM6.4447 16.4113C6.4447 15.7975 6.4447 15.7975 7.04386 15.7975C7.66495 15.7975 7.66495 15.7975 7.66495 16.4186C7.66495 17.0177 7.66495 17.0177 7.05117 17.0177C6.4447 17.0177 6.4447 17.0177 6.4447 16.4113Z" fill="white"/>
<path d="M12.1806 18.1138C12.5532 18.1138 12.9259 18.1211 13.2985 18.1138C13.6785 18.1065 13.8831 17.9019 13.8831 17.5146C13.8904 16.7766 13.8904 16.0386 13.8831 15.3006C13.8831 14.9207 13.6639 14.7088 13.2839 14.7088C12.5459 14.7015 11.8079 14.7015 11.0699 14.7088C10.6827 14.7088 10.4781 14.906 10.4708 15.3006C10.4634 16.0459 10.4634 16.7912 10.4708 17.5365C10.4781 17.9092 10.6753 18.1065 11.048 18.1138C11.4353 18.1211 11.8079 18.1138 12.1806 18.1138ZM12.1806 15.7975C12.7943 15.7975 12.7943 15.7975 12.7943 16.3966C12.7943 17.0177 12.7943 17.0177 12.1733 17.0177C11.5668 17.0177 11.5668 17.0177 11.5668 16.404C11.5668 15.7975 11.5668 15.7975 12.1806 15.7975Z" fill="white"/>
<path d="M12.166 8.54904C12.5386 8.54904 12.9113 8.55635 13.2839 8.54904C13.6858 8.54173 13.8831 8.33714 13.8831 7.93526C13.8904 7.20457 13.8904 6.48119 13.8831 5.7505C13.8831 5.35593 13.6639 5.14403 13.2693 5.14403C12.5386 5.13672 11.8152 5.13672 11.0845 5.14403C10.6827 5.14403 10.4781 5.34862 10.4708 5.7505C10.4634 6.4885 10.4634 7.22649 10.4708 7.96449C10.4781 8.35175 10.6753 8.54173 11.0626 8.55635C11.0772 8.55635 11.0991 8.55635 11.1138 8.55635C11.4718 8.54904 11.8225 8.54904 12.166 8.54904ZM11.5668 6.83192C11.5668 6.23276 11.5668 6.23276 12.1586 6.23276C12.7943 6.23276 12.7943 6.23276 12.7943 6.86846C12.7943 7.46031 12.7943 7.46031 12.1952 7.46031C11.5668 7.46031 11.5668 7.46031 11.5668 6.83192Z" fill="white"/>
<path d="M5.34866 6.83193C5.34866 7.19728 5.34866 7.56262 5.34866 7.92066C5.35597 8.32985 5.53864 8.54175 5.94052 8.54175C6.68583 8.54905 7.43113 8.54905 8.17643 8.54175C8.54908 8.53444 8.74637 8.32985 8.75368 7.9572C8.76098 7.21189 8.76098 6.46659 8.75368 5.72129C8.75368 5.35594 8.54178 5.13674 8.17643 5.13674C7.43113 5.12943 6.68583 5.12943 5.94052 5.13674C5.56056 5.13674 5.35597 5.35594 5.34866 5.7359C5.34866 6.10125 5.34866 6.46659 5.34866 6.83193ZM7.65764 6.81001C7.65764 7.46033 7.65764 7.46033 7.03656 7.46033C6.4447 7.46033 6.4447 7.46033 6.4447 6.86847C6.4447 6.24008 6.4447 6.24008 7.0804 6.24008C7.65764 6.23277 7.65764 6.23277 7.65764 6.81001Z" fill="white"/>
<path d="M12.1587 9.93007C11.7933 9.93007 11.428 9.92276 11.07 9.93007C10.6973 9.93737 10.4927 10.1274 10.4854 10.5C10.4781 11.2526 10.4781 12.0125 10.4854 12.7651C10.4927 13.1305 10.7046 13.3278 11.0773 13.3351C11.8153 13.3424 12.5533 13.3424 13.2912 13.3351C13.6785 13.3351 13.8904 13.1086 13.8977 12.714C13.905 11.9833 13.905 11.2599 13.8977 10.5292C13.8977 10.1347 13.6931 9.93007 13.2839 9.92276C12.904 9.92276 12.5313 9.93007 12.1587 9.93007ZM11.5668 11.618C11.5668 11.0188 11.5668 11.0188 12.1587 11.0188C12.166 11.0188 12.1733 11.0188 12.1879 11.0188C12.7871 11.0188 12.7871 11.0188 12.7871 11.6326C12.7871 12.239 12.7871 12.239 12.1806 12.239C11.5668 12.2464 11.5668 12.2464 11.5668 11.618Z" fill="white"/>
<path d="M8.75368 11.6472C8.75368 11.2745 8.76099 10.9019 8.75368 10.5292C8.74637 10.1419 8.55639 9.93735 8.16913 9.93004C7.42383 9.92273 6.67852 9.92273 5.93322 9.93004C5.56057 9.93735 5.35598 10.1346 5.35598 10.5073C5.34867 11.2526 5.34867 11.9979 5.35598 12.7432C5.35598 13.1158 5.57518 13.3277 5.95514 13.3351C6.69313 13.3424 7.43113 13.3424 8.16913 13.3351C8.54909 13.3351 8.75368 13.1158 8.76099 12.7359C8.76099 12.3778 8.75368 12.0125 8.75368 11.6472ZM6.4447 11.6252C6.4447 11.0188 6.4447 11.0188 7.02195 11.0188C7.65764 11.0188 7.65765 11.0188 7.65765 11.6472C7.65765 12.239 7.65765 12.239 7.06579 12.239C6.4447 12.2463 6.4447 12.2463 6.4447 11.6252Z" fill="white"/>
<path d="M2.78394 15.0522C3.08352 15.0449 3.32465 14.8038 3.32465 14.5188C3.32465 14.2119 3.07621 13.9781 2.75471 13.9854C2.45513 13.9927 2.22861 14.2265 2.23592 14.5334C2.24323 14.833 2.48435 15.0595 2.78394 15.0522Z" fill="white"/>
<path d="M23.6962 17.4927C23.6962 16.4259 23.6962 15.3664 23.6962 14.2996C23.6962 14.1973 23.6962 14.095 23.6889 14C23.6597 13.7442 23.4551 13.5543 23.1921 13.5396C22.929 13.5177 22.7025 13.6712 22.6367 13.9269C22.6075 14.0365 22.6002 14.1607 22.6002 14.2776C22.6002 16.4259 22.6002 18.5741 22.6002 20.7223C22.6002 20.7515 22.6002 20.7735 22.6002 20.8027C22.6075 21.2192 22.8194 21.4749 23.1555 21.4749C23.4916 21.4749 23.6962 21.2192 23.6962 20.7954C23.6962 19.6993 23.6962 18.596 23.6962 17.4927Z" fill="white"/>
<path d="M21.453 17.4927C21.453 16.4259 21.453 15.3664 21.453 14.2996C21.453 14.1973 21.453 14.095 21.4457 14C21.4092 13.737 21.2119 13.5543 20.9561 13.5397C20.6858 13.5177 20.452 13.6858 20.3935 13.9562C20.3716 14.0585 20.3643 14.1754 20.3643 14.2777C20.3643 16.4259 20.3643 18.5741 20.3643 20.7223C20.3643 20.737 20.3643 20.7589 20.3643 20.7735C20.3716 21.2192 20.5762 21.4749 20.9123 21.4749C21.2557 21.4749 21.453 21.2192 21.453 20.7662C21.453 19.6775 21.453 18.5887 21.453 17.4927Z" fill="white"/>
<path d="M19.2171 17.5C19.2171 16.4332 19.2171 15.3737 19.2171 14.3069C19.2171 14.1973 19.2171 14.0877 19.2025 13.9781C19.1586 13.7224 18.9541 13.5397 18.691 13.5324C18.4353 13.5251 18.2088 13.6858 18.1503 13.9416C18.1284 14.0439 18.1211 14.1608 18.1211 14.2704C18.1211 16.4259 18.1211 18.5814 18.1211 20.7443C18.1211 20.8173 18.1211 20.8904 18.1284 20.9635C18.1649 21.2704 18.3841 21.475 18.6618 21.4823C18.9541 21.4823 19.1879 21.2631 19.2025 20.9489C19.2171 20.547 19.2098 20.1451 19.2098 19.7505C19.2171 18.9906 19.2171 18.2453 19.2171 17.5Z" fill="white"/>
</svg>
