<svg width="28" height="24" viewBox="0 0 28 24" fill="none" xmlns="http://www.w3.org/2000/svg">
<path d="M28 21.0009C27.8973 21.494 27.7398 21.9596 27.3906 22.3499C26.9592 22.836 26.4251 23.1168 25.7814 23.1853C25.6308 23.199 25.4733 23.2058 25.3158 23.2058C17.77 23.2058 10.2242 23.2058 2.68523 23.2126C1.80192 23.2126 1.0624 22.9388 0.507765 22.2266C0.158549 21.7747 0.00790667 21.2611 0.00790667 20.6997C0.00105929 19.2412 -0.00578809 17.7827 0.00790667 16.3242C0.0352962 14.1604 1.69236 12.4075 3.85613 12.2842C4.9928 12.2226 6.13631 12.1884 7.26613 12.3185C7.74545 12.3732 7.98511 12.2911 8.2727 11.8734C9.0396 10.7641 10.1489 10.1889 11.4978 10.1752C13.2097 10.1547 14.9215 10.1341 16.6333 10.1889C18.0508 10.23 19.1395 10.9284 19.8927 12.1336C20.0228 12.3459 20.1392 12.4349 20.3857 12.3527C20.5364 12.3048 20.7075 12.2911 20.8719 12.2842C22.0565 12.2568 23.2411 12.1884 24.4188 12.3116C26.1991 12.5033 27.6576 13.9481 27.9315 15.7079C27.9452 15.7764 27.9658 15.8449 27.9863 15.9133C28 17.6115 28 19.3096 28 21.0009ZM13.9903 21.5624C15.5309 21.5624 17.0647 21.5624 18.6054 21.5693C18.8108 21.5693 18.8861 21.535 18.8861 21.3022C18.8793 18.9878 18.8861 16.6734 18.8793 14.3658C18.8724 12.8457 17.8385 11.8186 16.3115 11.8118C14.7709 11.8049 13.237 11.8049 11.6964 11.8118C10.1626 11.8186 9.13547 12.8526 9.12862 14.3932C9.12177 16.6939 9.12862 19.0015 9.12177 21.3022C9.12177 21.5282 9.19709 21.5693 9.40251 21.5693C10.9295 21.5556 12.4564 21.5624 13.9903 21.5624ZM7.48525 17.7621C7.48525 16.6597 7.48525 15.5573 7.48525 14.4548C7.48525 13.9413 7.48525 13.9208 6.95115 13.9071C5.99252 13.8865 5.04073 13.866 4.0821 13.9071C2.61676 13.9687 1.65128 15.0163 1.64443 16.4817C1.63758 17.8717 1.64443 19.2686 1.64443 20.6586C1.64443 21.2201 1.96626 21.5487 2.5209 21.5487C4.09579 21.5556 5.67069 21.5487 7.24559 21.5556C7.44416 21.5556 7.48525 21.4871 7.48525 21.3022C7.48525 20.1313 7.48525 18.9467 7.48525 17.7621ZM20.5158 17.7347C20.5158 18.9262 20.5158 20.1176 20.5158 21.3159C20.5158 21.4734 20.5295 21.5693 20.7281 21.5624C22.3304 21.5556 23.9327 21.5624 25.5349 21.5556C26.0074 21.5556 26.3498 21.2201 26.3498 20.7476C26.3566 19.2754 26.3772 17.7964 26.3429 16.3242C26.3155 15.0232 25.4254 14.0851 24.1312 13.9344C23.4054 13.8523 22.6796 13.9139 21.9469 13.9071C21.5498 13.9002 21.1458 13.8865 20.7486 13.9413C20.5706 13.9687 20.509 14.0235 20.509 14.2152C20.5227 15.3861 20.5158 16.5638 20.5158 17.7347Z" fill="white"/>
<path d="M18.8656 4.87535C18.8587 7.55268 16.6539 9.75069 13.9902 9.73699C11.3129 9.7233 9.12861 7.53214 9.13545 4.85481C9.1423 2.17064 11.3335 -0.00683128 14.0108 1.61053e-05C16.7018 0.00686349 18.8724 2.19118 18.8656 4.87535ZM14.0108 1.64339C12.2236 1.64339 10.7788 3.08134 10.7788 4.8685C10.7788 6.64198 12.2442 8.10732 14.0108 8.09362C15.7774 8.08677 17.2222 6.64198 17.2291 4.87535C17.2359 3.08819 15.7911 1.64339 14.0108 1.64339Z" fill="white"/>
<path d="M5.46531 4.52613C7.47159 4.51244 9.12865 6.1695 9.12181 8.16894C9.11496 10.1615 7.48528 11.7981 5.48585 11.8117C3.48641 11.8186 1.82935 10.1684 1.82935 8.16209C1.83619 6.16266 3.45902 4.53298 5.46531 4.52613ZM3.47956 8.16894C3.48641 9.26452 4.40396 10.1752 5.48585 10.1684C6.58143 10.1615 7.49213 9.23713 7.48528 8.16209C7.47844 7.06651 6.56773 6.1695 5.47215 6.1695C4.36972 6.1695 3.47272 7.0802 3.47956 8.16894Z" fill="white"/>
<path d="M22.5289 4.52614C24.5284 4.52614 26.1581 6.14212 26.1718 8.1484C26.1923 10.141 24.5352 11.8049 22.5289 11.8118C20.5295 11.8118 18.8656 10.1478 18.8793 8.15525C18.893 6.14897 20.5295 4.52614 22.5289 4.52614ZM22.5632 6.16951C21.4745 6.13527 20.5774 7.00489 20.5227 8.12786C20.4747 9.1892 21.3786 10.1204 22.4879 10.1684C23.5561 10.2095 24.4805 9.3193 24.5215 8.20318C24.5695 7.1213 23.6793 6.1969 22.5632 6.16951Z" fill="white"/>
</svg>
