<svg width="30" height="25" viewBox="0 0 30 25" fill="none" xmlns="http://www.w3.org/2000/svg">
<path d="M29 19.5306C28.9123 19.757 28.8247 19.9908 28.642 20.1661C28.3937 20.4072 28.1015 20.5314 27.7581 20.5314C26.5674 20.5314 25.3694 20.5314 24.1787 20.5314C23.9815 20.5314 23.8208 20.4729 23.7331 20.283C23.66 20.1223 23.6966 19.9762 23.8061 19.852C23.923 19.7132 24.091 19.7059 24.2591 19.7059C25.3183 19.7059 26.3702 19.7059 27.4294 19.7059C27.539 19.7059 27.6486 19.7132 27.7581 19.7059C28.0284 19.6913 28.1818 19.5452 28.1818 19.2749C28.1891 18.0331 28.1818 16.7985 28.1891 15.5567C28.1891 15.3521 28.0503 15.3741 27.9408 15.3521C25.983 14.87 25.048 12.715 26.0561 10.9984C26.4871 10.2606 27.1299 9.79305 27.9627 9.61043C28.1453 9.5666 28.1891 9.50816 28.1891 9.32553C28.1745 8.14943 28.1745 6.97333 28.1745 5.80453C28.1745 5.38084 28.043 5.24935 27.6193 5.24935C24.6024 5.24935 21.5854 5.24935 18.5685 5.24935C14.7261 5.24935 10.8763 5.24935 7.0339 5.24935C6.90972 5.24935 6.77823 5.26396 6.65405 5.22013C6.45681 5.14708 6.35454 5.00098 6.37646 4.79644C6.39837 4.59921 6.51525 4.46041 6.7271 4.4385C6.81476 4.43119 6.90972 4.43119 6.99738 4.43119C9.16696 4.43119 11.3365 4.43119 13.5061 4.43119C13.7545 4.43119 13.9956 4.39467 14.2293 4.32162C16.2236 3.71531 18.2178 3.1163 20.2121 2.51729C20.2705 2.49537 20.3363 2.48076 20.3947 2.46615C20.6358 2.42963 20.8257 2.54651 20.8768 2.75835C20.928 2.98481 20.833 3.15282 20.6139 3.24048C20.3947 3.32814 20.161 3.38658 19.9345 3.45233C19.0141 3.72992 18.0863 4.0075 17.1659 4.28509C17.071 4.31431 16.9833 4.35084 16.8956 4.43119C16.9614 4.43119 17.0271 4.43119 17.0929 4.43119C20.1098 4.43119 23.1268 4.43119 26.1437 4.43119C26.4652 4.43119 26.4652 4.43119 26.3775 4.13169C26.1876 3.50346 26.0049 2.87523 25.815 2.247C25.6981 1.85984 25.5228 1.76488 25.143 1.88175C24.1641 2.17395 23.1925 2.47346 22.2137 2.75835C21.8995 2.85332 21.6585 2.6853 21.6512 2.40041C21.6439 2.18856 21.7534 2.04977 21.9434 1.99133C23.0026 1.66991 24.0618 1.33388 25.1357 1.04168C25.7566 0.866362 26.3702 1.26083 26.5747 1.91097C26.8158 2.678 27.0423 3.44502 27.2687 4.21204C27.3052 4.34353 27.3418 4.4458 27.5171 4.43119C28.2549 4.35814 28.7297 4.70148 28.9927 5.37354C28.9927 6.94411 28.9927 8.50738 28.9927 10.0779C28.8758 10.2679 28.7151 10.3482 28.4813 10.3701C27.3271 10.4432 26.4725 11.349 26.4652 12.474C26.4579 13.6136 27.3125 14.5267 28.4813 14.607C28.7151 14.6216 28.8758 14.702 28.9927 14.8992C29 16.4333 29 17.9819 29 19.5306Z" fill="white" stroke="white" stroke-width="0.4"/>
<path d="M1 12.4812C1 10.2605 1 8.03251 1 5.81179C1 4.91328 1.48213 4.43115 2.38064 4.43115C3.25724 4.43115 4.12653 4.43115 5.00313 4.43115C5.36107 4.43115 5.53639 4.56264 5.53639 4.82562C5.53639 5.10321 5.35377 5.24931 4.98852 5.24931C4.11192 5.24931 3.24263 5.24931 2.36603 5.24931C1.94234 5.24931 1.81816 5.3808 1.81816 5.80449C1.81816 10.2386 1.81816 14.68 1.81816 19.1142C1.81816 19.589 1.93504 19.7059 2.41717 19.7059C9.01357 19.7059 15.61 19.7059 22.2064 19.7059C22.3305 19.7059 22.462 19.6913 22.5862 19.7351C22.7835 19.8081 22.8857 19.9542 22.8638 20.1588C22.8419 20.356 22.725 20.4948 22.5132 20.5167C22.4255 20.5313 22.3305 20.524 22.2429 20.524C20.2925 20.524 18.342 20.524 16.3916 20.524C16.2236 20.524 16.0702 20.5459 15.9095 20.5971C12.2424 21.6928 8.56796 22.7667 4.90086 23.8843C4.30916 24.0669 3.60057 23.6652 3.43256 23.0881C3.2061 22.3284 2.96504 21.5759 2.7532 20.8162C2.68745 20.5898 2.58518 20.524 2.35873 20.524C1.48213 20.524 1 20.0273 1 19.1434C1 16.9227 1 14.702 1 12.4812ZM13.0897 20.5898C13.0824 20.5679 13.0824 20.5533 13.0751 20.5313C9.97052 20.5313 6.8659 20.5313 3.76128 20.524C3.53483 20.524 3.53483 20.6044 3.58596 20.7797C3.7832 21.4006 3.96582 22.0289 4.15575 22.6571C4.29455 23.1173 4.44065 23.1977 4.89356 23.0589C7.22385 22.3576 9.55414 21.649 11.8917 20.9477C12.2935 20.8381 12.6953 20.714 13.0897 20.5898Z" fill="white" stroke="white" stroke-width="0.4"/>
<path d="M10.3212 17.4267C9.45916 17.4267 8.58987 17.4267 7.72788 17.4267C6.8805 17.4267 6.38376 16.93 6.38376 16.0826C6.37646 15.038 6.37646 13.9861 6.38376 12.9414C6.38376 12.7661 6.36915 12.6492 6.15731 12.5835C5.77015 12.452 5.56561 12.1306 5.551 11.7215C5.53639 11.3417 5.53639 10.9545 5.551 10.5746C5.57291 10.0706 5.92355 9.69803 6.42759 9.6542C6.62483 9.63959 6.63944 9.55924 6.63213 9.40583C6.62483 8.96023 6.67596 8.51463 6.84398 8.09094C7.3115 6.91483 8.53143 6.68108 9.35689 7.64533C9.60526 7.93753 9.84633 8.0398 10.1897 7.99597C10.2335 7.98867 10.2846 7.98867 10.3285 7.99597C10.7521 8.04711 11.0443 7.92292 11.3512 7.57959C12.0963 6.7249 13.2431 6.92944 13.7326 7.95945C13.9517 8.41966 14.0102 8.9164 14.0102 9.42044C14.0102 9.56654 14.0248 9.63959 14.2074 9.6542C14.7261 9.70534 15.0621 10.0706 15.084 10.5965C15.0986 10.9691 15.0986 11.3417 15.084 11.7142C15.0694 12.1379 14.8649 12.4447 14.4631 12.5908C14.2951 12.6492 14.2512 12.7296 14.2512 12.9049C14.2585 13.9495 14.2585 15.0015 14.2585 16.0461C14.2585 16.9446 13.7764 17.4267 12.8779 17.4267C12.0159 17.4267 11.1685 17.4267 10.3212 17.4267ZM10.6864 14.6143C10.6864 15.206 10.6937 15.7977 10.6864 16.3894C10.6864 16.5574 10.7375 16.6159 10.9056 16.6085C11.5849 16.6012 12.2716 16.6085 12.9509 16.6012C13.2943 16.6012 13.4258 16.4551 13.4258 16.1118C13.4331 15.038 13.4258 13.9641 13.4331 12.8903C13.4331 12.7223 13.3965 12.6492 13.2066 12.6492C12.4396 12.6566 11.6799 12.6566 10.9129 12.6492C10.7302 12.6492 10.6864 12.715 10.6864 12.883C10.6937 13.4674 10.6864 14.0372 10.6864 14.6143ZM9.86824 14.6362C9.86824 14.0518 9.86094 13.4674 9.87555 12.8903C9.87555 12.7077 9.82441 12.6566 9.64179 12.6566C8.91129 12.6639 8.1881 12.6639 7.4576 12.6566C7.27497 12.6566 7.20192 12.7004 7.20192 12.8976C7.20923 13.9641 7.20192 15.0307 7.20923 16.0972C7.20923 16.4698 7.34802 16.6085 7.72058 16.6085C8.35611 16.6159 8.99895 16.6012 9.63448 16.6159C9.83902 16.6232 9.87555 16.5428 9.86824 16.3602C9.86094 15.7831 9.86824 15.206 9.86824 14.6362ZM12.4542 11.8384C12.9729 11.8384 13.4915 11.8311 14.0102 11.8384C14.1782 11.8384 14.2658 11.7873 14.2658 11.6046C14.2585 11.3051 14.2585 11.0056 14.2658 10.7061C14.2658 10.5381 14.2001 10.4578 14.0248 10.4578C12.9802 10.4651 11.9282 10.4651 10.8836 10.4578C10.7229 10.4578 10.6791 10.5162 10.6864 10.6623C10.6937 10.9837 10.6937 11.2978 10.6864 11.6192C10.6791 11.7873 10.7375 11.8384 10.9056 11.8384C11.4169 11.8311 11.9356 11.8384 12.4542 11.8384ZM8.13696 10.4578C7.63292 10.4578 7.13618 10.4651 6.63213 10.4578C6.44951 10.4578 6.36185 10.5235 6.36915 10.7134C6.37646 11.0056 6.37646 11.2978 6.36915 11.59C6.36185 11.78 6.44951 11.8457 6.63213 11.8457C7.64022 11.8384 8.65561 11.8384 9.6637 11.8457C9.8098 11.8457 9.87555 11.8092 9.86824 11.6485C9.86094 11.3197 9.86094 10.991 9.86824 10.6623C9.87555 10.5089 9.81711 10.4578 9.6637 10.4578C9.15966 10.4651 8.64831 10.4578 8.13696 10.4578ZM8.25384 9.63959C8.45838 9.61768 8.7871 9.74917 8.94051 9.58846C9.09391 9.42775 8.96973 9.10633 8.99164 8.85066C8.99164 8.84335 8.99164 8.82874 8.99164 8.82144C9.05008 8.4781 8.86746 8.25165 8.62639 8.05441C8.23193 7.7403 7.9032 7.80604 7.67675 8.25165C7.47951 8.64612 7.45029 9.0698 7.4576 9.5008C7.4576 9.61768 7.52334 9.63229 7.61831 9.63229C7.80824 9.63959 8.01278 9.63959 8.25384 9.63959ZM12.3592 9.63959C12.6149 9.63959 12.8268 9.63959 13.0313 9.63959C13.1043 9.63959 13.1847 9.63959 13.1847 9.53002C13.1847 9.04059 13.1701 8.54385 12.8706 8.12016C12.6587 7.82065 12.33 7.78413 12.0378 8.02519C11.7748 8.23704 11.5776 8.48541 11.636 8.86527C11.6726 9.11363 11.5338 9.43505 11.6945 9.59576C11.8479 9.74186 12.162 9.61768 12.3592 9.63959ZM10.3431 8.81413C10.2554 8.81413 10.1604 8.82144 10.0728 8.81413C9.86824 8.78491 9.8098 8.86527 9.81711 9.0698C9.82441 9.63959 9.81711 9.63959 10.4088 9.63959C10.438 9.63959 10.4672 9.63229 10.4892 9.63959C10.7668 9.69073 10.8398 9.57385 10.8325 9.30356C10.8033 8.81413 10.8179 8.81413 10.3431 8.81413Z" fill="white" stroke="white" stroke-width="0.4"/>
<path d="M21.0668 12.5324C21.0668 11.5828 21.0668 10.6404 21.0668 9.69079C21.0668 9.31824 21.359 9.10639 21.6512 9.25249C21.8192 9.33285 21.8849 9.47164 21.8849 9.65427C21.8849 11.5974 21.8849 13.5332 21.8849 15.4763C21.8849 15.7466 21.7023 15.9292 21.4685 15.9219C21.2348 15.9146 21.0668 15.7393 21.0668 15.4617C21.0668 14.4829 21.0668 13.5113 21.0668 12.5324Z" fill="white" stroke="white" stroke-width="0.4"/>
<path d="M23.8573 12.5689C23.8573 13.0584 23.8573 13.5551 23.8573 14.0445C23.8573 14.3586 23.6893 14.5486 23.4409 14.5413C23.1998 14.534 23.0391 14.344 23.0391 14.0518C23.0391 13.0584 23.0391 12.0649 23.0391 11.0714C23.0391 10.7646 23.2071 10.5674 23.4628 10.5747C23.7039 10.582 23.8573 10.7646 23.8573 11.0641C23.8646 11.5681 23.8573 12.0722 23.8573 12.5689Z" fill="white" stroke="white" stroke-width="0.4"/>
<path d="M18.9045 11.2321C18.9045 11.3782 18.9118 11.5243 18.9045 11.6704C18.8826 11.9187 18.7219 12.0648 18.4955 12.0575C18.2617 12.0502 18.1156 11.9187 18.101 11.6923C18.0864 11.3928 18.0864 11.0933 18.101 10.7938C18.1156 10.56 18.2763 10.4285 18.5028 10.4358C18.7292 10.4358 18.8753 10.5746 18.8972 10.8084C18.9118 10.9399 18.9045 11.086 18.9045 11.2321Z" fill="white" stroke="white" stroke-width="0.4"/>
<path d="M18.101 13.6866C18.101 13.5332 18.0864 13.3725 18.1083 13.2264C18.1375 13.0073 18.2909 12.8904 18.5027 12.8904C18.7146 12.8904 18.8826 13.0073 18.8972 13.2337C18.9191 13.5478 18.9191 13.8692 18.8972 14.1834C18.8826 14.4025 18.7219 14.5194 18.5027 14.5194C18.2836 14.5194 18.1375 14.4025 18.1083 14.1834C18.0791 14.0153 18.101 13.8546 18.101 13.6866Z" fill="white" stroke="white" stroke-width="0.4"/>
<path d="M18.9045 18.632C18.9045 18.7781 18.9118 18.9242 18.9045 19.0703C18.8826 19.3114 18.7146 19.4721 18.4955 19.4575C18.269 19.4429 18.1156 19.3187 18.101 19.0849C18.0864 18.7854 18.0864 18.4859 18.101 18.1864C18.1156 17.9527 18.269 17.8285 18.5028 17.8285C18.7365 17.8285 18.8753 17.9673 18.8972 18.1937C18.9118 18.3398 18.9045 18.4859 18.9045 18.632Z" fill="white" stroke="white" stroke-width="0.4"/>
<path d="M18.8972 6.32312C18.8972 6.47653 18.9118 6.63724 18.8899 6.78334C18.8607 7.00249 18.7146 7.11937 18.4954 7.11937C18.2763 7.11937 18.1156 7.00249 18.101 6.78334C18.0791 6.46922 18.0791 6.1478 18.101 5.83369C18.1156 5.61454 18.2763 5.49036 18.4954 5.49036C18.7073 5.49036 18.8607 5.60724 18.8899 5.83369C18.9118 5.9944 18.8972 6.15511 18.8972 6.32312Z" fill="white" stroke="white" stroke-width="0.4"/>
<path d="M18.8972 8.77769C18.8972 8.9311 18.9118 9.0845 18.8972 9.23791C18.8753 9.45705 18.7365 9.58124 18.51 9.58854C18.2763 9.59585 18.1156 9.47167 18.101 9.23791C18.0791 8.9311 18.0791 8.61698 18.101 8.31017C18.1156 8.07641 18.2836 7.95223 18.51 7.95953C18.7219 7.96684 18.868 8.09102 18.8972 8.31017C18.9118 8.46358 18.8972 8.61698 18.8972 8.77769Z" fill="white" stroke="white" stroke-width="0.4"/>
<path d="M18.8972 16.185C18.8972 16.3311 18.9118 16.4772 18.8972 16.6233C18.8753 16.857 18.7292 16.9812 18.4954 16.9812C18.2763 16.9812 18.1156 16.8643 18.101 16.6452C18.0791 16.3311 18.0791 16.0096 18.101 15.6955C18.1156 15.4764 18.2763 15.3595 18.4954 15.3595C18.7146 15.3595 18.8607 15.4764 18.8899 15.6955C18.9118 15.8562 18.8972 16.0242 18.8972 16.185Z" fill="white" stroke="white" stroke-width="0.4"/>
</svg>
