<svg width="30" height="30" viewBox="0 0 30 30" fill="none" xmlns="http://www.w3.org/2000/svg">
<path d="M1.33038 29.0948C1.07342 28.9296 1 28.691 1 28.3912C1.00612 19.5015 1 10.6056 1.00612 1.70971C1.00612 1.15907 1.15907 1.00612 1.70359 1.00612C6.69606 1.00612 11.6885 1.00612 16.6749 1C16.9747 1 17.1949 1.09177 17.4029 1.30591C18.9386 2.85994 20.4804 4.40784 22.0283 5.94963C22.2424 6.15765 22.3281 6.38403 22.3281 6.6777C22.322 8.13384 22.322 9.58385 22.322 11.04C22.322 11.1379 22.322 11.2419 22.322 11.3459C22.4627 11.3459 22.5055 11.2419 22.5728 11.1746C23.5211 10.2385 24.4695 9.2963 25.4117 8.35409C25.7971 7.96864 26.0174 7.96864 26.4089 8.36021C27.1859 9.13722 27.963 9.91424 28.7339 10.6912C29.0887 11.0461 29.0887 11.2664 28.7339 11.6212C26.6659 13.6831 24.6041 15.7449 22.5361 17.8067C22.3709 17.9719 22.3097 18.131 22.3097 18.3574C22.3159 21.6918 22.3159 25.0323 22.3159 28.3668C22.3159 28.6727 22.273 28.9541 21.9488 29.0948C15.078 29.0948 8.20725 29.0948 1.33038 29.0948ZM15.3227 20.4804C15.2248 20.4804 15.127 20.4804 15.0229 20.4804C11.8109 20.4804 8.60494 20.4804 5.39288 20.4804C5.28275 20.4804 5.17262 20.4865 5.06249 20.4682C4.82388 20.4192 4.67093 20.2724 4.65869 20.0154C4.64645 19.7646 4.77494 19.6055 5.01355 19.5321C5.14203 19.4954 5.26439 19.5015 5.39288 19.5015C8.7273 19.5015 12.0678 19.5015 15.4023 19.5076C15.6042 19.5076 15.7082 19.4648 15.7694 19.2506C15.9284 18.7183 16.1181 18.1922 16.2894 17.666C16.3628 17.4396 16.473 17.2561 16.6443 17.0909C18.1555 15.5858 19.6544 14.0807 21.1656 12.5757C21.2819 12.4594 21.3431 12.3432 21.3431 12.1719C21.3369 10.5199 21.3369 8.8619 21.3431 7.20999C21.3431 6.97138 21.2696 6.92855 21.0494 6.92855C19.734 6.94078 18.4186 6.93467 17.097 6.93467C16.577 6.93467 16.4485 6.80618 16.4485 6.28614C16.4485 4.95237 16.4424 3.61859 16.4546 2.27871C16.4546 2.05845 16.4118 1.98503 16.1732 1.98503C11.5294 1.99115 6.88572 1.99115 2.242 1.98503C2.03398 1.97891 1.97891 2.0401 1.97891 2.25423C1.98503 10.783 1.98503 19.3179 1.97891 27.8467C1.97891 28.0609 2.03398 28.122 2.24812 28.122C8.51928 28.1159 14.7905 28.1159 21.0616 28.122C21.2941 28.122 21.3431 28.0486 21.3431 27.8284C21.3369 24.9956 21.3369 22.1568 21.3369 19.324C21.3369 19.2445 21.3675 19.1589 21.3063 19.0916C21.2023 19.1099 21.1595 19.1956 21.0983 19.2567C20.719 19.6361 20.3336 20.0215 19.9603 20.407C19.8013 20.5722 19.6238 20.6823 19.4097 20.7496C18.3451 21.0983 17.2806 21.4532 16.216 21.808C16.1242 21.8386 16.0141 21.8386 15.9284 21.9549C16.0386 21.9549 16.1242 21.9549 16.2099 21.9549C16.8523 21.9549 17.4886 21.9488 18.131 21.961C18.4247 21.9671 18.6082 22.1507 18.6205 22.4137C18.6327 22.6829 18.4797 22.8726 18.1861 22.9154C18.0759 22.9338 17.9658 22.9338 17.8557 22.9338C13.7136 22.9338 9.57162 22.9338 5.42959 22.9338C5.35617 22.9338 5.28275 22.9338 5.20933 22.9338C4.84836 22.9093 4.64645 22.7258 4.65869 22.4199C4.67093 22.1323 4.86671 21.9671 5.22157 21.9549C5.3011 21.9549 5.38676 21.9549 5.4663 21.9549C8.61106 21.9549 11.7558 21.9549 14.9006 21.9549C14.9985 21.9549 15.0964 21.9794 15.2004 21.9243C14.8027 21.4104 15.3289 20.9821 15.3227 20.4804ZM19.4709 19.5137C19.5321 19.4586 19.5871 19.4158 19.6361 19.3608C20.0766 18.9202 20.5171 18.4797 20.9515 18.0392C22.4566 16.5341 23.9617 15.0229 25.4667 13.5179C25.5769 13.4077 25.6686 13.3404 25.5034 13.1814C24.9467 12.6491 24.4083 12.1046 23.876 11.5539C23.772 11.4438 23.7108 11.4377 23.6007 11.5539C21.6306 13.524 19.6544 15.494 17.6782 17.4641C17.5742 17.5681 17.5498 17.6293 17.666 17.7455C18.2289 18.2962 18.7795 18.8529 19.3363 19.4097C19.3791 19.4403 19.4219 19.4709 19.4709 19.5137ZM27.8039 11.1685C27.7733 11.1318 27.7549 11.0889 27.7244 11.0583C27.1554 10.4893 26.5864 9.92035 26.0235 9.35136C25.9317 9.25959 25.8767 9.28406 25.7971 9.3636C25.3872 9.77963 24.9712 10.1957 24.5551 10.5995C24.445 10.7035 24.4633 10.7647 24.5612 10.8626C25.1119 11.4071 25.6625 11.9577 26.207 12.5084C26.2988 12.6001 26.36 12.6368 26.4701 12.5206C26.8739 12.0984 27.2961 11.6885 27.706 11.2786C27.7366 11.248 27.7672 11.2113 27.8039 11.1685ZM20.5966 5.94963C19.5382 4.89118 18.492 3.85109 17.4458 2.80487C17.4641 2.79264 17.4519 2.79875 17.4519 2.79875C17.4458 3.80214 17.4396 4.80553 17.4335 5.80892C17.4335 5.91904 17.4886 5.94352 17.5865 5.94352C18.5899 5.94352 19.5932 5.94963 20.5966 5.94963ZM18.5593 20.0093C18.0759 19.5259 17.6232 19.0671 17.1643 18.6143C17.0358 18.4859 17.0236 18.6082 16.993 18.6939C16.8462 19.1344 16.6993 19.5749 16.5525 20.0154C16.473 20.254 16.3995 20.4865 16.3078 20.7679C17.0848 20.5049 17.8006 20.2663 18.5593 20.0093Z" fill="white" stroke="white" stroke-width="0.3"/>
<path d="M11.6395 25.3688C9.51653 25.3688 7.39963 25.3688 5.27661 25.3688C4.89116 25.3688 4.68314 25.2158 4.66478 24.9283C4.64643 24.6774 4.76268 24.5 5.00129 24.4327C5.11141 24.4021 5.23378 24.396 5.35002 24.396C9.54712 24.396 13.7381 24.396 17.9352 24.396C18.3573 24.396 18.5654 24.5245 18.6082 24.8059C18.651 25.0996 18.4797 25.3321 18.186 25.3688C18.0943 25.381 18.0025 25.3749 17.9107 25.3749C15.8244 25.3688 13.732 25.3688 11.6395 25.3688Z" fill="white" stroke="white" stroke-width="0.3"/>
<path d="M8.60494 17.0665C9.68174 17.0665 10.7585 17.0665 11.8354 17.0665C11.9332 17.0665 12.0373 17.0604 12.1351 17.0848C12.3799 17.1399 12.5145 17.3051 12.5145 17.5559C12.5145 17.7884 12.3921 17.9597 12.1596 18.0148C12.0434 18.0393 11.9271 18.0454 11.8048 18.0454C9.65727 18.0454 7.50978 18.0454 5.3684 18.0454C5.35005 18.0454 5.33169 18.0454 5.31334 18.0454C4.87895 18.0393 4.65869 17.8741 4.65869 17.5559C4.65869 17.2378 4.87895 17.0726 5.31334 17.0726C6.41462 17.0665 7.50978 17.0665 8.60494 17.0665Z" fill="white" stroke="white" stroke-width="0.3"/>
</svg>
