<svg width="30" height="29" viewBox="0 0 30 29" fill="none" xmlns="http://www.w3.org/2000/svg">
<path d="M24.0654 28.6302C22.9262 28.6302 21.7787 28.6302 20.6395 28.6302C19.6819 28.6302 19.1618 28.1184 19.1536 27.1691C19.1453 26.6572 19.0875 26.1372 19.3847 25.6666C19.426 25.6006 19.393 25.5593 19.3682 25.5015C19.0462 24.7255 19.0132 23.9495 19.3682 23.1735C19.4095 23.091 19.4012 23.0414 19.3682 22.9506C19.0545 22.1746 19.0132 21.3987 19.3765 20.6309C19.4095 20.5649 19.4177 20.5153 19.3847 20.4411C19.0545 19.6568 19.0215 18.8726 19.3847 18.0883C19.4177 18.014 19.4095 17.9645 19.3765 17.8984C19.0545 17.1225 19.0215 16.3465 19.3682 15.5705C19.4012 15.4879 19.4095 15.4384 19.3682 15.3476C19.0462 14.6872 19.071 13.9855 19.2444 13.3003C19.3682 12.7885 19.7727 12.5078 20.301 12.4417C20.4249 12.4252 20.5487 12.4252 20.6725 12.4252C22.9345 12.4252 25.2046 12.4252 27.4666 12.4252C27.9536 12.4252 28.3829 12.5326 28.6966 12.9371C28.8369 13.1187 28.9525 13.3251 28.9525 13.5562C28.9525 14.1753 29.0928 14.8192 28.7379 15.3971C28.6966 15.4714 28.7379 15.5044 28.7626 15.5622C29.0681 16.3382 29.0928 17.1142 28.7544 17.8902C28.7131 17.981 28.7296 18.0305 28.7626 18.1131C29.0598 18.8808 29.0846 19.6486 28.7626 20.4163C28.7296 20.4988 28.7214 20.5484 28.7544 20.6392C29.0681 21.4152 29.0928 22.1912 28.7544 22.9672C28.7131 23.058 28.7296 23.1075 28.7626 23.19C29.0598 23.9578 29.0846 24.7255 28.7626 25.4932C28.7296 25.5758 28.7131 25.6253 28.7544 25.7161C29.0846 26.36 29.0185 27.0452 28.8947 27.7056C28.7874 28.3083 28.2508 28.6467 27.5739 28.6467C26.4099 28.6302 25.2377 28.6302 24.0654 28.6302ZM24.0819 13.4159C23.083 13.4159 22.0842 13.4159 21.0935 13.4159C20.0781 13.4076 20.1442 13.3746 20.1442 14.3817C20.1442 14.9183 20.202 14.9761 20.7551 14.9761C22.8519 14.9761 24.9487 14.9761 27.0456 14.9761C27.2024 14.9761 27.351 14.9761 27.5078 14.9761C27.9041 14.9678 27.9784 14.8935 27.9866 14.5055C27.9866 14.3074 27.9866 14.1176 27.9866 13.9194C27.9866 13.4984 27.9124 13.4241 27.4748 13.4241C26.3439 13.4159 25.2129 13.4159 24.0819 13.4159ZM24.0654 20.0365C24.2801 20.0365 24.4947 20.0365 24.7176 20.0365C25.6587 20.0365 26.5915 20.0365 27.5326 20.0365C27.9041 20.0365 27.9866 19.954 27.9866 19.5825C27.9866 19.4092 27.9866 19.2358 27.9866 19.0542C27.9866 18.5341 27.9454 18.4928 27.417 18.4928C25.4028 18.4928 23.3802 18.4928 21.366 18.4928C21.0853 18.4928 20.8129 18.4928 20.5322 18.4928C20.2763 18.4928 20.1524 18.6166 20.1524 18.8726C20.1524 19.0872 20.1524 19.3018 20.1524 19.5247C20.1524 19.9705 20.2267 20.0365 20.6808 20.0448C21.8035 20.0365 22.9345 20.0365 24.0654 20.0365ZM24.0737 21.0189C22.9345 21.0189 21.787 21.0189 20.6478 21.0189C20.2267 21.0189 20.1524 21.1015 20.1442 21.5307C20.1442 21.6711 20.1442 21.8197 20.1442 21.96C20.1442 22.5049 20.202 22.5709 20.7386 22.5709C22.9592 22.5709 25.1881 22.5709 27.4088 22.5709C27.4831 22.5709 27.5491 22.5709 27.6234 22.5709C27.8546 22.5544 27.9784 22.4388 27.9784 22.1994C27.9784 22.0261 27.9784 21.8527 27.9784 21.6711C27.9784 21.0437 27.9619 21.0189 27.3427 21.0189C26.2531 21.0189 25.1634 21.0189 24.0737 21.0189ZM24.0737 23.5615C22.9179 23.5615 21.7705 23.5615 20.6147 23.5615C20.2267 23.5615 20.1524 23.6441 20.1442 24.0403C20.1442 24.2054 20.1442 24.3705 20.1442 24.5356C20.1442 25.0392 20.2102 25.1135 20.7055 25.1135C22.7776 25.1135 24.8414 25.1135 26.9135 25.1135C27.1116 25.1135 27.3015 25.1135 27.4996 25.1135C27.8876 25.1053 27.9784 25.031 27.9784 24.643C27.9784 24.4448 27.9784 24.255 27.9784 24.0568C27.9784 23.6358 27.9124 23.5698 27.4996 23.5698C26.3604 23.5615 25.2129 23.5615 24.0737 23.5615ZM24.0737 26.0959C22.9179 26.0959 21.7705 26.0959 20.6147 26.0959C20.2267 26.0959 20.1524 26.1784 20.1442 26.5747C20.1442 26.748 20.1442 26.9214 20.1442 27.103C20.1442 27.5736 20.2185 27.6479 20.6808 27.6479C22.596 27.6479 24.5112 27.6479 26.4264 27.6479C26.7896 27.6479 27.1446 27.6479 27.5078 27.6479C27.9041 27.6479 27.9866 27.5653 27.9866 27.1856C27.9866 27.004 27.9866 26.8141 27.9866 26.6325C27.9866 26.1619 27.9371 26.1124 27.4748 26.1124C26.3356 26.0959 25.2046 26.0959 24.0737 26.0959ZM24.0984 15.9585C22.9345 15.9585 21.7705 15.9585 20.6065 15.9585C20.2185 15.9585 20.1442 16.041 20.1359 16.4373C20.1359 16.6024 20.1359 16.7675 20.1359 16.9326C20.1359 17.4444 20.1937 17.5104 20.6973 17.5104C22.662 17.5104 24.635 17.5104 26.5998 17.5104C26.8887 17.5104 27.1776 17.5104 27.4666 17.5104C27.9041 17.5104 27.9784 17.4362 27.9784 17.0151C27.9784 16.85 27.9784 16.6849 27.9784 16.5198C27.9784 16.0163 27.9289 15.9667 27.4335 15.9667C26.3273 15.9502 25.2129 15.9585 24.0984 15.9585Z" fill="white" stroke="white" stroke-width="0.2"/>
<path d="M12.9786 28.6302C11.8477 28.6302 10.7167 28.6302 9.57749 28.6302C8.58686 28.6302 8.06678 28.1101 8.06678 27.1278C8.06678 26.6242 8.00074 26.1124 8.30618 25.6583C8.31444 25.6418 8.3392 25.617 8.33095 25.6088C8.1741 25.2951 8.05853 24.9731 8.04202 24.6182C8.04202 24.5521 7.91819 24.5851 7.84389 24.5934C4.32717 24.8328 1.45435 22.4718 1.04159 18.9799C0.876483 17.5517 1.20669 16.2226 1.96617 15.0008C2.17255 14.6706 2.44498 14.5716 2.70914 14.7202C2.97331 14.877 3.02284 15.1659 2.81646 15.5044C2.24685 16.462 1.94141 17.4939 1.99094 18.6166C2.09826 21.0271 4.08776 23.2313 6.48178 23.5863C9.34634 24.0073 12.0458 22.0756 12.5081 19.2688C12.9951 16.2886 11.0882 13.5809 8.13282 13.0939C6.67165 12.8545 5.3343 13.2012 4.1373 14.0762C4.07951 14.1175 4.02172 14.1671 3.96394 14.2083C3.70802 14.3817 3.41909 14.3404 3.25399 14.1175C3.09714 13.9029 3.13841 13.614 3.36956 13.4323C4.07951 12.8545 4.88027 12.4417 5.77183 12.2106C9.92421 11.1456 14.5224 14.877 13.4244 19.7146C13.3584 20.0035 13.4327 20.0365 13.6886 20.0365C14.5967 20.0283 15.5047 20.0283 16.4046 20.0365C17.3869 20.0365 17.8905 20.5401 17.8905 21.5142C17.8905 22.026 17.9648 22.5461 17.6511 23.0084C17.6098 23.0744 17.6676 23.124 17.6924 23.1735C17.9813 23.9412 18.0143 24.709 17.6841 25.4767C17.6511 25.5593 17.6428 25.6171 17.6841 25.6996C18.0061 26.3518 17.9565 27.0452 17.8162 27.7221C17.6924 28.3083 17.1558 28.6302 16.4706 28.6302C15.3066 28.6385 14.1426 28.6302 12.9786 28.6302ZM12.9951 26.0959C11.8312 26.0959 10.6672 26.0959 9.51145 26.0959C9.16473 26.0959 9.07392 26.1949 9.06566 26.5334C9.06566 26.7067 9.06566 26.8801 9.06566 27.0617C9.06566 27.5818 9.13171 27.6478 9.65178 27.6478C11.8807 27.6478 14.1179 27.6478 16.3468 27.6478C16.4046 27.6478 16.4706 27.6478 16.5284 27.6478C16.7678 27.6396 16.9081 27.524 16.9081 27.2598C16.9081 27.0369 16.9081 26.8058 16.9081 26.5829C16.9081 26.1619 16.8421 26.0959 16.4211 26.0959C15.2818 26.0959 14.1426 26.0959 12.9951 26.0959ZM12.9869 25.1052C14.1426 25.1052 15.2901 25.1052 16.4458 25.1052C16.8008 25.1052 16.8999 25.0144 16.9081 24.6842C16.9081 24.4696 16.9081 24.2549 16.9081 24.032C16.9081 23.6358 16.8421 23.5615 16.4376 23.5615C14.6297 23.5615 12.8135 23.5615 11.0056 23.5615C10.8901 23.5615 10.7827 23.5615 10.6837 23.6358C10.2379 23.933 9.75085 24.1559 9.23902 24.321C9.10694 24.3623 9.06566 24.4283 9.05741 24.5604C9.0409 24.9897 9.14822 25.1052 9.594 25.1052C10.725 25.1052 11.8559 25.1052 12.9869 25.1052ZM11.955 22.5709C12.1366 22.5709 12.2274 22.5709 12.3182 22.5709C13.6556 22.5709 14.9929 22.5709 16.3303 22.5709C16.8503 22.5709 16.9081 22.5131 16.9081 21.9848C16.9081 21.8031 16.8999 21.6133 16.9081 21.4317C16.9164 21.1592 16.7926 21.0271 16.5201 21.0271C15.4057 21.0271 14.2995 21.0271 13.185 21.0271C13.086 21.0271 12.9869 21.0189 12.9209 21.1345C12.6815 21.638 12.3595 22.0921 11.955 22.5709Z" fill="white" stroke="white" stroke-width="0.2"/>
<path d="M16.776 4.95425C16.776 6.0522 16.7843 7.15839 16.7678 8.25634C16.7678 8.504 16.842 8.57004 17.0814 8.56178C17.4612 8.54527 17.8409 8.56178 18.2207 8.55353C18.4683 8.55353 18.6417 8.65259 18.7242 8.88374C18.8068 9.09837 18.7407 9.28824 18.5674 9.43684C17.3291 10.51 16.0908 11.5832 14.8525 12.6481C14.6049 12.8545 14.3737 12.8545 14.1343 12.6399C12.9043 11.5832 11.6743 10.5183 10.4443 9.45335C10.2709 9.2965 10.1801 9.11488 10.2709 8.87548C10.3617 8.64433 10.5351 8.55353 10.7827 8.55353C11.1294 8.55353 11.4844 8.53702 11.8311 8.56178C12.1283 8.58655 12.2274 8.51225 12.2274 8.18204C12.2109 6.02743 12.2191 3.88107 12.2191 1.72646C12.2191 1.14034 12.3595 1 12.9456 1C13.994 1 15.0424 1 16.0991 1C16.6274 1 16.7843 1.15685 16.7843 1.67693C16.776 2.76662 16.776 3.86456 16.776 4.95425ZM16.9246 9.56066C16.776 9.55241 16.7017 9.55241 16.6357 9.54415C15.901 9.5359 15.7936 9.42858 15.7936 8.71038C15.7936 6.58053 15.7854 4.45068 15.8019 2.31258C15.8019 2.0319 15.7193 1.97412 15.4552 1.97412C14.8278 1.99063 14.2004 1.99888 13.573 1.97412C13.2675 1.96586 13.2015 2.06492 13.2015 2.35386C13.2098 4.52498 13.2098 6.6961 13.2098 8.87548C13.2098 9.36254 13.0612 9.51939 12.5741 9.5359C12.4338 9.54415 12.2934 9.5359 12.0705 9.5359C12.8961 10.2458 13.6473 10.898 14.3985 11.5502C14.4893 11.6327 14.5471 11.608 14.6379 11.5337C15.3726 10.898 16.1156 10.2541 16.9246 9.56066Z" fill="white" stroke="white" stroke-width="0.2"/>
<path d="M6.79548 20.1851C7.03488 20.1851 7.26602 20.1934 7.50542 20.1851C7.8604 20.1686 8.07504 19.9457 8.09155 19.599C8.10806 19.2358 7.88516 18.9881 7.53019 18.9551C7.41462 18.9469 7.3073 18.9551 7.19173 18.9469C6.13506 18.9469 5.42511 18.1791 5.49941 17.1142C5.55719 16.363 5.8874 15.7934 6.63863 15.5622C6.78722 15.5127 6.79548 15.4384 6.80373 15.3146C6.80373 15.1329 6.80373 14.9431 6.83675 14.7615C6.87803 14.5138 7.04313 14.3817 7.29079 14.3817C7.53019 14.3817 7.70355 14.4973 7.76134 14.7449C7.7861 14.8523 7.80261 14.9678 7.80261 15.0834C7.81912 15.4879 7.81912 15.4879 8.21537 15.4879C8.37222 15.4879 8.52907 15.4714 8.67767 15.5044C8.94183 15.554 9.09043 15.7273 9.09868 15.9997C9.10694 16.2556 8.90056 16.4703 8.62814 16.4703C8.16584 16.4785 7.70355 16.4785 7.24126 16.4703C6.95232 16.4703 6.69641 16.5363 6.57258 16.817C6.4405 17.139 6.44876 17.4609 6.66339 17.7498C6.77897 17.8984 6.93581 17.948 7.12568 17.948C7.34858 17.948 7.57972 17.9315 7.80261 17.981C8.52082 18.1213 9.00787 18.6579 9.07392 19.3761C9.14821 20.1769 8.77673 20.8125 8.06678 21.0602C7.86865 21.1262 7.7861 21.2088 7.80261 21.4234C7.81912 21.572 7.79436 21.7289 7.76959 21.8857C7.72832 22.1499 7.55496 22.2737 7.29079 22.2737C7.02662 22.2655 6.86977 22.1251 6.83675 21.8609C6.81199 21.6876 6.81199 21.5142 6.81199 21.3409C6.81199 21.2088 6.77071 21.1593 6.63037 21.1593C6.42399 21.1675 6.21761 21.1675 6.01123 21.1593C5.71404 21.1427 5.52417 20.9529 5.51592 20.6804C5.51592 20.408 5.69753 20.2016 5.99472 20.1851C6.25889 20.1769 6.53131 20.1934 6.79548 20.1851Z" fill="white" stroke="white" stroke-width="0.2"/>
</svg>
