<svg width="24" height="29" viewBox="0 0 24 29" fill="none" xmlns="http://www.w3.org/2000/svg">
<path d="M1.01495 14.8247C1.01495 10.4681 1.01495 6.10394 1.01495 1.73981C1.01495 1.65761 1.01495 1.57541 1.01495 1.48573C1.02989 1.14198 1.15693 1.01495 1.49321 1.00747C1.84443 1 2.20312 1.00747 2.55435 1.00747C7.7106 1.00747 12.8594 1.00747 18.0156 1C18.2921 1 18.4864 1.0822 18.6807 1.27649C20.0258 2.63655 21.3784 3.98166 22.731 5.32677C22.9253 5.52106 23 5.72283 23 5.99185C22.9925 13.3376 23 20.6834 22.9925 28.0217C22.9925 28.5299 22.8879 28.6345 22.3947 28.6345C15.4599 28.6345 8.52514 28.6345 1.59035 28.6345C1.10462 28.6345 1 28.5299 1 28.0442C1.01495 23.6427 1.01495 19.2337 1.01495 14.8247ZM1.79959 14.8173C1.79959 19.0618 1.79959 23.2989 1.79212 27.5435C1.79212 27.7826 1.82948 27.8723 2.10598 27.8723C8.71196 27.8648 15.3254 27.8648 21.9314 27.8723C22.163 27.8723 22.2303 27.82 22.2303 27.5808C22.2228 20.534 22.2228 13.4871 22.2303 6.44022C22.2303 6.23098 22.1855 6.15625 21.9538 6.15625C20.7731 6.16372 19.5999 6.16372 18.4266 6.16372C17.9633 6.16372 17.8512 6.05163 17.8512 5.58832C17.8512 4.44497 17.8437 3.29416 17.8587 2.15082C17.8587 1.87432 17.7989 1.79959 17.5075 1.79959C12.3886 1.80707 7.2697 1.80707 2.15829 1.80707C1.7697 1.80707 1.79959 1.73981 1.79959 2.15829C1.79959 6.37296 1.79959 10.5951 1.79959 14.8173ZM18.6583 2.44226C18.6508 2.4572 18.6433 2.49457 18.6433 2.53193C18.6433 3.41372 18.6433 4.30299 18.6359 5.18478C18.6359 5.38655 18.748 5.37908 18.8825 5.37908C19.7269 5.37908 20.5788 5.37908 21.4232 5.37908C21.483 5.37908 21.5577 5.40897 21.5727 5.37908C20.5938 4.39266 19.6298 3.4212 18.6583 2.44226Z" fill="white" stroke="white" stroke-width="0.2"/>
<path d="M15.7813 12.3737C16.1549 13.0462 16.125 13.5096 15.6991 13.8832C15.3329 14.1971 14.7874 14.212 14.4063 13.9206C13.943 13.5619 13.9056 13.0911 14.2793 12.3812C14.2344 12.3288 14.1746 12.3513 14.1223 12.3513C13.3078 12.3513 12.4858 12.3513 11.6189 12.3513C11.873 12.6875 12 13.0163 11.8954 13.39C11.8356 13.6142 11.7161 13.7935 11.5293 13.9355C11.1481 14.2195 10.6176 14.2045 10.2589 13.9056C9.83292 13.5394 9.80303 13.0911 10.1692 12.3662C10.0496 12.3438 9.93007 12.3363 9.81798 12.299C9.13795 12.0897 8.75684 11.6264 8.67464 10.9314C8.45792 9.06322 8.25616 7.19501 8.03945 5.31933C8.0245 5.16988 8.00955 5.02042 7.98714 4.87844C7.93483 4.54216 7.72559 4.35534 7.38184 4.33292C7.0082 4.30303 6.79148 4.11621 6.8139 3.82477C6.83632 3.53333 7.07545 3.36893 7.44909 3.38387C8.22627 3.42124 8.84651 4.00412 8.92871 4.79624C8.95113 5.01295 9.02586 5.07273 9.2351 5.07273C11.5068 5.06526 13.786 5.06526 16.0578 5.07273C16.678 5.07273 17.0666 5.37912 17.1413 5.90221C17.1638 6.06662 17.1264 6.21607 17.089 6.373C16.8574 7.44909 16.6182 8.5177 16.3791 9.59379C16.2147 10.3261 15.8784 10.6026 15.1386 10.6026C13.3825 10.6026 11.6339 10.6026 9.87776 10.6026C9.58632 10.6026 9.55643 10.64 9.62368 10.924C9.69094 11.193 9.86281 11.3649 10.1393 11.4022C10.2514 11.4172 10.3635 11.4172 10.4756 11.4172C12.4708 11.4172 14.4661 11.4172 16.4613 11.4172C16.5659 11.4172 16.6706 11.4097 16.7677 11.4246C17.0293 11.4471 17.2011 11.6413 17.2086 11.8805C17.2086 12.1196 17.0367 12.3214 16.7826 12.3438C16.551 12.3587 16.3193 12.3513 16.0877 12.3587C15.9831 12.3438 15.871 12.3064 15.7813 12.3737ZM12.7922 5.83496C12.4783 5.83496 12.157 5.83496 11.8431 5.83496C11.2827 5.83496 11.2901 5.83496 11.3424 6.38048C11.3574 6.58971 11.4545 6.63455 11.6413 6.63455C12.299 6.62708 12.964 6.62708 13.6216 6.62708C14.2195 6.62708 14.2195 6.62708 14.2867 6.03673C14.3017 5.8798 14.2643 5.82001 14.0999 5.82749C13.6665 5.84243 13.2331 5.83496 12.7922 5.83496ZM12.7922 7.41173C12.5231 7.41173 12.2541 7.40425 11.9851 7.41173C11.3723 7.42667 11.4844 7.28469 11.5218 7.94977C11.5293 8.12164 11.604 8.18143 11.7833 8.17395C12.3587 8.15901 12.9341 8.16648 13.517 8.16648C14.0476 8.16648 14.0401 8.16648 14.1074 7.62844C14.1298 7.44909 14.0924 7.39678 13.9131 7.39678C13.5394 7.4192 13.1658 7.41173 12.7922 7.41173ZM12.7996 9.79556C12.9491 9.79556 13.0985 9.79556 13.248 9.79556C13.8682 9.79556 13.8608 9.79556 13.928 9.17531C13.9504 8.99597 13.9056 8.95113 13.7263 8.95113C13.2405 8.9586 12.7548 8.95113 12.2765 8.95113C11.5965 8.95113 11.5965 8.95113 11.7161 9.62368C11.7385 9.75819 11.7833 9.79556 11.9104 9.78808C12.2093 9.79556 12.5007 9.79556 12.7996 9.79556ZM10.1617 8.9586C9.96743 8.9586 9.77314 8.96607 9.57885 8.9586C9.45928 8.9586 9.40697 8.98849 9.42939 9.11553C9.45928 9.28741 9.47423 9.46675 9.48917 9.63863C9.49665 9.75072 9.53401 9.80303 9.66105 9.79556C10.0422 9.78808 10.4233 9.78808 10.8044 9.79556C10.9314 9.79556 10.9538 9.75072 10.9464 9.63116C10.9015 8.9586 10.9015 8.9586 10.229 8.9586C10.1991 8.9586 10.1767 8.9586 10.1617 8.9586ZM10.0272 8.17395C10.0945 8.17395 10.1543 8.17395 10.2215 8.17395C10.8119 8.17395 10.8343 8.13659 10.6923 7.56118C10.6624 7.44909 10.6176 7.41173 10.5055 7.41173C10.1318 7.4192 9.76567 7.41173 9.39203 7.41173C9.27246 7.41173 9.2351 7.44909 9.24257 7.57613C9.27246 8.17395 9.26499 8.17395 9.85534 8.17395C9.91512 8.17395 9.97491 8.17395 10.0272 8.17395ZM9.85534 6.62708C9.90018 6.62708 9.94502 6.62708 9.99733 6.62708C10.6475 6.62708 10.64 6.62708 10.5204 5.99189C10.498 5.85738 10.4382 5.82749 10.3187 5.82749C9.95996 5.83496 9.59379 5.83496 9.2351 5.82749C9.07817 5.82001 9.05575 5.8798 9.0707 6.02925C9.13795 6.62708 9.13048 6.62708 9.75072 6.62708C9.78061 6.62708 9.81798 6.62708 9.85534 6.62708ZM15.6094 6.62708C16.2521 6.62708 16.2371 6.62708 16.3343 6.09651C16.3716 5.90221 16.2969 5.83496 16.125 5.82749C15.8336 5.82001 15.5496 5.82749 15.2582 5.82001C15.1237 5.82001 15.0938 5.87232 15.0714 5.99936C14.9742 6.63455 14.9668 6.62708 15.6094 6.62708ZM15.3628 8.17395C15.8859 8.17395 15.8859 8.17395 15.9905 7.64338C15.9905 7.63591 15.9905 7.62844 15.998 7.61349C16.0653 7.45656 16.0204 7.39678 15.8411 7.40425C15.6019 7.41173 15.3553 7.41173 15.1162 7.40425C14.9668 7.39678 14.9144 7.44909 14.8846 7.59855C14.7949 8.18143 14.7874 8.17395 15.3628 8.17395ZM15.6916 8.98102C14.765 8.85398 14.7426 8.86893 14.6678 9.60874C14.6678 9.62368 14.6604 9.6461 14.6604 9.66105C14.638 9.75819 14.6828 9.79556 14.7799 9.79556C15.5272 9.78808 15.5197 9.90765 15.6617 9.16784C15.6692 9.10806 15.6767 9.04827 15.6916 8.98102ZM15.0415 13.3377C15.1835 13.3153 15.2657 13.2405 15.2582 13.0985C15.2507 12.9566 15.161 12.8744 15.0191 12.8818C14.8771 12.8893 14.7949 12.979 14.8024 13.121C14.8098 13.2704 14.907 13.3302 15.0415 13.3377ZM11.1407 13.106C11.1257 12.979 11.0659 12.8818 10.924 12.8744C10.7745 12.8669 10.6774 12.9566 10.6774 13.106C10.6774 13.2405 10.767 13.3227 10.909 13.3302C11.051 13.3377 11.1257 13.2555 11.1407 13.106Z" fill="white"/>
<path d="M13.7786 25.6229C11.7385 25.6229 9.69841 25.6229 7.65833 25.6229C7.56866 25.6229 7.47151 25.6304 7.38184 25.608C7.1726 25.5632 7.06051 25.4212 7.06798 25.2045C7.07545 25.0027 7.19502 24.8757 7.39678 24.8458C7.48646 24.8308 7.5836 24.8383 7.67328 24.8383C11.7534 24.8383 15.8411 24.8383 19.9212 24.8383C20.0034 24.8383 20.0931 24.8308 20.1753 24.8458C20.3846 24.8757 20.5191 24.9952 20.5265 25.2119C20.534 25.4436 20.407 25.5781 20.1903 25.6155C20.1081 25.6304 20.0259 25.6229 19.9362 25.6229C17.8812 25.6229 15.8336 25.6229 13.7786 25.6229Z" fill="white" stroke="white" stroke-width="0.2"/>
<path d="M13.7785 20.9898C11.7459 20.9898 9.71326 20.9898 7.68065 20.9898C7.59098 20.9898 7.49383 20.9973 7.40416 20.9824C7.20239 20.9599 7.08283 20.8329 7.06788 20.6311C7.05294 20.4294 7.14261 20.2874 7.34438 20.2351C7.44152 20.2052 7.54614 20.2052 7.65076 20.2052C11.7533 20.2052 15.8559 20.2052 19.951 20.2052C20.0631 20.2052 20.1752 20.1977 20.2798 20.2425C20.4592 20.3173 20.5414 20.4518 20.519 20.6386C20.504 20.8329 20.3919 20.945 20.2051 20.9749C20.1154 20.9898 20.0183 20.9824 19.9286 20.9824C17.8811 20.9898 15.8335 20.9898 13.7785 20.9898Z" fill="white" stroke="white" stroke-width="0.2"/>
<path d="M13.8159 16.5434C11.7758 16.5434 9.73572 16.5434 7.69564 16.5434C7.60597 16.5434 7.50882 16.5509 7.41915 16.536C7.19496 16.4986 7.06045 16.3641 7.06792 16.1399C7.0754 15.9082 7.20991 15.7812 7.44156 15.7663C7.53124 15.7588 7.62838 15.7588 7.71806 15.7588C11.7683 15.7588 15.8261 15.7588 19.8763 15.7588C19.981 15.7588 20.0856 15.7588 20.1827 15.7663C20.3845 15.7887 20.5041 15.9157 20.519 16.1175C20.534 16.3342 20.4219 16.4762 20.2126 16.521C20.1155 16.5434 20.0109 16.536 19.9062 16.536C17.8811 16.5434 15.8485 16.5434 13.8159 16.5434Z" fill="white" stroke="white" stroke-width="0.2"/>
<path d="M3.48843 16.1474C3.48843 15.7962 3.48096 15.4375 3.48843 15.0863C3.4959 14.7799 3.62294 14.6379 3.92933 14.6379C4.64672 14.6305 5.36411 14.6305 6.0815 14.6379C6.38041 14.6454 6.51492 14.7949 6.5224 15.1012C6.52987 15.8112 6.52987 16.5136 6.5224 17.2235C6.5224 17.5224 6.37294 17.6719 6.07403 17.6794C5.35663 17.6868 4.63924 17.6868 3.92185 17.6794C3.63789 17.6794 3.4959 17.5299 3.48843 17.2459C3.48096 16.8723 3.48843 16.5061 3.48843 16.1474ZM5.73775 16.1699C5.73775 15.983 5.73028 15.7962 5.73775 15.6094C5.74522 15.4674 5.69291 15.4076 5.55093 15.4151C5.18476 15.4226 4.82606 15.4226 4.4599 15.4151C4.31791 15.4151 4.2656 15.4674 4.2656 15.6094C4.27308 15.9756 4.27308 16.3343 4.2656 16.7004C4.2656 16.8424 4.31044 16.9022 4.4599 16.8947C4.64672 16.8873 4.83354 16.8947 5.02036 16.8947C5.73775 16.8947 5.73775 16.8947 5.73775 16.1699Z" fill="white"/>
<path d="M5.01297 22.1182C4.6468 22.1182 4.28811 22.1257 3.92194 22.1182C3.62303 22.1107 3.49599 21.9837 3.48851 21.6923C3.48104 20.9674 3.48104 20.2425 3.48851 19.5177C3.48851 19.2337 3.63797 19.0992 3.92941 19.0917C4.6468 19.0843 5.36419 19.0843 6.08159 19.0917C6.36555 19.0917 6.51501 19.2412 6.52248 19.5251C6.52995 20.25 6.52995 20.9749 6.52248 21.6997C6.52248 21.9688 6.37303 22.1107 6.104 22.1182C5.73784 22.1257 5.37167 22.1182 5.01297 22.1182ZM5.73784 20.5564C5.70794 20.3771 5.84245 20.0707 5.693 19.9137C5.54354 19.7643 5.23716 19.8689 4.99803 19.8689C4.27316 19.8614 4.27316 19.8689 4.27316 20.5863C4.27316 20.8254 4.16854 21.1318 4.32547 21.2813C4.47493 21.4382 4.78131 21.3261 5.02044 21.3336C5.73784 21.341 5.73784 21.3336 5.73784 20.5564Z" fill="white"/>
<path d="M4.99047 23.5455C5.34169 23.5455 5.70038 23.5455 6.05161 23.5455C6.37294 23.553 6.52239 23.6875 6.52239 24.0014C6.52987 24.7113 6.52987 25.4137 6.52239 26.1236C6.52239 26.4375 6.37294 26.5795 6.05161 26.5795C5.35663 26.5795 4.65419 26.5869 3.95922 26.5795C3.63788 26.5795 3.4959 26.445 3.4959 26.1236C3.48843 25.4137 3.48843 24.7113 3.4959 24.0014C3.4959 23.6725 3.63041 23.553 3.95922 23.553C4.30297 23.538 4.64672 23.5455 4.99047 23.5455ZM5.00541 25.8023C5.24454 25.7649 5.5584 25.9069 5.69291 25.7425C5.81248 25.6005 5.73775 25.3016 5.73027 25.07C5.7228 24.8308 5.84237 24.517 5.67797 24.375C5.53598 24.2554 5.23707 24.3302 5.00541 24.3376C4.76628 24.3451 4.45989 24.233 4.31044 24.3899C4.17593 24.5394 4.27307 24.8383 4.27307 25.0625C4.27307 25.2941 4.19835 25.6005 4.31044 25.735C4.45242 25.9069 4.76628 25.7649 5.00541 25.8023Z" fill="white"/>
</svg>
