<svg width="30" height="30" viewBox="0 0 30 30" fill="none" xmlns="http://www.w3.org/2000/svg">
<path d="M20.7018 1.01465C21.3317 1.17578 21.7272 1.61522 22.1007 2.12059C23.6388 4.23725 25.1988 6.34659 26.7588 8.45592C27.2715 9.14439 27.3521 9.8475 26.898 10.5946C26.8687 10.6385 26.8174 10.6898 26.8467 10.741C27.0225 11.034 27.0738 11.4002 27.3887 11.6053C27.8208 11.8909 28.2529 12.1839 28.6997 12.4549C28.9048 12.5867 29 12.7478 29 12.9969C28.9927 17.9772 29 22.9576 28.9927 27.9307C28.9927 28.6338 28.5459 29.0732 27.8428 29.0732C22.4083 29.0732 16.9738 29.0732 11.532 29.0732C11.1878 29.0732 10.9974 28.9268 10.9974 28.6631C10.9974 28.3994 11.1878 28.2529 11.532 28.2529C16.7175 28.2529 21.9103 28.2529 27.0957 28.2529C27.2056 28.2529 27.3155 28.2529 27.4253 28.2529C27.4473 28.1431 27.3594 28.1284 27.3081 28.0918C24.1734 25.5796 21.0387 23.0675 17.904 20.548C17.7795 20.4528 17.6989 20.4455 17.5671 20.526C15.8533 21.5221 14.1394 21.5221 12.4256 20.526C12.2937 20.4455 12.2059 20.4601 12.0887 20.5553C8.96861 23.0675 5.84122 25.5723 2.70651 28.0772C2.65524 28.1211 2.582 28.1504 2.56003 28.231C2.65524 28.2822 2.75778 28.2529 2.853 28.2529C5.0429 28.2529 7.24013 28.2529 9.43003 28.2529C9.51792 28.2529 9.61313 28.2456 9.70102 28.2603C9.93539 28.2822 10.0965 28.458 10.0965 28.6704C10.0965 28.8828 9.92807 29.0513 9.6937 29.0732C9.62778 29.0806 9.56919 29.0732 9.50327 29.0732C7.079 29.0732 4.66205 29.0732 2.23777 29.0732C1.4248 29.0732 1.00732 28.6558 1.00732 27.8428C1.00732 22.921 1.00732 17.9919 1 13.0701C1 12.7698 1.10254 12.5867 1.35156 12.4183C5.37248 9.81088 9.38608 7.19618 13.407 4.58148C13.9783 4.20795 14.6155 4.06147 15.2893 4.13471C15.4724 4.15668 15.5969 4.10541 15.7361 4.00288C16.7981 3.21188 17.8674 2.43552 18.9367 1.64452C19.2956 1.38085 19.6545 1.10986 20.0939 1C20.299 1.01465 20.4967 1.01465 20.7018 1.01465ZM14.8938 20.4381C15.8093 20.4381 16.4831 20.255 17.2009 19.7936C19.2077 18.4973 21.2145 17.1862 23.2213 15.8899C23.3897 15.78 23.5143 15.6555 23.6021 15.4797C23.8072 15.0915 24.1002 14.7766 24.4664 14.5496C24.6934 14.4104 24.7227 14.2639 24.6422 14.0296C24.3492 13.1946 24.0709 12.3597 23.7999 11.5174C23.7267 11.2757 23.6168 11.1878 23.3531 11.2025C22.4156 11.2464 21.6393 10.9022 21.046 10.1771C20.8922 9.98666 20.7604 9.95736 20.5333 10.0306C16.051 11.532 11.5613 13.0408 7.06435 14.5203C6.57363 14.6814 6.30264 14.8865 6.33926 15.4211C6.34659 15.5383 6.35391 15.6189 6.46377 15.6921C7.07167 16.0803 7.67225 16.4758 8.28015 16.8713C8.38268 16.9372 8.45592 16.9519 8.56579 16.8713C8.98326 16.5783 9.4227 16.571 9.8475 16.8493C10.265 17.1203 10.4188 17.5305 10.3236 18.0139C10.2943 18.1677 10.3529 18.2263 10.4554 18.2922C11.2025 18.7756 11.9422 19.2516 12.6819 19.7423C13.385 20.1818 14.1541 20.4455 14.8938 20.4381ZM1.85692 13.6707C1.85692 18.3654 1.85692 23.0162 1.85692 27.7036C5.09417 25.1109 8.2948 22.5402 11.5247 19.9547C8.2948 17.8527 5.09417 15.7727 1.85692 13.6707ZM28.1431 27.7036C28.1431 23.0016 28.1431 18.3581 28.1431 13.6707C24.9132 15.7727 21.7052 17.8527 18.4753 19.9547C21.6979 22.5402 24.9058 25.1036 28.1431 27.7036ZM25.543 14.3738C25.7261 14.2566 25.8653 14.1541 26.0191 14.0662C26.1656 13.9856 26.1875 13.8977 26.1363 13.7366C25.5284 11.9349 24.9205 10.1258 24.3272 8.31677C24.1661 7.81873 23.6461 7.46717 23.1261 7.69422C23.0455 7.73084 22.9503 7.74549 22.8624 7.77478C16.6516 9.79623 10.47 11.8982 4.28119 13.971C4.20063 14.0003 4.09809 13.9929 4.04682 14.1028C4.54486 14.4251 5.03557 14.74 5.56291 15.0842C5.55558 14.469 5.78996 14.0735 6.33194 13.8977C11.012 12.3377 15.6921 10.7703 20.3722 9.21763C20.9069 9.04185 21.2877 9.15171 21.6393 9.59116C22.0934 10.1624 22.6866 10.4188 23.4117 10.3822C23.9976 10.3455 24.3638 10.5946 24.5543 11.1512C24.8472 11.9935 25.1256 12.8431 25.4112 13.6926C25.4698 13.8977 25.5357 14.1028 25.543 14.3738ZM7.56971 11.0487C7.58436 11.0706 7.59168 11.0853 7.60633 11.1072C8.82213 10.3748 10.1771 9.89877 11.3196 9.0272C11.825 8.63903 12.345 8.2655 12.865 7.89197C14.469 6.71279 16.0657 5.53361 17.6696 4.35443C18.153 4.00288 18.5339 3.99555 19.0319 4.31781C19.1052 4.36908 19.1857 4.42035 19.2663 4.45697C19.6398 4.6474 19.9987 4.69867 20.4015 4.46429C20.9655 4.13471 21.5221 3.73921 22.3058 3.78315C21.8444 3.17525 21.4489 2.6113 21.0094 2.08397C20.7531 1.77635 20.299 1.75438 19.9547 1.95946C19.7643 2.06932 19.5885 2.19383 19.4128 2.32566C16.6662 4.35443 13.927 6.38321 11.1732 8.41198C9.97201 9.29819 8.77086 10.1698 7.56971 11.0487ZM23.8072 6.82998C23.5143 6.26602 23.2433 5.73136 22.9576 5.1967C22.65 4.61078 22.2032 4.47894 21.61 4.78655C17.2668 7.03505 12.9236 9.27622 8.58776 11.5247C8.49987 11.5687 8.41198 11.6199 8.31677 11.6712C8.74889 11.598 9.15171 11.4661 9.55454 11.327C10.3089 11.056 11.0999 10.8875 11.8177 10.5213C14.2859 9.25425 16.7468 7.97986 19.2077 6.70547C19.4201 6.5956 19.6398 6.51504 19.8888 6.52969C20.1452 6.55166 20.3649 6.6542 20.548 6.82998C20.9948 7.26942 21.4708 7.43788 22.1007 7.15956C22.6134 6.92519 23.1627 6.71279 23.8072 6.82998ZM14.1541 5.17473C13.9563 5.21135 13.8684 5.28459 13.7732 5.35051C11.0999 7.08632 8.43395 8.82213 5.76066 10.5506C4.64007 11.2757 3.51949 11.9935 2.3989 12.7112C2.1865 12.8504 2.1865 12.9236 2.3989 13.0628C2.51609 13.136 2.6406 13.1946 2.75046 13.2752C2.90426 13.3924 3.01412 13.385 3.17526 13.2679C6.36856 10.9095 9.56919 8.55846 12.7625 6.20743C13.2093 5.87784 13.6487 5.54826 14.1541 5.17473ZM18.9001 5.226C18.2922 4.83782 18.4606 4.8012 17.904 5.21135C17.4353 5.55558 16.9665 5.90714 16.4978 6.25137C16.2561 6.42715 16.0144 6.61025 15.7727 6.78603C15.78 6.80068 15.7947 6.82265 15.802 6.8373C16.8347 6.30264 17.8601 5.76798 18.9001 5.226ZM16.9226 8.80748C16.9299 8.82213 16.9372 8.83678 16.9445 8.85142C17.5012 8.66832 18.0651 8.48522 18.6218 8.29479C19.1784 8.11169 19.735 7.92127 20.321 7.72352C20.1964 7.61365 20.0939 7.53309 20.006 7.4452C19.8888 7.32801 19.7716 7.32801 19.6325 7.40125C18.7316 7.87732 17.8234 8.34606 16.9226 8.80748ZM26.9126 13.4876C27.0957 13.0115 26.876 12.3597 26.4219 12.0081C26.5904 12.5208 26.7442 12.9749 26.9126 13.4876ZM26.2974 9.70834C26.3853 9.11509 25.9239 8.8148 25.6309 8.42663C25.858 8.85142 26.0777 9.28355 26.2974 9.70834Z" fill="white" stroke="white" stroke-width="0.2"/>
<path d="M15.6629 18.175C16.4831 17.9626 17.1936 17.0324 17.2522 16.1096C17.2888 15.531 17.1496 15.011 16.8347 14.5276C16.6516 14.2493 16.6809 14.0296 16.8933 13.8831C17.1057 13.7366 17.3327 13.8098 17.5158 14.0735C18.3215 15.238 18.2629 16.8347 17.3694 17.9553C16.4905 19.0612 14.9378 19.4787 13.6414 18.9587C13.429 18.8708 13.2752 18.7536 13.2898 18.4973C13.3045 18.2995 13.4217 18.1823 13.6048 18.1311C13.7366 18.0944 13.8538 18.1603 13.9783 18.197C14.5496 18.3874 15.1135 18.4313 15.6775 18.1603L15.6629 18.175Z" fill="white" stroke="white" stroke-width="0.2"/>
<path d="M14.0369 13.6048C12.6892 13.949 11.9642 15.6702 12.616 16.9812C12.6673 17.0764 12.7259 17.1716 12.7771 17.2668C12.8943 17.4939 12.8431 17.7209 12.6526 17.8454C12.4549 17.9699 12.2278 17.9187 12.0813 17.6989C11.7957 17.2741 11.6199 16.8054 11.554 16.3C11.261 13.9343 13.6121 12.0301 15.8533 12.8064C16.0437 12.8724 16.2048 12.9676 16.2195 13.1946C16.2488 13.5169 15.9704 13.7146 15.6189 13.5974C15.1721 13.451 14.7327 13.407 14.2712 13.5095C14.1834 13.5315 14.0881 13.5388 14.0222 13.6048C14.0296 13.6121 14.0369 13.6048 14.0369 13.6048Z" fill="white" stroke="white" stroke-width="0.2"/>
<path d="M15.6701 18.1604C15.4284 18.2116 15.2087 18.2043 15.1135 17.9187C15.0769 17.8088 14.9817 17.8381 14.9084 17.8381C14.6887 17.8308 14.469 17.8015 14.2859 17.6696C14.0954 17.5378 14.0149 17.362 14.1394 17.1496C14.2566 16.9372 14.4324 16.9738 14.6081 17.0691C14.8059 17.1789 15.011 17.1862 15.216 17.0984C15.4138 17.0178 15.5749 16.9079 15.5529 16.6589C15.531 16.4245 15.4284 16.2488 15.1794 16.1755C14.9743 16.1169 14.7619 16.1462 14.5569 16.1243C13.8464 16.0583 13.4656 15.6848 13.4583 15.0476C13.4583 14.7766 13.5608 14.5496 13.7512 14.3665C13.8171 14.3079 13.9123 14.2639 13.8611 14.1467C13.7585 13.9124 13.8757 13.7439 14.0442 13.5974L14.0369 13.6048C14.2493 13.6121 14.4397 13.6341 14.5129 13.8758C14.5495 13.9929 14.6374 13.9563 14.718 13.9563C14.8645 13.9417 15.011 13.9344 15.1501 13.9783C15.3479 14.0442 15.4284 14.1834 15.3918 14.3811C15.3552 14.5862 15.216 14.6741 15.0183 14.6448C14.7766 14.6082 14.5422 14.6375 14.3298 14.762C14.2053 14.8352 14.1174 14.9378 14.1394 15.0989C14.1687 15.2527 14.2566 15.3772 14.4177 15.3992C14.6228 15.4285 14.8352 15.4285 15.0476 15.4431C15.8898 15.5164 16.4025 16.1902 16.2194 16.9812C16.2121 16.9958 16.2194 17.0178 16.2048 17.0324C15.9411 17.3693 15.7873 17.7649 15.6701 18.1677C15.6628 18.175 15.6701 18.1604 15.6701 18.1604Z" fill="white" stroke="white" stroke-width="0.2"/>
<path d="M20.1305 13.0115C20.7677 13.0115 21.2511 13.5022 21.2511 14.1394C21.2511 14.7693 20.7531 15.2673 20.1232 15.2673C19.508 15.2673 18.9953 14.7546 18.9953 14.1321C19.0026 13.5022 19.5007 13.0042 20.1305 13.0115ZM20.1232 13.8318C19.9401 13.8538 19.8229 13.9563 19.8302 14.1467C19.8376 14.3225 19.9548 14.4397 20.1305 14.4324C20.3136 14.425 20.4308 14.3079 20.4308 14.1174C20.4235 13.9343 20.3063 13.8464 20.1232 13.8318Z" fill="white" stroke="white" stroke-width="0.2"/>
<path d="M23.4117 9.00524C23.4117 9.2689 23.1993 9.49595 22.9283 9.50327C22.6573 9.5106 22.423 9.27623 22.4303 8.99791C22.4376 8.73424 22.6354 8.52917 22.8917 8.52185C23.1773 8.51452 23.4117 8.73424 23.4117 9.00524Z" fill="white" stroke="white" stroke-width="0.2"/>
<path d="M20.548 3.38766C20.5333 3.65133 20.299 3.86373 20.0353 3.84908C19.7716 3.83443 19.5519 3.59274 19.5665 3.33639C19.5739 3.05808 19.8156 2.84568 20.1012 2.86765C20.3649 2.88962 20.5626 3.10935 20.548 3.38766Z" fill="white" stroke="white" stroke-width="0.2"/>
<path d="M21.7638 6.55897C21.4928 6.5663 21.2657 6.36122 21.2584 6.09023C21.2438 5.81924 21.4781 5.57755 21.7564 5.57755C22.0201 5.57755 22.2398 5.79727 22.2472 6.06826C22.2398 6.33925 22.0348 6.55165 21.7638 6.55897Z" fill="white" stroke="white" stroke-width="0.2"/>
</svg>
