<svg width="30" height="30" viewBox="0 0 30 30" fill="none" xmlns="http://www.w3.org/2000/svg">
<path d="M1.00779 19.1837C1.00779 17.0733 1.00779 14.9707 1.00779 12.8603C1.00779 12.3308 1.14017 12.1906 1.67751 12.1906C3.52313 12.1906 5.36876 12.1828 7.21438 12.1984C7.45579 12.1984 7.54924 12.1594 7.54146 11.8869C7.51809 10.929 7.53367 9.96338 7.53367 9.00552C7.53367 7.89192 8.14109 7.05087 9.20018 6.70822C9.35593 6.65371 9.40266 6.58363 9.40266 6.42788C9.39487 5.43887 9.39487 4.44986 9.40266 3.45307C9.40266 1.99682 10.3995 1.00781 11.8635 1.00781C15.0408 1.00781 18.218 1.00781 21.3953 1.00781C23.1319 1.00781 24.3312 2.20708 24.3312 3.93589C24.3312 7.82962 24.3312 11.7233 24.3234 15.6249C24.3234 15.8896 24.3935 15.9441 24.6427 15.9364C25.8887 15.9208 27.1269 15.9286 28.3729 15.9286C28.8323 15.9286 28.9959 16.0843 28.9881 16.536C28.9803 17.1045 29.0426 17.6807 28.9414 18.2492C28.7155 19.5965 27.5941 20.5777 26.2235 20.5855C24.7595 20.601 23.2877 20.5932 21.8236 20.5855C21.5744 20.5855 21.5199 20.6478 21.5199 20.8892C21.5277 22.7582 21.5277 24.6194 21.5277 26.4883C21.5277 28.0069 20.5465 28.9881 19.0357 28.9881C16.0454 28.9881 13.055 28.9881 10.0568 28.9881C8.51489 28.9881 7.53367 28.0225 7.54146 26.4883C7.54146 26.2469 7.47916 26.1846 7.23775 26.1846C5.36876 26.1924 3.50756 26.1924 1.63857 26.1924C1.14796 26.1924 1 26.0445 1 25.5461C1.00779 23.4201 1.00779 21.3019 1.00779 19.1837ZM19.6587 7.61157C19.6587 8.65509 19.6587 9.64409 19.6587 10.6409C19.6587 11.1003 19.503 11.2639 19.0591 11.2639C16.0376 11.2639 13.016 11.2639 9.9945 11.2639C9.55841 11.2639 9.40266 11.1003 9.40266 10.6642C9.40266 9.72975 9.39487 8.80305 9.40266 7.86855C9.40266 7.62714 9.33257 7.62714 9.16125 7.73617C8.66285 8.04767 8.46037 8.50713 8.46037 9.09118C8.46816 14.8773 8.46037 20.6711 8.46037 26.4572C8.46037 27.5085 9.01328 28.0614 10.0568 28.0614C13.0316 28.0614 15.9986 28.0614 18.9734 28.0614C20.0403 28.0614 20.5854 27.5163 20.5854 26.4494C20.5854 20.6867 20.5854 14.9318 20.5854 9.16906C20.5854 9.06003 20.5932 8.95101 20.5776 8.84977C20.5231 8.2735 20.235 7.87634 19.6587 7.61157ZM19.4017 1.98903C19.3083 1.91116 19.2304 1.94231 19.1603 1.94231C16.7151 1.94231 14.262 1.94231 11.8168 1.94231C10.929 1.94231 10.3372 2.53415 10.3372 3.42192C10.3372 5.63356 10.3371 7.85298 10.3294 10.0646C10.3294 10.2749 10.3761 10.345 10.6019 10.345C13.2263 10.3372 15.8429 10.3372 18.4672 10.345C18.6931 10.345 18.7398 10.2827 18.732 10.0646C18.7242 8.20341 18.7398 6.33443 18.7242 4.47323C18.7164 3.5621 18.7632 2.69769 19.4017 1.98903ZM24.1131 19.6588C23.4746 18.9345 23.3811 18.1246 23.3811 17.268C23.3967 12.8681 23.3889 8.46819 23.3889 4.06828C23.3889 3.94368 23.3889 3.81908 23.3811 3.68669C23.3344 2.71326 22.5089 1.93452 21.5199 1.93452C20.5309 1.93452 19.6899 2.71326 19.6665 3.69448C19.6432 4.6134 19.6587 5.54011 19.6587 6.45903C19.6587 6.58363 19.6899 6.63814 19.8223 6.68486C20.9826 7.0976 21.5277 7.87634 21.5277 9.09897C21.5277 12.4787 21.5277 15.8585 21.5277 19.2382C21.5277 19.3161 21.5355 19.394 21.5277 19.4719C21.5121 19.612 21.5744 19.6588 21.7068 19.651C22.4856 19.651 23.2565 19.6588 24.1131 19.6588ZM3.80348 19.1915C3.80348 17.2602 3.80348 15.3289 3.81127 13.3976C3.81127 13.1796 3.75676 13.1173 3.53871 13.1251C3.1104 13.1407 2.68209 13.1484 2.25378 13.1251C2.00458 13.1095 1.92671 13.1718 1.93449 13.4366C1.94228 16.131 1.94228 18.8333 1.94228 21.5355C1.94228 22.6881 1.95007 23.8484 1.93449 25.0009C1.93449 25.2034 1.98901 25.2657 2.19148 25.2579C2.62758 25.2424 3.06367 25.2424 3.49977 25.2579C3.73339 25.2657 3.81127 25.2112 3.80348 24.962C3.80348 23.0385 3.80348 21.115 3.80348 19.1915ZM5.67247 19.1759C5.67247 17.3615 5.67247 15.547 5.67247 13.7247C5.67247 13.1251 5.67247 13.1329 5.07284 13.1173C4.81585 13.1095 4.73798 13.1718 4.73798 13.4444C4.74576 17.1668 4.74576 20.8814 4.74576 24.6038C4.74576 25.2501 4.74576 25.2424 5.39212 25.2579C5.61017 25.2579 5.68804 25.2112 5.68026 24.9776C5.66468 23.0463 5.67247 21.1072 5.67247 19.1759ZM6.60696 19.1759C6.60696 20.9982 6.60696 22.8282 6.60696 24.6505C6.60696 25.2501 6.60696 25.2424 7.2066 25.2579C7.46358 25.2657 7.54146 25.2034 7.54146 24.9309C7.53367 21.2085 7.53367 17.4938 7.53367 13.7714C7.53367 13.1251 7.53367 13.1329 6.88731 13.1173C6.66147 13.1095 6.59139 13.164 6.59918 13.3976C6.60696 15.3289 6.60696 17.2524 6.60696 19.1759ZM26.2002 16.8553C25.6473 16.8553 25.0944 16.8631 24.5415 16.8475C24.3546 16.8397 24.3078 16.902 24.3156 17.0811C24.3312 17.3303 24.3156 17.5873 24.3234 17.8365C24.3468 18.7788 25.0788 19.5575 26.0133 19.6432C26.9478 19.7288 27.8044 19.1058 28.0069 18.1791C28.0847 17.8131 28.0302 17.4471 28.0536 17.0811C28.0692 16.902 28.0147 16.8475 27.8278 16.8553C27.2904 16.8631 26.7453 16.8553 26.2002 16.8553Z" fill="white" stroke="white" stroke-width="0.3"/>
<path d="M4.73795 1C5.29085 1 5.84376 1.00779 6.39667 1C6.56021 1 6.60693 1.04672 6.60693 1.21026C6.62251 1.93449 6.6303 1.93449 5.92164 1.93449C4.98714 1.93449 4.06044 1.92671 3.12594 1.94228C2.92347 1.94228 2.86896 1.88777 2.86896 1.6853C2.87674 1 2.86117 1 3.54647 1C3.94363 1 4.34079 1 4.73795 1Z" fill="white" stroke="white" stroke-width="0.3"/>
<path d="M4.72245 4.73796C4.17733 4.73796 3.63221 4.73017 3.09487 4.74575C2.90798 4.75354 2.86904 4.69124 2.86904 4.51212C2.86125 3.80347 2.85346 3.80347 3.5777 3.80347C4.49661 3.80347 5.42332 3.81125 6.34224 3.80347C6.52914 3.80347 6.6148 3.82683 6.6148 4.04488C6.60701 4.73796 6.6148 4.73796 5.91393 4.73796C5.51677 4.73796 5.11961 4.73796 4.72245 4.73796Z" fill="white" stroke="white" stroke-width="0.3"/>
<path d="M4.72243 7.53368C4.1773 7.53368 3.63218 7.52589 3.09485 7.54146C2.90795 7.54925 2.86901 7.48695 2.86901 7.30784C2.86122 6.59918 2.85344 6.59918 3.54652 6.59918C4.48101 6.59918 5.40772 6.60697 6.34221 6.59918C6.52911 6.59918 6.61477 6.62254 6.61477 6.84059C6.60699 7.53368 6.62256 7.53368 5.92169 7.53368C5.51674 7.53368 5.11959 7.53368 4.72243 7.53368Z" fill="white" stroke="white" stroke-width="0.3"/>
<path d="M25.2735 22.4544C25.8186 22.4544 26.3638 22.4622 26.9011 22.4466C27.088 22.4388 27.1269 22.5011 27.1269 22.6802C27.1347 23.3889 27.1425 23.3889 26.4183 23.3889C25.4994 23.3889 24.5726 23.3811 23.6537 23.3889C23.4668 23.3889 23.3812 23.3655 23.3812 23.1475C23.389 22.4544 23.3734 22.4544 24.0742 22.4544C24.4792 22.4544 24.8764 22.4544 25.2735 22.4544Z" fill="white" stroke="white" stroke-width="0.3"/>
<path d="M25.2735 25.2501C25.8186 25.2501 26.3638 25.2579 26.9011 25.2423C27.088 25.2346 27.1269 25.2969 27.1269 25.476C27.1347 26.1846 27.1425 26.1846 26.4183 26.1846C25.4994 26.1846 24.5726 26.1768 23.6537 26.1846C23.4668 26.1846 23.3812 26.1613 23.3812 25.9432C23.389 25.2501 23.3734 25.2501 24.0742 25.2501C24.4792 25.2501 24.8764 25.2501 25.2735 25.2501Z" fill="white" stroke="white" stroke-width="0.3"/>
<path d="M25.2735 28.0536C25.8186 28.0536 26.3637 28.0614 26.9011 28.0458C27.0802 28.038 27.1269 28.1003 27.1269 28.2716C27.1347 28.9803 27.1425 28.9803 26.426 28.9803C25.4915 28.9803 24.5648 28.9725 23.6303 28.9881C23.4356 28.9881 23.3889 28.9336 23.3889 28.7467C23.3889 28.0536 23.3811 28.0536 24.082 28.0536C24.4714 28.0536 24.8763 28.0536 25.2735 28.0536Z" fill="white" stroke="white" stroke-width="0.3"/>
<path d="M1.94225 1.46725C1.94225 1.93449 1.94225 1.93449 1.38934 1.93449C1.00775 1.93449 1.00775 1.93449 1.00775 1.3738C1.00775 1 1.00775 1 1.57624 1C1.94225 1 1.94225 1 1.94225 1.46725Z" fill="white" stroke="white" stroke-width="0.3"/>
<path d="M1.47505 4.73796C1.00781 4.73796 1.00781 4.73796 1.0156 4.17726C1.00781 3.80347 1.00781 3.80347 1.57629 3.80347C1.93451 3.80347 1.93451 3.80347 1.93451 4.37974C1.9423 4.73796 1.9423 4.73796 1.47505 4.73796Z" fill="white" stroke="white" stroke-width="0.3"/>
<path d="M1.94225 7.05085C1.94225 7.53368 1.94225 7.53368 1.45164 7.53368C1.00775 7.53368 1.00775 7.53368 1.00775 7.09758C1.00775 6.59918 1.00775 6.59918 1.51394 6.59918C1.94225 6.59918 1.94225 6.59918 1.94225 7.05085Z" fill="white" stroke="white" stroke-width="0.3"/>
<path d="M28.9881 22.9061C28.9881 23.3811 28.9881 23.3811 28.4975 23.3811C28.0536 23.3811 28.0536 23.3811 28.0536 22.945C28.0536 22.4544 28.0536 22.4544 28.5598 22.4544C28.9881 22.4544 28.9881 22.4544 28.9881 22.9061Z" fill="white" stroke="white" stroke-width="0.3"/>
<path d="M28.9881 25.7173C28.9881 26.1924 28.9881 26.1924 28.4352 26.1924C28.0614 26.1924 28.0614 26.1924 28.0614 25.6317C28.0614 25.2579 28.0614 25.2579 28.661 25.2657C28.9881 25.2501 28.9881 25.2501 28.9881 25.7173Z" fill="white" stroke="white" stroke-width="0.3"/>
<path d="M28.5364 28.9803C28.0614 28.9803 28.0614 28.9803 28.0614 28.4897C28.0614 28.0458 28.0614 28.0458 28.5053 28.0458C28.9959 28.0458 28.9959 28.0458 28.9959 28.552C28.9881 28.9803 28.9881 28.9803 28.5364 28.9803Z" fill="white" stroke="white" stroke-width="0.3"/>
<path d="M14.5034 15.9286C13.016 15.9286 11.5286 15.9286 10.0412 15.9286C9.54282 15.9286 9.40265 15.7806 9.40265 15.29C9.40265 14.7527 9.40265 14.2231 9.40265 13.6858C9.40265 13.3042 9.57397 13.1329 9.95556 13.1329C13.0082 13.1329 16.0531 13.1329 19.1058 13.1329C19.4874 13.1329 19.6587 13.3042 19.6587 13.6858C19.6665 14.2387 19.6587 14.7916 19.6587 15.3445C19.6587 15.765 19.4952 15.9286 19.0747 15.9286C17.5561 15.9286 16.0298 15.9286 14.5034 15.9286ZM14.519 14.9941C15.7105 14.9941 16.9097 14.9941 18.1012 14.9941C18.732 14.9941 18.7164 14.9941 18.732 14.3633C18.7398 14.1219 18.6775 14.0596 18.4283 14.0596C15.9519 14.0674 13.4755 14.0674 10.9991 14.0674C10.3216 14.0674 10.3294 14.0674 10.3216 14.7449C10.3216 14.9473 10.3683 15.0019 10.5786 15.0019C11.8946 14.9863 13.2107 14.9941 14.519 14.9941Z" fill="white" stroke="white" stroke-width="0.3"/>
<path d="M10.8044 16.863C11.0925 16.863 11.3884 16.8552 11.6766 16.863C12.0114 16.8708 12.1905 17.0421 12.1983 17.3614C12.2061 17.9611 12.2061 18.5685 12.1983 19.1681C12.1905 19.4796 12.0114 19.6509 11.6999 19.6587C11.1003 19.6665 10.4929 19.6665 9.89324 19.6587C9.58174 19.6509 9.41042 19.4718 9.40263 19.1603C9.39484 18.5607 9.39484 17.9533 9.40263 17.3536C9.41042 17.0421 9.58953 16.8708 9.90103 16.863C10.2047 16.8552 10.5007 16.863 10.8044 16.863ZM10.8122 17.7897C10.3371 17.7897 10.3371 17.7897 10.3371 18.1402C10.3371 18.7242 10.3371 18.7242 10.6953 18.7242C11.2716 18.7242 11.2716 18.7242 11.2716 18.3348C11.2638 17.7897 11.2638 17.7897 10.8122 17.7897Z" fill="white" stroke="white" stroke-width="0.3"/>
<path d="M15.9285 18.2803C15.9285 18.5607 15.9363 18.841 15.9285 19.1292C15.9208 19.4796 15.7572 19.6587 15.4146 19.6587C14.8227 19.6665 14.2309 19.6665 13.639 19.6587C13.312 19.6509 13.1406 19.4718 13.1329 19.1447C13.1251 18.5529 13.1251 17.961 13.1329 17.3692C13.1406 17.0421 13.312 16.8708 13.6468 16.863C14.2387 16.8552 14.8305 16.8552 15.4224 16.863C15.7494 16.8708 15.9208 17.0421 15.9285 17.377C15.9363 17.6729 15.9285 17.9766 15.9285 18.2803ZM15.0018 18.2414C15.0018 17.7897 15.0018 17.7897 14.5735 17.7897C14.0673 17.7897 14.0673 17.7897 14.0673 18.2881C14.0673 18.7242 14.0673 18.7242 14.5112 18.7242C15.0018 18.7242 15.0018 18.7242 15.0018 18.2414Z" fill="white" stroke="white" stroke-width="0.3"/>
<path d="M18.2726 19.6587C17.9844 19.6587 17.6885 19.6665 17.4004 19.6587C17.0499 19.6509 16.8708 19.4874 16.8708 19.1447C16.863 18.5529 16.863 17.961 16.8708 17.3692C16.8786 17.0421 17.0499 16.8708 17.3848 16.863C17.9766 16.8552 18.5685 16.8552 19.1603 16.863C19.4874 16.8708 19.6587 17.0499 19.6665 17.377C19.6743 17.9688 19.6743 18.5607 19.6665 19.1525C19.6587 19.4796 19.4796 19.6509 19.1526 19.6587C18.8566 19.6587 18.5607 19.6587 18.2726 19.6587ZM18.732 18.2414C18.732 17.7897 18.732 17.7897 18.3037 17.7897C17.7975 17.7897 17.7975 17.7897 17.7975 18.2881C17.7975 18.7242 17.7975 18.7242 18.2414 18.7242C18.732 18.7242 18.732 18.7242 18.732 18.2414Z" fill="white" stroke="white" stroke-width="0.3"/>
<path d="M10.8355 20.5932C11.1159 20.5932 11.3962 20.5855 11.6844 20.5932C12.0192 20.601 12.1983 20.7724 12.2061 21.0916C12.2139 21.6913 12.2139 22.2987 12.2061 22.8983C12.1983 23.2098 12.0192 23.3811 11.7077 23.3889C11.1081 23.3967 10.5007 23.3967 9.90105 23.3889C9.58955 23.3811 9.41823 23.202 9.41044 22.8905C9.40266 22.2909 9.40266 21.6835 9.41044 21.0839C9.41823 20.7724 9.59734 20.601 9.90884 20.5932C10.2125 20.5855 10.524 20.5932 10.8355 20.5932ZM10.7966 22.4544C11.2639 22.4544 11.2639 22.4544 11.2639 22.0962C11.2639 21.5199 11.2639 21.5199 10.9056 21.5199C10.3371 21.5199 10.3371 21.52 10.3371 21.886C10.3371 22.4544 10.3371 22.4544 10.7966 22.4544Z" fill="white" stroke="white" stroke-width="0.3"/>
<path d="M15.9285 22.0183C15.9285 22.3065 15.9363 22.6024 15.9285 22.8905C15.9207 23.202 15.7416 23.3811 15.4379 23.3811C14.8383 23.3889 14.2308 23.3889 13.6312 23.3811C13.3197 23.3734 13.1406 23.1943 13.1406 22.8905C13.1328 22.2909 13.1328 21.6835 13.1406 21.0839C13.1484 20.7724 13.3197 20.5932 13.6312 20.5932C14.2308 20.5855 14.8383 20.5855 15.4379 20.5932C15.7494 20.601 15.9207 20.7724 15.9285 21.0839C15.9363 21.3953 15.9285 21.7068 15.9285 22.0183ZM14.5501 21.5199C14.0673 21.5199 14.0673 21.5199 14.0673 22.0028C14.0673 22.4544 14.0673 22.4544 14.5268 22.4544C14.994 22.4544 14.994 22.4544 14.994 21.9872C15.0018 21.5199 15.0018 21.5199 14.5501 21.5199Z" fill="white" stroke="white" stroke-width="0.3"/>
<path d="M19.6587 22.0183C19.6587 22.3065 19.6665 22.6024 19.6587 22.8905C19.651 23.202 19.4718 23.3811 19.1681 23.3811C18.5685 23.3889 17.9611 23.3889 17.3614 23.3811C17.0499 23.3734 16.8708 23.202 16.8708 22.8905C16.863 22.2909 16.863 21.6835 16.8708 21.0839C16.8786 20.7724 17.0499 20.5932 17.3614 20.5932C17.9611 20.5855 18.5685 20.5855 19.1681 20.5932C19.4796 20.601 19.651 20.7724 19.6587 21.0839C19.6665 21.3953 19.6587 21.7068 19.6587 22.0183ZM17.7975 21.9638C17.7975 22.4544 17.7975 22.4544 18.2726 22.4544C18.732 22.4544 18.732 22.4544 18.732 22.0028C18.732 21.5199 18.732 21.5199 18.2414 21.5199C17.7975 21.5199 17.7975 21.5199 17.7975 21.9638Z" fill="white" stroke="white" stroke-width="0.3"/>
<path d="M10.7966 24.3234C11.1003 24.3234 11.3962 24.3156 11.7 24.3234C12.0115 24.3312 12.1906 24.5025 12.1983 24.814C12.2061 25.4136 12.2061 26.0211 12.1983 26.6207C12.1906 26.9322 12.0192 27.1113 11.7077 27.1191C11.1081 27.1269 10.5007 27.1269 9.90105 27.1191C9.58955 27.1113 9.41044 26.94 9.41044 26.6285C9.40266 26.0289 9.40266 25.4214 9.41044 24.8218C9.41823 24.5103 9.58955 24.339 9.90105 24.3234C10.197 24.3156 10.5007 24.3234 10.7966 24.3234ZM10.8044 25.2501C10.3371 25.2501 10.3371 25.2501 10.3371 25.6083C10.3371 26.1846 10.3371 26.1846 10.7032 26.1846C11.2716 26.1846 11.2716 26.1846 11.2716 25.8186C11.2639 25.2501 11.2639 25.2501 10.8044 25.2501Z" fill="white" stroke="white" stroke-width="0.3"/>
<path d="M14.5423 24.3234C14.8227 24.3234 15.103 24.3234 15.3912 24.3234C15.7572 24.3312 15.9285 24.4947 15.9363 24.853C15.9441 25.4292 15.9441 25.9977 15.9363 26.574C15.9363 26.94 15.765 27.1113 15.4068 27.1191C14.8305 27.1269 14.262 27.1269 13.6857 27.1191C13.3197 27.1191 13.1484 26.9478 13.1406 26.5896C13.1328 26.0133 13.1328 25.4448 13.1406 24.8685C13.1406 24.4947 13.3119 24.3312 13.7013 24.3234C13.9739 24.3156 14.262 24.3234 14.5423 24.3234ZM15.0018 25.7251C15.0018 25.2501 15.0018 25.2501 14.6514 25.2501C14.0673 25.2501 14.0673 25.2501 14.0673 25.6083C14.0673 26.1846 14.0673 26.1846 14.4333 26.1846C15.0018 26.1846 15.0018 26.1846 15.0018 25.7251Z" fill="white" stroke="white" stroke-width="0.3"/>
<path d="M18.2881 24.3234C18.5763 24.3234 18.8722 24.3156 19.1603 24.3234C19.4718 24.3312 19.6509 24.5025 19.6587 24.814C19.6665 25.4136 19.6665 26.0211 19.6587 26.6207C19.6509 26.9322 19.4796 27.1113 19.1681 27.1191C18.5685 27.1269 17.961 27.1269 17.3614 27.1191C17.0499 27.1113 16.8708 26.94 16.863 26.6285C16.8552 26.0289 16.8552 25.4214 16.863 24.8218C16.8708 24.5025 17.0499 24.3312 17.377 24.3234C17.6885 24.3156 17.9844 24.3234 18.2881 24.3234ZM18.2881 25.2501C17.7975 25.2501 17.7975 25.2501 17.7975 25.7563C17.7975 25.8108 17.8053 25.8731 17.7975 25.9276C17.7664 26.1301 17.8442 26.2158 18.0545 26.1846C18.1246 26.1768 18.1869 26.1846 18.257 26.1846C18.732 26.1846 18.732 26.1846 18.732 25.694C18.732 25.2501 18.732 25.2501 18.2881 25.2501Z" fill="white" stroke="white" stroke-width="0.3"/>
<path d="M13.6156 7.0664C13.8337 7.0664 14.0517 7.01189 14.1608 7.32339C14.2308 7.52586 14.4645 7.58038 14.6903 7.49471C14.9084 7.40905 15.0174 7.24551 14.994 7.01189C14.9707 6.78606 14.8305 6.64588 14.6046 6.59916C14.4645 6.56801 14.3087 6.57579 14.1763 6.53686C13.5845 6.36553 13.2341 5.9528 13.164 5.35316C13.0939 4.78468 13.3197 4.31743 13.8181 4.02151C14.0284 3.89691 14.114 3.77231 14.0751 3.54648C14.0517 3.39073 14.0985 3.30507 14.2776 3.32843C14.3477 3.33622 14.41 3.32843 14.48 3.32843C14.6358 3.32843 14.8149 3.2817 14.9395 3.35179C15.0875 3.42967 14.994 3.63214 15.0018 3.7801C15.0096 3.91249 15.1108 3.92806 15.1887 3.967C15.6014 4.19284 15.8351 4.54327 15.9207 4.99494C15.9519 5.1429 15.9129 5.21299 15.7494 5.19742C15.6326 5.18963 15.5158 5.18963 15.399 5.19742C15.1887 5.2052 15.0018 5.22857 14.9084 4.94043C14.8383 4.73796 14.6046 4.67566 14.3866 4.76132C14.1685 4.83919 14.0595 5.00273 14.0829 5.23635C14.1062 5.46219 14.2464 5.61015 14.4645 5.65688C14.6046 5.68802 14.7526 5.68024 14.8928 5.71917C15.4457 5.85935 15.8662 6.3266 15.9285 6.88729C15.9908 7.47135 15.765 7.94638 15.2588 8.24231C15.0563 8.35912 14.9707 8.47593 15.0096 8.69398C15.0407 8.88867 14.9629 8.95875 14.7682 8.93539C14.6903 8.9276 14.6124 8.93539 14.5346 8.93539C14.1218 8.93539 14.1062 8.93539 14.0751 8.51487C14.0673 8.36691 13.9739 8.35133 13.8804 8.29682C13.5144 8.09435 13.2808 7.79064 13.1718 7.3779C13.1095 7.13649 13.1484 7.03525 13.4132 7.0664C13.4833 7.07419 13.5533 7.0664 13.6156 7.0664Z" fill="white" stroke="white" stroke-width="0.3"/>
</svg>
