<svg width="26" height="30" viewBox="0 0 26 30" fill="none" xmlns="http://www.w3.org/2000/svg">
<path d="M0.640612 29.5616C0.123747 29.3225 -0.00739808 28.9136 0.000316329 28.3736C0.100604 23.0661 4.15067 18.3603 9.37332 17.4886C10.029 17.3806 10.6848 17.3188 11.3559 17.3188C12.5208 17.3188 13.6857 17.288 14.8505 17.3266C19.3249 17.4808 22.5958 19.6023 24.7327 23.4981C25.5659 25.0178 25.9207 26.6687 25.9979 28.3967C26.021 28.9367 25.859 29.3302 25.3576 29.5616C17.1186 29.5616 8.8796 29.5616 0.640612 29.5616ZM12.9837 27.8336C14.8891 27.8336 16.7946 27.8336 18.7 27.8336C20.4435 27.8336 22.1792 27.8259 23.9227 27.8413C24.185 27.8413 24.239 27.7641 24.1927 27.5327C24.131 27.2241 24.0924 26.9078 24.023 26.5993C23.159 22.3641 19.2632 19.124 14.9431 19.07C13.6934 19.0546 12.4437 19.07 11.1939 19.0623C10.5768 19.0623 9.95961 19.124 9.35789 19.2552C5.33097 20.1192 2.30692 23.4286 1.80549 27.5096C1.77463 27.7641 1.82863 27.849 2.10635 27.849C5.73212 27.8259 9.35789 27.8336 12.9837 27.8336Z" fill="white"/>
<path d="M12.9991 15.5908C8.70218 15.5908 5.19213 12.0808 5.19984 7.78384C5.20756 3.49463 8.70218 0 12.9914 0C17.296 0 20.7984 3.50234 20.7907 7.80698C20.7829 12.0962 17.2883 15.5908 12.9991 15.5908ZM12.976 13.8551C16.3163 13.8628 19.0472 11.155 19.0626 7.82241C19.0781 4.48207 16.3703 1.74346 13.0377 1.72803C9.68191 1.7126 6.9433 4.42807 6.93558 7.77612C6.92787 11.1242 9.64334 13.8474 12.976 13.8551Z" fill="white"/>
</svg>
