<svg width="30" height="28" viewBox="0 0 30 28" fill="none" xmlns="http://www.w3.org/2000/svg">
<path d="M13.8092 27.1756C9.71756 27.1756 5.61832 27.1756 1.52672 27.1756C1.07634 27.1756 1.00763 27.1069 1.00763 26.6718C1.00763 22.9313 1.00763 19.1908 1 15.4427C1 15.229 1.06107 15.0687 1.21374 14.916C1.91603 14.2214 2.61832 13.5191 3.31298 12.8092C3.45802 12.6641 3.61069 12.6031 3.81679 12.6031C6.0916 12.6107 8.36641 12.6031 10.6412 12.6107C10.9008 12.6107 10.9466 12.5344 10.9466 12.2977C10.9389 9.51145 10.9466 6.71756 10.9389 3.9313C10.9389 3.69466 11.0076 3.51908 11.1756 3.35115C11.8855 2.64122 12.5802 1.9313 13.2748 1.20611C13.4122 1.0687 13.5496 1 13.7481 1C17.8244 1.00763 21.9008 1 25.9771 1C26.3435 1 26.4275 1.08397 26.4275 1.45802C26.4275 5.0687 26.4275 8.67939 26.4198 12.2824C26.4198 12.5496 26.4962 12.6107 26.7481 12.6031C27.3511 12.5878 27.9466 12.5954 28.5496 12.5954C28.8855 12.5954 29 12.7023 29 13.0382C29 16.8244 29 20.6183 29 24.4046C29 24.5649 28.9542 24.6947 28.8397 24.8092C28.1145 25.5344 27.3817 26.2595 26.6641 26.9924C26.5191 27.1374 26.3588 27.1603 26.1756 27.1603C22.0534 27.1756 17.9313 27.1756 13.8092 27.1756ZM25.9847 21.0611C25.9847 19.3359 25.9847 17.6183 25.9847 15.8931C25.9847 15.7099 25.9542 15.626 25.7405 15.6336C24.6336 15.6412 23.5344 15.6412 22.4275 15.6336C22.2519 15.6336 22.1985 15.6794 22.2061 15.855C22.2214 16.3435 22.2137 16.8244 22.2061 17.313C22.2061 17.6947 22.0916 17.8092 21.7176 17.8092C20.6489 17.8092 19.5878 17.8092 18.5191 17.8092C18.1374 17.8092 18.0382 17.7099 18.0382 17.313C18.0382 16.8244 18.0305 16.3435 18.0382 15.855C18.0458 15.6794 17.9847 15.6336 17.8092 15.6336C16.687 15.6412 15.5649 15.6412 14.4351 15.6336C14.2519 15.6336 14.1908 15.6718 14.1908 15.8702C14.2061 16.4198 14.1985 16.9771 14.1908 17.5267C14.1908 17.8244 14.0611 18 13.8397 17.9771C13.5725 17.9542 13.5038 17.771 13.5038 17.5344C13.5115 16.9695 13.5038 16.4122 13.5115 15.8473C13.5115 15.6947 13.4733 15.6336 13.3053 15.6336C12.1603 15.6412 11.0229 15.6412 9.87786 15.6336C9.70992 15.6336 9.67176 15.6947 9.67176 15.8473C9.67939 16.3359 9.67939 16.8168 9.67176 17.3053C9.67176 17.6794 9.54962 17.8092 9.18321 17.8092C8.09924 17.8092 7.01527 17.8092 5.92366 17.8092C5.57252 17.8092 5.44275 17.6794 5.44275 17.3282C5.44275 16.8321 5.43511 16.3359 5.44275 15.8397C5.44275 15.6794 5.39695 15.6336 5.23664 15.6336C4.12214 15.6412 3.00763 15.6412 1.89313 15.6336C1.72519 15.6336 1.66412 15.6718 1.66412 15.855C1.67176 19.3282 1.67176 22.8015 1.66412 26.2824C1.66412 26.4656 1.72519 26.5038 1.89313 26.5038C3.03817 26.4962 4.17557 26.4962 5.32061 26.5038C5.50382 26.5038 5.56489 26.458 5.55725 26.2672C5.54962 25.4886 5.55725 24.7023 5.54962 23.9237C5.54962 23.7176 5.53435 23.5114 5.76336 23.4122C5.99237 23.313 6.15267 23.4504 6.27481 23.6107C6.40458 23.7786 6.48855 23.7481 6.62595 23.6031C6.94656 23.2595 7.06107 23.2519 7.35878 23.5954C7.52672 23.7863 7.61069 23.7252 7.74809 23.5725C8.03817 23.2595 8.16031 23.2595 8.44275 23.5802C8.60305 23.7634 8.70992 23.771 8.85496 23.5725C8.96947 23.4198 9.12214 23.3206 9.32824 23.4046C9.53435 23.4886 9.54962 23.6641 9.54962 23.855C9.54962 24.6336 9.55725 25.4198 9.54198 26.1985C9.53435 26.4275 9.58779 26.5038 9.83206 26.5038C10.9542 26.4886 12.0763 26.4886 13.2061 26.5038C13.4504 26.5038 13.4962 26.4351 13.4962 26.2061C13.4886 24.1908 13.4886 22.1679 13.4886 20.1527C13.4886 20.0687 13.4809 19.9771 13.4962 19.8931C13.5267 19.7099 13.6336 19.5954 13.8244 19.5954C14.0229 19.5878 14.145 19.7099 14.1756 19.9008C14.1908 19.9847 14.1832 20.0687 14.1832 20.1603C14.1832 22.1908 14.1832 24.2137 14.1756 26.2443C14.1756 26.458 14.229 26.5115 14.4427 26.5115C15.5725 26.5038 16.7099 26.5038 17.8397 26.5115C18.0534 26.5115 18.1298 26.4656 18.1298 26.2366C18.1145 25.458 18.1221 24.6718 18.1221 23.8931C18.1221 23.7023 18.1145 23.5038 18.3359 23.4122C18.5496 23.3282 18.687 23.4656 18.7939 23.6107C18.9313 23.7863 19.0229 23.771 19.1679 23.6107C19.4733 23.2672 19.5954 23.2672 19.9008 23.6183C20.0534 23.7939 20.1374 23.7557 20.2748 23.6031C20.5725 23.2748 20.7023 23.2748 20.9924 23.6031C21.1374 23.771 21.2366 23.8015 21.3817 23.6107C21.4886 23.458 21.6336 23.3435 21.8473 23.4198C22.0687 23.5038 22.0763 23.6947 22.0763 23.8931C22.0763 24.687 22.084 25.4733 22.0687 26.2672C22.0687 26.4733 22.1221 26.5191 22.3206 26.5191C23.4351 26.5114 24.5496 26.5038 25.6641 26.5191C25.9008 26.5191 25.9695 26.4656 25.9618 26.229C25.9771 24.4886 25.9847 22.771 25.9847 21.0611ZM11.6412 9.48855C11.6412 11.2137 11.6489 12.9313 11.6336 14.6565C11.6336 14.9008 11.7023 14.9542 11.9313 14.9466C13.0611 14.9313 14.1985 14.9389 15.3282 14.9466C15.5267 14.9466 15.5878 14.9008 15.5802 14.6947C15.5649 13.8779 15.5725 13.0611 15.5725 12.2366C15.5725 12.0534 15.5725 11.8702 15.7786 11.7786C15.9924 11.687 16.1298 11.8092 16.2443 11.9542C16.3969 12.1603 16.5038 12.1221 16.6565 11.9466C16.9237 11.6489 17.0763 11.6489 17.3359 11.9466C17.4886 12.1145 17.5802 12.1527 17.7481 11.9618C18.0229 11.6489 18.1756 11.6489 18.4427 11.9618C18.6107 12.1527 18.7099 12.1374 18.8473 11.9466C18.9542 11.8092 19.0916 11.6947 19.2901 11.771C19.4962 11.8473 19.5191 12.0229 19.5191 12.2137C19.5191 13.0382 19.5191 13.8702 19.5114 14.6947C19.5114 14.8702 19.542 14.9466 19.7405 14.9389C20.9008 14.9313 22.0611 14.9313 23.2214 14.9389C23.4122 14.9389 23.458 14.8855 23.458 14.7023C23.4504 11.2214 23.4504 7.73282 23.458 4.25191C23.458 4.0916 23.4351 4.01527 23.2443 4.0229C22.1145 4.03053 20.9771 4.03053 19.8473 4.0229C19.6718 4.0229 19.6183 4.0687 19.626 4.24427C19.6336 4.73282 19.6336 5.21374 19.626 5.70229C19.626 6.03053 19.5267 6.1374 19.2061 6.1374C18.0916 6.1374 16.9771 6.1374 15.8626 6.1374C15.5573 6.1374 15.4504 6.03053 15.4504 5.72519C15.4504 5.23664 15.4351 4.75573 15.458 4.26718C15.4656 4.06107 15.3969 4.01527 15.1985 4.01527C14.1069 4.0229 13.0076 4.03053 11.916 4.01527C11.6794 4.01527 11.6183 4.0687 11.6183 4.31298C11.6412 6.0458 11.6412 7.76336 11.6412 9.48855ZM26.6641 25.9237C26.6947 25.9466 26.7328 25.9695 26.7634 26C27.2214 25.5191 27.6718 25.0305 28.1374 24.5649C28.2672 24.4351 28.3206 24.3053 28.3206 24.1145C28.313 20.7863 28.3206 17.458 28.313 14.1298C28.313 14.0382 28.3053 13.9542 28.2977 13.8626C28.2672 13.8473 28.2443 13.8244 28.2137 13.8092C27.7634 14.2824 27.313 14.7634 26.855 15.2214C26.7099 15.3664 26.6489 15.5115 26.6489 15.7176C26.6565 19.0305 26.6565 22.3359 26.6565 25.6489C26.6641 25.7328 26.6641 25.8321 26.6641 25.9237ZM25.7634 2.29771C25.2901 2.73282 24.8015 3.18321 24.313 3.63359C24.1832 3.75573 24.145 3.8855 24.145 4.06107C24.1527 7.39695 24.145 10.7405 24.1527 14.0763C24.1527 14.1679 24.1145 14.2595 24.1221 14.2672C24.6031 13.8244 25.084 13.3817 25.5725 12.9389C25.7099 12.8168 25.7557 12.6718 25.7557 12.4885C25.7481 9.16031 25.7557 5.83206 25.7481 2.49618C25.7481 2.41221 25.7786 2.32061 25.7634 2.29771ZM25.2443 1.75573C25.229 1.73282 25.2214 1.70992 25.2061 1.69466C23.5191 1.69466 21.8397 1.69466 20.1527 1.69466C20.0305 1.69466 19.9618 1.75573 19.8855 1.83206C19.4809 2.23664 19.0763 2.64122 18.6794 3.0458C18.5954 3.1374 18.4733 3.20611 18.4275 3.35115C20.1374 3.35115 21.8244 3.35115 23.5038 3.35115C23.5802 3.35115 23.6489 3.34351 23.7099 3.28244C24.2214 2.77099 24.7328 2.25954 25.2443 1.75573ZM2.19084 14.916C2.26718 14.9313 2.29008 14.9466 2.31298 14.9466C3.96947 14.9466 5.62595 14.9466 7.28244 14.9466C7.35878 14.9466 7.42748 14.9466 7.49618 14.8855C8.00763 14.374 8.52672 13.8626 9.0687 13.3206C8.98473 13.2977 8.96183 13.2901 8.93893 13.2901C7.28244 13.2901 5.62595 13.2901 3.96947 13.2901C3.87023 13.2901 3.79389 13.3206 3.71756 13.3893C3.22137 13.8855 2.71756 14.3817 2.19084 14.916ZM12.1756 3.34351C13.9237 3.34351 15.5878 3.34351 17.2443 3.34351C17.3206 3.34351 17.3969 3.34351 17.458 3.28244C17.9771 2.77099 18.4886 2.25954 19.0305 1.72519C18.9542 1.70229 18.9237 1.68702 18.9008 1.68702C17.2443 1.68702 15.5878 1.68702 13.9389 1.68702C13.855 1.68702 13.771 1.69466 13.7099 1.76336C13.2137 2.27481 12.7252 2.78626 12.1756 3.34351ZM17.5573 14.9466C17.916 14.9466 18.2824 14.9466 18.6412 14.9466C18.7557 14.9466 18.8397 14.9466 18.8397 14.7863C18.8321 14.229 18.8397 13.6641 18.8321 13.1069C18.8321 13.0534 18.8626 12.9542 18.7405 12.9847C18.4962 13.0458 18.374 12.8702 18.2443 12.7252C18.1374 12.6107 18.0763 12.5954 17.9542 12.7176C17.5649 13.1069 17.5191 13.1069 17.1374 12.7176C17.0153 12.5954 16.9466 12.626 16.8473 12.7328C16.7176 12.8779 16.5878 13.0458 16.3435 12.9847C16.2214 12.9542 16.2672 13.0687 16.2672 13.1145C16.2672 13.6641 16.2672 14.2137 16.2595 14.771C16.2595 14.9084 16.313 14.9466 16.4427 14.9466C16.8168 14.9389 17.1908 14.9466 17.5573 14.9466ZM7.58779 26.4885C7.96183 26.4885 8.32824 26.4809 8.70229 26.4885C8.83969 26.4885 8.9084 26.458 8.90076 26.3053C8.89313 25.7863 8.90076 25.2595 8.89313 24.7405C8.89313 24.6718 8.92366 24.5725 8.78626 24.6031C8.54962 24.6565 8.41221 24.5114 8.28244 24.3588C8.17557 24.229 8.09924 24.2214 7.9771 24.3511C7.61832 24.7252 7.53435 24.7252 7.17557 24.3435C7.03817 24.2061 6.9771 24.2366 6.87023 24.3588C6.74809 24.4886 6.63359 24.6489 6.41985 24.6031C6.28244 24.5725 6.26718 24.6336 6.26718 24.7481C6.27481 25.2595 6.27481 25.771 6.26718 26.2901C6.26718 26.458 6.32061 26.4962 6.48092 26.4962C6.84733 26.4809 7.22137 26.4885 7.58779 26.4885ZM20.1298 26.4885C20.4886 26.4885 20.855 26.4885 21.2137 26.4885C21.3282 26.4885 21.4122 26.4885 21.4122 26.3282C21.4046 25.7939 21.4122 25.2595 21.4046 24.7328C21.4046 24.6794 21.4427 24.5725 21.3206 24.6031C21.084 24.6565 20.9466 24.5038 20.8168 24.3511C20.7176 24.2366 20.6489 24.2137 20.5267 24.3359C20.145 24.7176 20.0916 24.7176 19.7023 24.3282C19.5802 24.2061 19.5115 24.2366 19.4122 24.3435C19.2901 24.4885 19.1679 24.6412 18.9389 24.5954C18.8015 24.5649 18.8397 24.6794 18.8397 24.7405C18.8397 25.2672 18.8397 25.7863 18.8321 26.313C18.8321 26.458 18.8855 26.4885 19.0153 26.4885C19.3893 26.4809 19.7634 26.4885 20.1298 26.4885ZM7.58015 17.1145C7.99237 17.1145 8.39695 17.1069 8.80916 17.1145C8.96947 17.1145 9.0229 17.0763 9.0229 16.9084C9.00763 16.5496 9.00763 16.1832 9.0229 15.8244C9.03053 15.6565 8.96183 15.6183 8.80916 15.6183C7.99237 15.626 7.17557 15.626 6.35878 15.6183C6.21374 15.6183 6.16031 15.6565 6.16031 15.8092C6.16794 16.1679 6.17557 16.5344 6.16031 16.8931C6.15267 17.0763 6.22137 17.1145 6.38931 17.1069C6.77863 17.1069 7.17557 17.1145 7.58015 17.1145ZM20.1221 15.6336C19.7328 15.6336 19.3435 15.6412 18.9542 15.626C18.7634 15.6183 18.7176 15.687 18.7176 15.8702C18.7328 16.2214 18.7252 16.5725 18.7176 16.9237C18.7176 17.0687 18.7557 17.1221 18.9084 17.1221C19.7176 17.1145 20.5267 17.1145 21.3359 17.1221C21.4885 17.1221 21.5267 17.0687 21.5267 16.9237C21.5191 16.5649 21.5191 16.1985 21.5267 15.8397C21.5344 15.6794 21.4886 15.626 21.3206 15.626C20.9237 15.6412 20.5267 15.6336 20.1221 15.6336ZM17.5649 4.03053C17.1756 4.03053 16.7863 4.0458 16.3969 4.0229C16.1908 4.01527 16.1374 4.08397 16.1527 4.28244C16.1679 4.60305 16.1679 4.9313 16.1527 5.25191C16.145 5.41221 16.1985 5.46565 16.3588 5.45802C17.1603 5.45038 17.9542 5.45038 18.7557 5.45802C18.9237 5.45802 18.9618 5.39695 18.9618 5.24427C18.9542 4.90076 18.9542 4.55725 18.9618 4.21374C18.9695 4.0687 18.9237 4.01527 18.771 4.01527C18.3664 4.03817 17.9618 4.03053 17.5649 4.03053ZM8.40458 14.9466C9.25191 14.9466 10.0076 14.9466 10.771 14.9466C10.8931 14.9466 10.9618 14.9313 10.9618 14.7786C10.9542 14.3359 10.9618 13.8855 10.9618 13.4351C10.9618 13.3817 10.9695 13.2901 10.9084 13.2977C10.6107 13.3053 10.2519 13.1603 10.0229 13.3588C9.46565 13.8321 8.96947 14.374 8.40458 14.9466ZM27.8168 13.374C27.8015 13.3511 27.7863 13.3282 27.771 13.2977C27.2519 13.2977 26.7099 13.1985 26.2214 13.3282C25.8931 13.4198 25.6489 13.8244 25.3664 14.0916C25.2366 14.2137 25.1069 14.3435 24.9771 14.4656C24.8321 14.6031 24.687 14.7405 24.4809 14.9389C25.084 14.9389 25.5802 14.9389 26.084 14.9389C26.1832 14.9389 26.2443 14.8931 26.3053 14.8321C26.8092 14.3511 27.313 13.8626 27.8168 13.374Z" fill="white" stroke="white" stroke-width="0.3"/>
<path d="M2.55727 20.0611C2.55727 19.4809 2.55727 18.9008 2.55727 18.3206C2.55727 18.0229 2.68704 17.8473 2.90841 17.8702C3.16795 17.8931 3.24429 18.0763 3.24429 18.313C3.24429 19.5038 3.24429 20.6946 3.24429 21.8779C3.24429 22.1603 3.12215 22.313 2.90841 22.313C2.69467 22.313 2.5649 22.1603 2.5649 21.8855C2.54963 21.2748 2.55727 20.6717 2.55727 20.0611Z" fill="white" stroke="white" stroke-width="0.3"/>
<path d="M3.23662 16.9847C3.24425 17.1298 3.24425 17.3054 3.06868 17.4122C2.90074 17.5038 2.7557 17.4733 2.63356 17.3359C2.51143 17.1985 2.51906 16.6794 2.63356 16.5496C2.7557 16.4122 2.90837 16.3893 3.06868 16.4809C3.20608 16.5496 3.24425 16.6565 3.23662 16.9847Z" fill="white" stroke="white" stroke-width="0.3"/>
</svg>
