<svg width="28" height="28" viewBox="0 0 28 28" fill="none" xmlns="http://www.w3.org/2000/svg">
<path d="M12.9982 7.49672C12.9982 9.13298 12.9982 10.7692 12.9982 12.3971C12.9982 13.9332 11.9463 14.9934 10.4103 14.9934C7.79726 14.9934 5.18426 14.9934 2.57126 14.9934C1.06023 14.9934 0 13.9332 0 12.4222C0 9.14132 0 5.86047 0 2.58795C0 1.06023 1.06023 0.00834824 2.57126 0C5.19261 0 7.81395 0 10.4436 0C11.938 0 12.9982 1.06858 12.9982 2.56291C12.9982 4.20751 12.9982 5.85212 12.9982 7.49672ZM2.00358 7.49672C2.00358 9.12463 2.00358 10.7442 2.00358 12.3721C2.00358 12.8396 2.15385 12.9982 2.613 12.9982C5.2093 12.9982 7.79726 12.9982 10.3936 12.9982C10.8527 12.9982 11.003 12.8396 11.003 12.3721C11.003 9.12463 11.003 5.87716 11.003 2.6297C11.003 2.15385 10.8527 2.00358 10.3602 2.00358C7.78891 2.00358 5.21765 2.00358 2.64639 2.00358C2.1455 2.00358 2.00358 2.15385 2.00358 2.66309C2.00358 4.2743 2.00358 5.88551 2.00358 7.49672Z" fill="white"/>
<path d="M28 20.5116C28 22.1395 28 23.7591 28 25.387C28 26.9481 26.9481 28 25.3953 28C22.7907 28 20.186 28 17.5897 28C16.0536 28 15.0018 26.9398 15.0018 25.4037C15.0018 22.1312 15.0018 18.867 15.0018 15.5945C15.0018 14.0584 16.0536 12.9982 17.5897 12.9982C20.2027 12.9982 22.8157 12.9982 25.4287 12.9982C26.9398 12.9982 28 14.0584 28 15.5778C28 17.2224 28 18.867 28 20.5116ZM25.9964 20.4782C25.9964 18.8754 25.9964 17.2725 25.9964 15.6696C25.9964 15.1437 25.8545 15.0018 25.3369 15.0018C22.7823 15.0018 20.2361 15.0018 17.6816 15.0018C17.1306 15.0018 16.997 15.1354 16.997 15.678C16.997 18.8921 16.997 22.1145 16.997 25.3286C16.997 25.8545 17.1389 25.9964 17.6565 25.9964C20.2194 25.9964 22.7823 25.9964 25.3369 25.9964C25.8461 25.9964 25.9881 25.8545 25.9881 25.3536C25.9964 23.7257 25.9964 22.1061 25.9964 20.4782Z" fill="white"/>
<path d="M21.4634 11.003C20.1694 11.003 18.8837 11.003 17.5898 11.003C16.0537 11.003 14.9935 9.9511 14.9935 8.41503C14.9935 6.46989 14.9935 4.52475 14.9935 2.57126C14.9935 1.06023 16.0537 0 17.5731 0C20.1861 0 22.7991 0 25.4121 0C26.9315 0 27.9917 1.06023 27.9917 2.57126C27.9917 4.52475 27.9917 6.48658 27.9917 8.44007C27.9917 9.93441 26.9231 10.9946 25.4288 10.9946C24.1097 11.003 22.7907 11.003 21.4634 11.003ZM21.5134 2.00358C20.2362 2.00358 18.9505 2.00358 17.6733 2.00358C17.139 2.00358 16.997 2.13715 16.997 2.66309C16.997 4.55814 16.997 6.45319 16.997 8.34824C16.997 8.86583 17.139 9.00775 17.6733 9.00775C20.2278 9.00775 22.774 9.00775 25.3286 9.00775C25.8629 9.00775 26.0048 8.86583 26.0048 8.34824C26.0048 6.45319 26.0048 4.55814 26.0048 2.66309C26.0048 2.1455 25.8629 2.00358 25.3286 2.00358C24.0513 2.00358 22.7824 2.00358 21.5134 2.00358Z" fill="white"/>
<path d="M6.51163 16.997C7.81395 16.997 9.11628 16.997 10.4186 16.997C11.9547 16.997 12.9982 18.0572 13.0066 19.5933C13.0066 21.5301 13.0066 23.4669 13.0066 25.4037C13.0066 26.9398 11.9547 27.9917 10.4186 27.9917C7.81395 27.9917 5.21765 27.9917 2.613 27.9917C1.05188 27.9917 0 26.9398 0 25.387C0 23.4586 0 21.5385 0 19.61C0 18.0572 1.05188 17.0054 2.60465 17.0054C3.90698 16.997 5.2093 16.997 6.51163 16.997ZM6.50328 19.0006C5.20095 19.0006 3.89863 19.0006 2.5963 19.0006C2.17054 19.0006 2.00358 19.1592 2.00358 19.5766C2.00358 21.5218 2.00358 23.4669 2.00358 25.4204C2.00358 25.8378 2.17054 25.9964 2.5963 25.9964C5.20095 25.9964 7.8056 25.9964 10.4019 25.9964C10.836 25.9964 10.9946 25.8295 10.9946 25.387C10.9946 23.4586 10.9946 21.5385 10.9946 19.61C10.9946 19.1509 10.836 19.0006 10.3685 19.0006C9.08289 19.0006 7.78891 19.0006 6.50328 19.0006Z" fill="white"/>
</svg>
