<svg width="30" height="30" viewBox="0 0 30 30" fill="none" xmlns="http://www.w3.org/2000/svg">
<path d="M20.2944 27.2017C20.1737 27.2017 20.0756 27.2017 19.9851 27.2017C16.3799 27.2017 12.7748 27.2093 9.1771 27.1942C8.89804 27.1942 8.87541 27.2771 8.92821 27.511C9.02626 27.9333 9.09414 28.3557 9.19219 28.7781C9.23744 28.9666 9.18465 29.0119 8.99609 29.0119C7.32171 29.0043 5.64734 29.0043 3.97296 29.0043C3.33941 29.0043 2.71341 28.9892 2.07986 29.0119C1.82342 29.0194 1.81588 28.9289 1.86114 28.7253C2.15528 27.2771 2.44189 25.8366 2.73603 24.3885C2.78129 24.1773 2.78129 23.9736 2.72095 23.7549C2.19299 21.7939 1.6575 19.8405 1.15971 17.872C0.737343 16.1976 1.15971 14.7269 2.34384 13.4824C2.72849 13.0827 3.12069 12.6905 3.52043 12.3058C3.66373 12.1701 3.71653 12.0343 3.71653 11.8382C3.70898 9.90738 3.71653 7.98411 3.70898 6.0533C3.70898 5.8572 3.76932 5.72144 3.90508 5.58568C5.38336 4.12249 6.8541 2.65175 8.31729 1.17347C8.43796 1.0528 8.55864 1 8.73211 1C14.2455 1.00754 19.7589 1 25.2722 1.00754C25.9435 1.00754 26.2904 1.36203 26.2904 2.04083C26.2904 4.61273 26.2904 7.17709 26.2904 9.74899C26.2904 9.96772 26.298 10.0733 26.577 10.0582C27.5274 10.0054 28.4098 10.5862 28.7945 11.4611C29.1867 12.3511 29.0132 13.3542 28.3118 14.0707C27.4821 14.923 26.6449 15.7526 25.8002 16.5823C25.6267 16.7557 25.5664 16.8613 25.7323 17.1027C26.2452 17.8494 26.3659 18.6865 26.2226 19.5841C25.9435 21.3188 25.6871 23.061 25.408 24.7958C25.3854 24.9466 25.4306 25.0748 25.4608 25.2106C25.7549 26.4022 26.0491 27.6015 26.3583 28.7931C26.4111 28.9968 26.3508 29.0194 26.1698 29.0194C24.1409 29.0119 22.1045 29.0119 20.0756 29.0194C19.8946 29.0194 19.8343 28.9968 19.8871 28.7931C20.0455 28.2652 20.1586 27.7448 20.2944 27.2017ZM15.3089 21.2811C15.49 20.8512 15.6559 20.4891 15.8067 20.1196C15.9123 19.8405 16.0707 19.6142 16.2894 19.4031C16.8325 18.8826 17.3604 18.3396 17.8884 17.8116C18.3108 17.3893 18.3108 17.3893 17.8507 17.0197C17.3378 16.62 17.1492 16.0392 17.3378 15.466C17.5264 14.9003 18.0392 14.5534 18.6879 14.5459C19.4195 14.5459 20.1586 14.5383 20.8902 14.5459C21.0788 14.5459 21.1994 14.4931 21.3352 14.3573C22.5118 13.1732 23.6884 11.9966 24.865 10.82C24.9705 10.7144 25.0761 10.6013 25.2044 10.5258C25.3552 10.4278 25.408 10.3147 25.408 10.1336C25.4005 7.47878 25.4005 4.83146 25.408 2.17659C25.408 1.93524 25.3477 1.88244 25.1138 1.88244C19.8871 1.90507 14.6603 1.90507 9.44108 1.90507C9.19973 1.90507 9.12431 1.95032 9.12431 2.20676C9.13939 3.77554 9.13185 5.35187 9.13185 6.92065C9.13185 7.0187 9.16202 7.1243 9.09414 7.24497C8.79245 7.04887 8.49076 6.85277 8.20416 6.64913C7.17087 5.93262 6.06216 5.78932 4.87803 6.20414C4.67439 6.27202 4.61405 6.37007 4.61405 6.58125C4.62159 9.23612 4.62159 11.891 4.62159 14.5383C4.62159 14.6288 4.62159 14.7193 4.62159 14.8551C5.01379 14.6514 5.3909 14.5308 5.82081 14.5459C5.66242 14.0933 5.5342 13.6559 5.5342 13.2033C5.52666 11.8231 5.52666 10.4353 5.5342 9.05511C5.5342 9.03248 5.54929 9.00985 5.56437 8.9646C5.99428 9.1079 6.43173 9.23612 6.84655 9.40205C7.78179 9.75654 8.57373 9.57552 9.25253 8.84392C9.58438 8.4819 9.60701 8.4819 9.95395 8.85147C10.6252 9.57552 11.4171 9.74899 12.3373 9.40959C12.7672 9.25121 13.2047 9.11545 13.6647 8.9646C13.6647 9.07019 13.6647 9.14561 13.6647 9.22104C13.6647 10.4806 13.6798 11.7401 13.6647 12.9997C13.6496 14.4553 13.0236 15.6093 11.8093 16.4163C11.1456 16.8613 10.4517 17.2611 9.78048 17.691C9.65226 17.7739 9.55422 17.7739 9.426 17.691C8.7472 17.2535 8.06085 16.8312 7.37451 16.4012C7.31417 16.3635 7.25383 16.3334 7.12562 16.2655C7.63095 17.2761 8.09856 18.2114 8.56618 19.1391C8.60389 19.1315 8.61898 19.1315 8.62652 19.124C8.64915 19.0938 8.67932 19.0712 8.70194 19.041C8.99609 18.6941 9.35812 18.5508 9.81065 18.6564C10.2707 18.7695 10.5272 19.0787 10.6328 19.5313C10.8515 20.5042 11.0627 21.4772 11.2814 22.4501C11.2965 22.5331 11.2814 22.6764 11.4096 22.6613C11.5227 22.6538 11.5001 22.518 11.5227 22.435C11.5303 22.4049 11.5303 22.3822 11.5303 22.3521C11.7716 20.7984 12.0054 19.2522 12.2543 17.6985C12.3373 17.1856 12.7069 16.8613 13.182 16.8236C13.6572 16.7934 14.072 17.08 14.2304 17.5627C14.3586 17.9549 14.4642 18.3547 14.5849 18.7544C14.8036 19.569 15.045 20.3986 15.3089 21.2811ZM14.6151 26.2967C16.297 26.2967 17.9864 26.2967 19.6684 26.2967C19.9474 26.2967 20.3094 26.4098 20.4905 26.2514C20.6639 26.093 20.6413 25.731 20.7394 25.467C20.8299 25.2181 20.7771 25.0673 20.5508 24.9164C19.9625 24.5393 19.4647 24.0717 19.246 23.3778C19.1781 23.1515 19.0876 23.1742 18.9141 23.2496C18.0468 23.6267 17.1719 23.9963 16.297 24.3734C15.7916 24.5921 15.3165 24.5393 14.9167 24.1471C14.5321 23.7625 14.4491 23.3024 14.6679 22.7971C14.7357 22.6462 14.7282 22.518 14.6829 22.3672C14.4039 21.4319 14.1324 20.4967 13.8533 19.5539C13.6949 19.0109 13.5365 18.4754 13.3781 17.9323C13.3555 17.8494 13.3404 17.7438 13.2424 17.7438C13.1142 17.7438 13.1292 17.8644 13.1066 17.9549C13.0991 17.9851 13.0991 18.0077 13.0991 18.0379C12.8577 19.5916 12.6239 21.1378 12.375 22.6915C12.2845 23.2421 11.9149 23.5739 11.4171 23.589C10.9194 23.6041 10.5272 23.2798 10.3989 22.7443C10.2934 22.2993 10.2028 21.8467 10.1048 21.3942C9.98412 20.8512 9.86345 20.3081 9.74277 19.7726C9.70506 19.6067 9.63718 19.4709 9.43354 19.5765C9.29024 19.6519 9.02626 20.3383 9.06397 20.5118C9.14693 20.9568 9.16202 21.4017 9.11677 21.8618C9.0338 22.601 8.71703 23.2496 8.37763 23.8831C8.29466 24.034 8.27958 24.1773 8.30975 24.3432C8.43042 24.9164 8.5511 25.4821 8.64915 26.0553C8.68686 26.2514 8.75474 26.3042 8.95838 26.3042C10.8364 26.2891 12.7295 26.2967 14.6151 26.2967ZM3.71653 13.4371C3.66373 13.4598 3.6411 13.4598 3.63356 13.4749C3.42992 13.671 3.23382 13.8671 3.03018 14.0707C2.02706 15.0964 1.68766 16.3107 2.04215 17.6985C2.53239 19.5916 3.04527 21.4772 3.54305 23.3627C3.58831 23.5513 3.67881 23.589 3.85229 23.589C4.81015 23.5815 5.77556 23.5362 6.73342 23.6041C7.3368 23.6418 7.6234 23.4381 7.85721 22.9027C8.30975 21.8694 8.37763 20.8662 7.87984 19.8556C7.1935 18.4452 6.47698 17.0499 5.7831 15.6395C5.70768 15.4811 5.61717 15.4434 5.45124 15.4811C4.80261 15.6395 4.47075 16.2655 4.68947 16.9594C4.87049 17.5326 5.05904 18.1058 5.26268 18.6715C5.4437 19.1843 5.5342 19.7047 5.51912 20.2478C5.50404 20.8813 5.51912 20.8662 4.89311 20.8813C4.68193 20.8813 4.59143 20.8436 4.61405 20.6098C4.68193 19.9159 4.53863 19.2447 4.28974 18.596C4.12381 18.1737 4.00313 17.7438 3.85983 17.3139C3.76178 17.0197 3.70898 16.718 3.70898 16.4012C3.72407 15.4283 3.71653 14.4478 3.71653 13.4371ZM6.42419 10.2242C6.42419 11.1518 6.41665 12.0645 6.42419 12.9771C6.43173 14.1386 6.92952 15.0361 7.89492 15.6696C8.39271 15.994 8.89804 16.2957 9.39583 16.6124C9.53913 16.7029 9.63718 16.6954 9.77294 16.6049C10.2632 16.2881 10.761 15.994 11.2512 15.6772C12.2317 15.0361 12.7295 14.131 12.737 12.962C12.7446 12.1474 12.7295 11.3253 12.7446 10.5108C12.7521 10.2619 12.7069 10.2166 12.458 10.2996C11.4775 10.6465 10.5498 10.5108 9.72014 9.86967C9.58438 9.76408 9.50896 9.82442 9.41091 9.89984C8.73211 10.4052 7.97789 10.5862 7.14824 10.4203C6.91443 10.3825 6.68817 10.2996 6.42419 10.2242ZM21.7802 20.1799C21.7802 19.7198 21.7802 19.2598 21.7802 18.7997C21.7802 18.4376 21.5992 18.2114 21.2975 18.1737C21.0033 18.136 20.7695 18.3245 20.7016 18.679C20.4678 19.8179 20.2416 20.9643 20.0153 22.1032C19.8795 22.8121 20.1058 23.4004 20.6564 23.8605C20.8676 24.0415 21.1089 24.1999 21.3276 24.3734C21.4408 24.4639 21.5539 24.4865 21.6897 24.4865C22.557 24.479 23.4168 24.4714 24.2842 24.4941C24.518 24.5016 24.5783 24.4036 24.6085 24.1999C24.8574 22.5482 25.1063 20.8964 25.3627 19.2447C25.4532 18.6715 25.3175 18.151 25.0309 17.6533C24.9479 17.51 24.8876 17.5024 24.7744 17.6231C24.4124 17.9927 24.0429 18.3547 23.6808 18.7243C23.3565 19.0486 22.9191 19.3276 22.738 19.7198C22.5495 20.1271 22.6928 20.64 22.6852 21.1076C22.6777 21.8166 22.6852 21.809 21.9687 21.7864C21.8179 21.7789 21.7802 21.7336 21.7802 21.5903C21.7877 21.1151 21.7802 20.6475 21.7802 20.1799ZM5.51158 28.0993C6.31105 28.0993 7.11053 28.0917 7.91001 28.0993C8.08348 28.0993 8.13628 28.0766 8.09856 27.8805C7.8723 26.8246 7.66111 25.7612 7.46502 24.7052C7.43485 24.5242 7.36697 24.479 7.1935 24.479C6.08479 24.4865 4.97608 24.4865 3.86737 24.479C3.68636 24.479 3.63356 24.5318 3.59585 24.7052C3.39975 25.7536 3.18857 26.8095 2.9623 27.8579C2.90951 28.0917 2.99247 28.0993 3.17348 28.0993C3.95033 28.0993 4.72719 28.0993 5.51158 28.0993ZM19.0951 22.0655C19.1555 21.7789 19.2007 21.5677 19.246 21.349C19.4421 20.3835 19.6231 19.4181 19.8267 18.4527C19.9851 17.6985 20.6413 17.1932 21.3804 17.2761C22.0592 17.3516 22.4665 17.7664 22.6702 18.4226C22.7154 18.3924 22.7456 18.3773 22.7682 18.3547C23.3867 17.7362 24.0051 17.1178 24.6236 16.5068C24.7518 16.3786 24.7066 16.3183 24.6085 16.2127C24.0353 15.647 23.4546 15.0814 22.8964 14.4931C22.7305 14.3271 22.6475 14.3271 22.4816 14.4931C21.0561 15.9336 19.6156 17.3667 18.175 18.8072C17.828 19.1542 17.4886 19.5011 17.1342 19.8405C17.0512 19.9235 16.9984 19.9763 17.104 20.0894C17.7602 20.7229 18.4013 21.3716 19.0951 22.0655ZM23.1453 28.0993C23.7789 28.0993 24.4049 28.0917 25.0384 28.0993C25.2044 28.0993 25.2798 28.0842 25.227 27.8881C25.0233 27.1188 24.8348 26.3419 24.6462 25.5651C24.6085 25.4142 24.5406 25.384 24.3973 25.384C23.5601 25.3916 22.723 25.3916 21.8858 25.384C21.7349 25.384 21.6746 25.4368 21.6444 25.5801C21.4559 26.3495 21.2673 27.1112 21.0712 27.873C21.0184 28.0766 21.0863 28.1068 21.2673 28.0993C21.8782 28.0993 22.5118 28.0993 23.1453 28.0993ZM26.6751 10.9407C26.2754 10.9482 25.951 11.0538 25.6795 11.3027C25.3778 11.5818 25.0912 11.8834 24.7971 12.1701C24.699 12.2681 24.7066 12.3284 24.7971 12.4189C25.408 13.0223 26.0114 13.6257 26.6148 14.2366C26.7053 14.3271 26.7656 14.3573 26.8636 14.2517C27.1578 13.9425 27.4746 13.6634 27.7461 13.3466C28.1383 12.8866 28.2137 12.3435 27.9573 11.7929C27.7008 11.2348 27.2408 10.9708 26.6751 10.9407ZM8.20416 5.57814C8.20416 4.56748 8.20416 3.58699 8.20416 2.67438C7.41222 3.45877 6.6052 4.26579 5.79818 5.08035C6.19038 5.06526 6.59766 5.08035 7.00494 5.15577C7.41976 5.23874 7.81196 5.38958 8.20416 5.57814ZM26.0793 15.0286C26.0642 14.9305 25.9963 14.8928 25.9435 14.84C25.491 14.3875 25.046 13.9349 24.5859 13.4824C24.4049 13.3089 24.2465 12.9846 24.0353 13.0072C23.8392 13.0299 23.6733 13.3316 23.4772 13.4899C23.3188 13.6182 23.3641 13.7011 23.4923 13.8218C23.9523 14.2743 24.4049 14.742 24.8725 15.1945C25.046 15.3604 25.1968 15.6772 25.4005 15.6546C25.589 15.6319 25.7549 15.3529 25.936 15.1869C25.9887 15.1341 26.034 15.0738 26.0793 15.0286ZM17.3378 22.9328C17.6093 22.8197 17.8959 22.699 18.175 22.5708C18.2957 22.5105 18.1901 22.4501 18.1448 22.4049C17.6395 21.8995 17.1342 21.3942 16.6364 20.8889C16.5383 20.7908 16.4931 20.8059 16.4403 20.9266C16.3422 21.1604 16.2442 21.3942 16.1386 21.6205C16.0858 21.7336 16.1235 21.809 16.2065 21.8844C16.5308 22.2012 16.8476 22.518 17.1643 22.8348C17.2096 22.8876 17.2473 22.9554 17.3378 22.9328ZM20.1963 15.5263C20.1888 15.5037 20.1737 15.4811 20.1661 15.466C19.6457 15.466 19.1178 15.4585 18.5974 15.466C18.4013 15.466 18.2655 15.5867 18.2052 15.7752C18.1373 15.9638 18.1976 16.1297 18.3485 16.2579C18.5144 16.3937 18.6954 16.5144 18.8613 16.6501C18.9443 16.718 19.0046 16.7029 19.0801 16.6351C19.4421 16.2579 19.8192 15.8884 20.1963 15.5263ZM15.6634 22.6387C15.671 22.9705 15.2561 23.2119 15.5805 23.4985C15.8595 23.7398 16.0933 23.4155 16.3422 23.3552C16.116 23.1214 15.9123 22.9102 15.6634 22.6387Z" fill="white" stroke="white" stroke-width="0.2"/>
<path d="M17.2322 7.32794C14.9243 7.32794 12.6239 7.3204 10.316 7.33548C10.0746 7.33548 10.0218 7.2676 10.0294 7.04134C10.0444 6.43041 10.0369 6.43041 10.6478 6.43041C14.8489 6.43041 19.0574 6.43041 23.2584 6.43796C23.5375 6.43796 23.6054 6.36253 23.5903 6.09856C23.5677 5.69882 23.5752 5.29154 23.5903 4.88426C23.5978 4.67307 23.5375 4.62028 23.3263 4.62028C21.2748 4.62028 19.2309 4.62028 17.1794 4.62028C14.9016 4.62028 12.6239 4.62028 10.3537 4.62782C10.1274 4.62782 10.0218 4.59765 10.0369 4.33367C10.0595 3.72275 10.0444 3.72275 10.6554 3.72275C15.1581 3.72275 19.6683 3.72275 24.1711 3.71521C24.4501 3.71521 24.5029 3.79063 24.5029 4.05461C24.4878 5.05773 24.4878 6.06839 24.5029 7.0715C24.5029 7.28269 24.4501 7.33548 24.2389 7.33548C21.9008 7.3204 19.5703 7.32794 17.2322 7.32794Z" fill="white" stroke="white" stroke-width="0.2"/>
<path d="M18.6501 10.9406C19.9021 10.9406 21.1542 10.9482 22.3986 10.9331C22.6023 10.9331 22.6928 10.9557 22.6852 11.1971C22.6701 11.8382 22.6852 11.8382 22.0366 11.8382C19.6382 11.8382 17.2397 11.8306 14.8413 11.8457C14.5849 11.8457 14.5321 11.7703 14.5396 11.5365C14.5547 10.9406 14.5472 10.9406 15.143 10.9406C16.3196 10.9406 17.4811 10.9406 18.6501 10.9406Z" fill="white" stroke="white" stroke-width="0.2"/>
<path d="M20.8751 10.0356C19.7664 10.0356 18.6577 10.028 17.549 10.0431C17.3454 10.0431 17.2549 10.0205 17.2624 9.77913C17.2775 9.13804 17.2624 9.13804 17.911 9.13804C20.0078 9.13804 22.1045 9.13804 24.2013 9.13049C24.42 9.13049 24.5105 9.16066 24.5029 9.40956C24.4879 10.0356 24.4954 10.0356 23.8694 10.0356C22.8663 10.0356 21.8707 10.0356 20.8751 10.0356Z" fill="white" stroke="white" stroke-width="0.2"/>
<path d="M17.7451 12.7433C18.703 12.7433 19.6608 12.7508 20.6187 12.7357C20.8374 12.7357 20.8827 12.8036 20.8751 13.0072C20.8676 13.6483 20.8751 13.6483 20.234 13.6483C18.439 13.6483 16.6439 13.6483 14.8489 13.6559C14.6302 13.6559 14.5396 13.6257 14.5472 13.3768C14.5623 12.7508 14.5547 12.7508 15.1807 12.7508C16.033 12.7433 16.8928 12.7433 17.7451 12.7433Z" fill="white" stroke="white" stroke-width="0.2"/>
<path d="M15.4673 10.0356C15.3844 10.0356 15.3014 10.0356 15.2109 10.0356C14.4793 10.0356 14.4642 10.0129 14.5547 9.2738C14.5698 9.16066 14.6075 9.13049 14.7131 9.13049C15.2109 9.13049 15.7087 9.13804 16.2065 9.13049C16.3271 9.13049 16.3648 9.1682 16.3724 9.28888C16.4252 10.0356 16.4327 10.0356 15.6936 10.0356C15.6106 10.0356 15.5352 10.0356 15.4673 10.0356Z" fill="white" stroke="white" stroke-width="0.2"/>
<path d="M15.4673 15.4584C15.3768 15.4584 15.2788 15.466 15.1883 15.4584C14.9846 15.4434 14.6754 15.5489 14.6075 15.4132C14.5019 15.2095 14.5698 14.9229 14.5623 14.674C14.5623 14.5685 14.6301 14.5609 14.7131 14.5609C15.2109 14.5609 15.7087 14.5609 16.2065 14.5609C16.3196 14.5609 16.3875 14.5911 16.3724 14.7193C16.3724 14.7344 16.3724 14.757 16.3724 14.7721C16.395 15.466 16.395 15.466 15.7011 15.466C15.6182 15.4584 15.5428 15.4584 15.4673 15.4584Z" fill="white" stroke="white" stroke-width="0.2"/>
</svg>
