<svg width="30" height="29" viewBox="0 0 30 29" fill="none" xmlns="http://www.w3.org/2000/svg">
<path d="M29 21.8451C28.8888 22.0151 28.7384 22.1393 28.5684 22.244C25.6848 24.1075 22.8012 25.9646 19.9241 27.8412C18.989 28.4559 17.9559 28.7044 16.8573 28.7894C15.7719 28.8744 14.7518 28.5736 13.7252 28.2793C12.0905 27.8151 10.4493 27.3639 8.81455 26.8931C8.19989 26.7165 7.63101 26.7623 7.08175 27.0958C6.85289 27.2331 6.62403 27.3574 6.38209 27.4685C6.22516 27.5404 6.17939 27.6451 6.17939 27.8085C6.16631 28.3774 6.00284 28.5343 5.42742 28.5147C4.15234 28.482 2.87726 28.4428 1.60219 28.4101C1.1837 28.397 0.987535 28.2009 1.00061 27.7758C1.05946 25.4872 1.12485 23.2052 1.19024 20.9166C1.20986 20.2496 1.22293 19.5892 1.24909 18.9222C1.26871 18.4514 1.44525 18.288 1.91605 18.2945C3.23036 18.3272 4.53813 18.3664 5.85244 18.4057C6.2317 18.4187 6.42133 18.6149 6.42133 18.9876C6.42133 19.2426 6.42133 19.4976 6.42133 19.7527C6.51941 19.7919 6.57826 19.7265 6.65019 19.6938C8.61838 18.8045 10.5997 18.7849 12.5286 19.7527C13.4833 20.2365 14.451 20.4785 15.5169 20.4785C16.6285 20.4785 17.7401 20.485 18.8452 20.5896C19.8848 20.6877 20.6891 21.2304 21.2515 22.1067C21.3495 22.2636 21.4215 22.2832 21.5849 22.2047C22.775 21.6359 23.9912 21.1127 25.1552 20.4981C26.6656 19.7004 28.2153 20.1515 29 21.5247C29 21.6293 29 21.7339 29 21.8451ZM27.7053 21.5639C27.2084 21.0997 26.561 21.0016 25.9333 21.3024C24.6713 21.8909 23.4158 22.4924 22.1604 23.0875C21.7484 23.2836 21.7549 23.2836 21.7746 23.7283C21.8007 24.2776 21.6046 24.4868 21.0618 24.4737C19.5579 24.4345 18.054 24.3953 16.5566 24.3495C16.0661 24.3364 15.5757 24.3299 15.0788 24.3037C14.778 24.2906 14.5818 24.1141 14.5426 23.8525C14.5099 23.6171 14.6407 23.3948 14.8565 23.3033C14.9676 23.2575 15.0919 23.2706 15.2096 23.2706C16.9423 23.3163 18.6686 23.3621 20.4014 23.4079C20.6957 23.4144 20.7022 23.4144 20.6041 23.1333C20.2902 22.2113 19.4663 21.6228 18.4332 21.5901C17.4328 21.5574 16.4323 21.5443 15.4253 21.5116C15.0068 21.4985 14.5884 21.4789 14.1699 21.4332C13.3656 21.3481 12.6725 20.9427 11.9532 20.6223C10.1158 19.7984 8.31106 19.9096 6.56518 20.9166C6.42133 20.995 6.36901 21.0931 6.36248 21.2566C6.32978 22.8586 6.28401 24.4606 6.23824 26.0627C6.2317 26.3634 6.23824 26.3765 6.49979 26.2196C7.33023 25.7292 8.19336 25.6115 9.12187 25.8861C10.4231 26.2719 11.7243 26.6315 13.0321 26.9846C13.9672 27.2397 14.8826 27.6058 15.8569 27.7105C17.1189 27.8412 18.3155 27.6385 19.4075 26.9258C21.343 25.6573 23.2916 24.4083 25.2271 23.1529C26.051 22.6363 26.8683 22.1067 27.7053 21.5639ZM5.26395 23.4602C5.29664 22.2047 5.32934 20.9493 5.37511 19.6873C5.38165 19.4846 5.33588 19.4257 5.12663 19.4192C4.2635 19.4061 3.39383 19.3799 2.53071 19.3407C2.32146 19.3342 2.26915 19.3996 2.26915 19.6023C2.20376 22.1132 2.13837 24.6307 2.06645 27.1416C2.05991 27.3247 2.10568 27.3704 2.28877 27.377C3.17151 27.3966 4.05426 27.4227 4.937 27.4554C5.12663 27.462 5.16586 27.3966 5.16586 27.2266C5.19202 25.9777 5.23125 24.7157 5.26395 23.4602Z" fill="white" stroke="white" stroke-width="0.2"/>
<path d="M14.8499 18.5169C13.6075 18.5038 12.6071 17.9872 11.9597 16.8495C11.7309 16.4506 11.417 16.1563 11.0051 15.9406C9.85423 15.3259 9.26574 14.3778 9.29843 13.0635C9.31151 12.6319 9.20035 12.2396 8.97149 11.8734C8.25222 10.7487 8.25221 9.61748 8.96495 8.48626C9.20035 8.11355 9.30497 7.70814 9.29843 7.27003C9.27228 5.97534 9.8477 5.03374 10.9724 4.42563C11.4105 4.19023 11.744 3.86329 11.9924 3.43172C12.6071 2.37243 13.5487 1.84278 14.7649 1.84278C15.3469 1.84278 15.8634 1.70547 16.3735 1.42429C17.4132 0.848875 18.4855 0.861953 19.5252 1.44391C20.0091 1.71854 20.4995 1.84278 21.0553 1.84278C22.2911 1.83624 23.2458 2.37243 23.8735 3.4448C24.122 3.86983 24.4424 4.18369 24.8805 4.41255C26.0118 5.01413 26.5872 5.96226 26.5676 7.25042C26.561 7.72121 26.6853 8.1397 26.9337 8.53857C27.6007 9.61748 27.6007 10.7095 26.9403 11.7884C26.6853 12.2003 26.5676 12.6254 26.5741 13.1027C26.5872 14.3516 26.0379 15.2932 24.9394 15.8882C24.4751 16.1433 24.122 16.4702 23.8539 16.9279C23.2524 17.9545 22.3304 18.4776 21.1468 18.4907C20.5322 18.4973 19.996 18.6346 19.4598 18.9223C18.4136 19.4912 17.3412 19.465 16.3081 18.8765C15.87 18.628 15.4123 18.4646 14.8499 18.5169ZM15.2684 17.4576C15.628 17.4445 16.2296 17.6276 16.792 17.9611C17.5439 18.4057 18.3155 18.4122 19.074 17.9676C19.6821 17.608 20.3229 17.4445 21.0291 17.4641C21.9184 17.4903 22.5919 17.111 23.03 16.3264C23.3504 15.7509 23.8082 15.3259 24.3901 15.0251C25.1879 14.6132 25.5802 13.9593 25.554 13.0569C25.5344 12.4292 25.6913 11.8472 26.0314 11.3241C26.5349 10.5525 26.5283 9.79403 26.0248 9.02245C25.6848 8.50588 25.5279 7.93046 25.5475 7.31581C25.5802 6.40037 25.1879 5.73994 24.377 5.32145C23.782 5.02067 23.3308 4.57602 23.0039 3.99407C22.5788 3.22902 21.9053 2.86284 21.0488 2.889C20.336 2.90862 19.6821 2.73861 19.0675 2.37897C18.3221 1.94086 17.557 1.94086 16.8116 2.38551C16.2035 2.74514 15.5627 2.90862 14.8565 2.889C13.9672 2.86284 13.2937 3.2421 12.8621 4.02676C12.5482 4.59564 12.1036 5.02721 11.5282 5.31492C10.7108 5.72686 10.3185 6.38075 10.3512 7.29619C10.3708 7.91084 10.2204 8.4928 9.88039 9.00937C9.36382 9.79403 9.36382 10.5722 9.88693 11.3568C10.2204 11.8538 10.3773 12.4161 10.3512 13.0112C10.312 13.9789 10.737 14.6459 11.587 15.0709C12.1232 15.339 12.5417 15.7379 12.8294 16.2675C13.2871 17.111 13.9999 17.5099 15.2684 17.4576Z" fill="white" stroke="white" stroke-width="0.2"/>
<path d="M14.9022 15.6332C14.4707 15.6267 14.2287 15.2605 14.3726 14.9139C14.4053 14.842 14.4511 14.7701 14.4968 14.6981C16.4977 11.4876 18.5052 8.27699 20.506 5.06641C20.578 4.94871 20.6434 4.83101 20.7741 4.76562C20.9834 4.661 21.1861 4.67408 21.3626 4.82447C21.5392 4.97487 21.598 5.17103 21.513 5.39335C21.4803 5.4849 21.4215 5.5699 21.3692 5.65491C19.3748 8.85241 17.3805 12.0434 15.3861 15.2409C15.2553 15.4501 15.118 15.6397 14.9022 15.6332Z" fill="white" stroke="white" stroke-width="0.2"/>
<path d="M23.0497 12.9131C23.0366 13.5931 22.762 14.3058 22.1342 14.8551C21.3299 15.5678 20.1791 15.5678 19.3683 14.8616C18.2436 13.8808 18.1324 12.0042 19.1394 10.8991C20.1333 9.80711 21.6961 9.91173 22.5462 11.128C22.8862 11.6249 23.0497 12.1742 23.0497 12.9131ZM22.01 12.7627C21.9969 12.2853 21.8596 11.8407 21.4934 11.5007C21.0422 11.0822 20.4472 11.0887 19.996 11.5137C19.3291 12.148 19.3225 13.3969 19.9895 14.0312C20.4603 14.4759 21.0945 14.4693 21.5457 13.9985C21.8661 13.652 21.9969 13.24 22.01 12.7627Z" fill="white" stroke="white" stroke-width="0.2"/>
<path d="M17.4262 7.57083C17.4328 8.1724 17.2693 8.72167 16.9227 9.21208C16.0269 10.4937 14.3203 10.5264 13.3787 9.27093C12.6398 8.28356 12.6463 6.83194 13.3917 5.85111C14.3399 4.61526 16.0204 4.64796 16.9162 5.92304C17.2497 6.40037 17.4262 6.95618 17.4262 7.57083ZM16.38 7.57083C16.38 7.10657 16.2361 6.69462 15.9615 6.3873C15.5038 5.87073 14.8107 5.85111 14.3268 6.34806C13.7056 6.98233 13.7121 8.18548 14.3399 8.80667C14.8107 9.27093 15.458 9.27093 15.9157 8.79359C16.2492 8.45357 16.38 8.04163 16.38 7.57083Z" fill="white" stroke="white" stroke-width="0.2"/>
</svg>
