<svg width="28" height="31" viewBox="0 0 28 31" fill="none" xmlns="http://www.w3.org/2000/svg">
<path d="M1 14.1851C4.02576 12.0646 7.05151 9.94406 10.0897 7.84835C10.4989 7.56314 10.6477 7.37713 10.3873 6.8439C9.51924 5.09541 10.0277 3.0245 11.5281 1.84644C12.9914 0.705585 15.1119 0.717986 16.5628 1.88365C18.0385 3.06171 18.5097 5.09541 17.6665 6.8315C17.4432 7.29032 17.468 7.50113 17.9145 7.79875C20.7666 9.74565 23.5816 11.7422 26.4089 13.7139C26.5577 13.8255 26.7313 13.9123 26.8429 14.0611C27.1653 14.4455 26.9669 14.9663 26.4709 15.0159C26.0617 15.0531 25.6525 15.0531 25.2432 15.0283C24.8092 15.0035 24.6728 15.1771 24.6852 15.5987C24.6976 17.4712 24.6852 19.3437 24.6852 21.2162C24.6852 23.994 24.6728 26.7717 24.6852 29.5495C24.6852 29.9215 24.6108 30.2315 24.3504 30.4919C23.4452 30.4919 22.5399 30.4919 21.6347 30.4919C21.3246 30.2563 21.2874 29.9339 21.2874 29.5743C21.2998 26.5485 21.275 23.5352 21.2998 20.5094C21.2998 19.9762 21.1634 19.815 20.6178 19.815C16.2404 19.8398 11.863 19.8398 7.48553 19.815C6.9399 19.815 6.8035 19.9762 6.8035 20.5094C6.8283 23.5352 6.8159 26.5485 6.8159 29.5743C6.8159 29.9339 6.8159 30.2687 6.45628 30.4919C5.55103 30.4919 4.64579 30.4919 3.74054 30.4919C3.44293 30.2563 3.40572 29.9215 3.40572 29.5619C3.40572 24.986 3.39332 20.3978 3.41812 15.822C3.41812 15.1895 3.24452 15.0035 2.62448 15.0407C2.07886 15.0779 1.47122 15.2267 1.0372 14.6811C1 14.5199 1 14.3587 1 14.1851ZM13.9959 17.7689C16.6124 17.7689 19.2165 17.7689 21.8331 17.7689C22.5523 17.7689 22.6639 17.8681 22.6639 18.5873C22.6639 18.8105 22.6639 19.0461 22.6639 19.2693C22.6515 19.5174 22.5399 19.7654 22.2919 19.7778C21.7339 19.8026 21.8331 20.187 21.8331 20.5218C21.8331 23.0887 21.8331 25.6681 21.8331 28.235C21.8331 29.9339 21.8331 29.9215 23.5072 29.9215C24.0032 29.9215 24.1272 29.7355 24.1272 29.2643C24.1148 24.6512 24.1024 20.0506 24.1148 15.4375C24.1148 15.0531 23.9784 14.8423 23.6808 14.6315C21.3122 12.9946 18.9437 11.3577 16.6 9.69605C16.2528 9.44803 16.1288 9.55964 15.9552 9.85726C15.5583 10.5765 15.1367 11.2833 14.7275 11.9902C14.2935 12.7342 13.7975 12.7466 13.3634 12.015C12.917 11.2709 12.483 10.5269 12.0614 9.77045C11.9126 9.51004 11.801 9.46043 11.5529 9.64644C9.13482 11.3453 6.70429 13.0442 4.27377 14.7307C4.06296 14.8795 3.97615 15.0407 3.97615 15.2887C3.97615 19.9762 3.97615 24.676 3.97615 29.3635C3.97615 29.7231 4.08776 29.8967 4.47218 29.8719C4.9062 29.8471 5.34022 29.8595 5.76184 29.8719C6.09666 29.8843 6.24547 29.7727 6.24547 29.4131C6.20827 26.3625 6.20827 23.2995 6.20827 20.2366C6.20827 20.0134 6.15866 19.8894 5.89825 19.815C5.37742 19.6786 5.21622 19.1205 5.37742 18.2525C5.47663 17.7441 5.84865 17.7689 6.23307 17.7689C8.8124 17.7689 11.4041 17.7689 13.9959 17.7689ZM14.0207 12.0522C15.1367 10.0929 16.228 8.30718 17.1828 6.45948C17.9145 5.04581 17.406 3.33452 16.1288 2.33007C14.9383 1.40002 13.1526 1.38762 11.9498 2.31767C10.6725 3.29732 10.1393 5.04581 10.8709 6.44708C11.8134 8.29477 12.9046 10.0805 14.0207 12.0522ZM14.0207 19.2569C15.8436 19.2569 17.6789 19.2569 19.5017 19.2569C20.1838 19.2569 20.8534 19.2569 21.5355 19.2569C21.8579 19.2569 22.0935 19.2073 22.1059 18.7981C22.1183 18.3889 21.9075 18.3269 21.5727 18.3393C21.1386 18.3517 20.7046 18.3393 20.283 18.3393C15.7196 18.3393 11.1561 18.3517 6.59269 18.3393C6.15866 18.3393 5.86105 18.3765 5.94785 18.9221C6.02226 19.3685 6.36948 19.2445 6.62989 19.2445C9.09762 19.2569 11.5529 19.2569 14.0207 19.2569ZM26.2477 14.4703C26.0865 14.1479 25.8509 14.0487 25.6525 13.9123C22.9491 12.0398 20.2582 10.1549 17.5549 8.29477C17.344 8.15837 17.1208 7.81115 16.8852 8.28237C16.6992 8.62959 16.3892 8.89001 16.9472 9.26202C19.2413 10.8121 21.5355 12.387 23.7676 14.0239C24.5612 14.6067 25.3549 14.4331 26.2477 14.4703ZM1.86804 14.3091C1.89285 14.3587 1.91765 14.4207 1.93005 14.4703C2.59968 14.3711 3.29412 14.6687 3.93895 14.2223C6.34467 12.5482 8.7504 10.8617 11.1685 9.21242C11.7266 8.828 11.2801 8.56759 11.1437 8.25757C10.9453 7.81115 10.7097 8.13357 10.5237 8.26997C8.45278 9.70845 6.38188 11.1469 4.31097 12.5854C3.49253 13.1558 2.67409 13.7387 1.86804 14.3091Z" fill="white" stroke="white" stroke-width="0.3"/>
<path d="M9.27129 30.492C8.99847 30.1571 8.92407 29.7851 8.93647 29.3511C8.96127 28.3219 8.93647 27.2926 8.94887 26.2633C8.94887 25.6061 9.18448 25.3953 9.82932 25.3457C10.3129 25.3085 10.9454 25.5689 11.243 25.2341C11.5778 24.8621 11.3546 24.2048 11.367 23.684C11.3794 23.002 11.3794 22.3323 11.367 21.6503C11.3546 21.1419 11.5902 20.8815 12.111 20.8815C13.3883 20.8815 14.6532 20.8815 15.9304 20.8815C16.4389 20.8815 16.6745 21.1295 16.6745 21.6379C16.6745 22.692 16.6869 23.7336 16.6621 24.7877C16.6497 25.1969 16.7737 25.3953 17.2201 25.3581C17.5673 25.3333 17.9145 25.3457 18.2617 25.3581C18.795 25.3829 19.0926 25.6309 19.0926 26.2013C19.0802 27.3546 19.0678 28.5079 19.0926 29.6487C19.105 29.9959 18.8942 30.2191 18.7578 30.4796C15.608 30.492 12.4335 30.492 9.27129 30.492ZM16.4017 29.8967C16.9101 29.8967 17.4309 29.8719 17.9393 29.9091C18.4106 29.9339 18.5594 29.7231 18.547 29.2891C18.5222 28.3839 18.5098 27.4786 18.547 26.5734C18.5594 26.0649 18.361 25.9409 17.9021 25.9409C17.3565 25.9409 17.3937 26.2633 17.3937 26.6354C17.3937 26.995 17.4805 27.4042 16.9473 27.5034C15.8312 27.7142 15.5212 27.5034 15.4592 26.4122C15.4344 25.9409 15.1616 25.9657 14.8392 25.9533C14.5044 25.9409 14.3059 26.0277 14.3059 26.4246C14.3307 27.4166 14.3183 28.3963 14.3059 29.3883C14.3059 29.7479 14.43 29.9091 14.802 29.8967C15.3352 29.8843 15.8684 29.8967 16.4017 29.8967ZM11.6398 29.8843C12.173 29.8843 12.7063 29.8719 13.2395 29.8843C13.6115 29.8967 13.7479 29.7479 13.7479 29.3759C13.7355 28.4087 13.7231 27.4414 13.7479 26.4742C13.7603 26.0525 13.5867 25.9657 13.2147 25.9285C12.6319 25.8913 12.5947 26.2013 12.5947 26.6478C12.6071 27.4662 12.5575 27.491 11.7638 27.5034C11.6398 27.5034 11.5158 27.491 11.3918 27.5034C10.8214 27.5654 10.5982 27.2802 10.6478 26.7346C10.6602 26.6106 10.6354 26.4866 10.6478 26.3626C10.6974 25.8913 10.3377 25.9781 10.0649 25.9409C9.77971 25.9037 9.5193 25.9285 9.5193 26.3254C9.5193 27.3546 9.5193 28.3839 9.5193 29.4131C9.5193 29.7603 9.69291 29.8719 10.0277 29.8719C10.5734 29.8719 11.1066 29.8843 11.6398 29.8843ZM14.0207 25.3581C14.554 25.3581 15.0872 25.3457 15.6204 25.3705C16.0048 25.3829 16.1164 25.2465 16.104 24.8745C16.0792 23.932 16.0668 22.9896 16.104 22.0347C16.1164 21.5635 15.9428 21.4519 15.4964 21.4519C14.988 21.4519 15.0004 21.7495 15.0128 22.0967C15.0128 22.4564 15.0872 22.878 14.6408 23.0392C13.6735 23.3864 13.0411 22.9772 13.0287 21.9727C13.0287 21.5511 12.8675 21.4519 12.4831 21.4519C12.111 21.4519 11.925 21.5387 11.9374 21.9603C11.9622 22.9276 11.9622 23.8948 11.9374 24.8497C11.925 25.2217 12.0366 25.3705 12.421 25.3457C12.9543 25.3333 13.4875 25.3581 14.0207 25.3581ZM14.4548 22.0099C14.4672 21.6999 14.4424 21.4643 14.0455 21.4519C13.6983 21.4395 13.5619 21.5883 13.5743 21.9231C13.5867 22.2207 13.5743 22.4936 14.0083 22.4936C14.3804 22.4812 14.4796 22.2951 14.4548 22.0099ZM11.2306 26.4246C11.2058 26.7222 11.2306 26.9578 11.6274 26.9578C11.9498 26.9578 12.0614 26.8214 12.0366 26.5238C12.0118 26.2633 12.0862 25.9781 11.677 25.9657C11.3298 25.9533 11.181 26.0897 11.2306 26.4246ZM16.8233 26.437C16.8605 26.1641 16.8109 25.9657 16.4513 25.9533C16.0792 25.9409 16.0048 26.1269 16.0048 26.4494C16.0172 26.747 16.0172 26.9578 16.4141 26.9578C16.8233 26.9578 16.8357 26.7346 16.8233 26.437Z" fill="white" stroke="white" stroke-width="0.3"/>
<path d="M14.0207 13.9743C15.1863 13.9743 16.3644 13.9743 17.5301 13.9743C18.2493 13.9743 18.3857 14.1231 18.3981 14.8547C18.4353 16.3304 18.3981 16.3676 16.91 16.3676C14.8515 16.3676 12.793 16.3676 10.7469 16.3676C9.75486 16.3676 9.61845 16.2312 9.63085 15.2267C9.63085 15.0779 9.64325 14.9415 9.63085 14.7927C9.59365 14.2099 9.87887 13.9619 10.4369 13.9743C11.6398 13.9743 12.8302 13.9619 14.0207 13.9743ZM14.0207 15.7848C15.1367 15.7848 16.2404 15.7724 17.3564 15.7972C17.9269 15.8096 17.8277 15.4375 17.8401 15.0903C17.8649 14.7059 17.7533 14.5323 17.3316 14.5447C15.1367 14.5571 12.9294 14.5695 10.7345 14.5447C10.2509 14.5447 10.2137 14.7679 10.2137 15.1523C10.2137 15.5491 10.2385 15.822 10.7593 15.7972C11.8382 15.76 12.9294 15.7848 14.0207 15.7848Z" fill="white" stroke="white" stroke-width="0.3"/>
<path d="M14.0206 2.96252C15.1118 2.96252 16.0171 3.88017 16.0171 4.97143C16.0171 6.05028 15.0746 6.98033 13.9958 6.95553C12.8921 6.94313 11.9993 6.03788 12.0117 4.93423C12.0117 3.84297 12.9045 2.96252 14.0206 2.96252ZM14.0206 3.55776C13.2765 3.54535 12.5821 4.20259 12.5821 4.95903C12.5821 5.69066 13.2145 6.3479 13.9462 6.3727C14.6902 6.4099 15.397 5.74027 15.4218 4.99623C15.4466 4.25219 14.7894 3.58256 14.0206 3.55776Z" fill="white" stroke="white" stroke-width="0.3"/>
</svg>
