<svg width="30" height="27" viewBox="0 0 30 27" fill="none" xmlns="http://www.w3.org/2000/svg">
<path d="M28.9941 14.0962C28.8998 14.5557 28.835 15.0212 28.67 15.4689C28.452 16.0463 28.1633 16.5766 27.7686 17.0479C26.8318 18.1733 25.9245 19.3339 24.9582 20.4298C24.4397 21.0131 24.2453 21.6258 24.3573 22.38C24.3926 22.5921 24.4103 22.763 24.6518 22.869C24.9229 22.9868 24.9995 23.2402 24.8698 23.5112C24.4221 24.4657 23.9684 25.4201 23.5088 26.3687C23.3557 26.6869 23.1141 26.7399 22.7488 26.5632C21.4644 25.9563 20.1859 25.3436 18.9074 24.7367C18.1532 24.3773 17.3932 24.0179 16.639 23.6585C16.1913 23.4464 16.1206 23.2402 16.3386 22.7865C16.7451 21.9322 17.1516 21.0779 17.5581 20.2236C17.782 19.7523 17.9765 19.6816 18.4419 19.8996C18.4832 19.9172 18.5244 19.9349 18.5656 19.9585C18.7424 20.0704 18.7895 20.0174 18.7895 19.8171C18.7895 18.8862 19.0193 18.0201 19.473 17.207C19.8383 16.553 20.3273 16.0051 20.9165 15.5514C21.376 15.192 21.7295 14.7501 21.977 14.2199C22.3482 13.4304 22.7252 12.6409 23.1023 11.8514C23.5088 10.9912 24.1569 10.4256 25.1114 10.2547C25.3117 10.2194 25.2999 10.1074 25.294 9.96602C25.2705 8.85248 25.2351 7.74483 25.2292 6.63128C25.2292 5.70038 25.789 4.95212 26.6609 4.64575C26.714 4.62808 26.767 4.6104 26.82 4.59862C27.4033 4.46311 27.5918 4.60451 27.6861 5.19958C28.1044 7.88034 28.5286 10.5552 28.9528 13.236C28.9587 13.2713 28.9823 13.3008 29 13.3302C28.9941 13.5895 28.9941 13.8428 28.9941 14.0962ZM26.7906 5.64146C26.3428 5.86535 26.1425 6.21886 26.1542 6.79625C26.1719 7.84499 26.2132 8.88783 26.2249 9.93656C26.2249 10.2076 26.3074 10.3372 26.5726 10.4197C26.9496 10.5375 27.0616 10.7968 26.9025 11.1385C26.2308 12.5643 25.5533 13.9842 24.8757 15.3982C24.7402 15.681 24.4633 15.7812 24.2217 15.6575C23.9861 15.5396 23.9154 15.2804 24.0332 14.9976C24.0568 14.9387 24.0862 14.8798 24.1157 14.8267C24.6577 13.6837 25.1939 12.5407 25.7477 11.4036C25.8656 11.1621 25.789 11.1326 25.571 11.1385C24.8227 11.1679 24.2983 11.5273 23.9802 12.199C23.5913 13.0121 23.2025 13.8251 22.8195 14.6382C22.519 15.2863 22.083 15.8224 21.5233 16.2702C20.233 17.2954 19.6262 18.6269 19.7558 20.2825C19.7735 20.4769 19.8442 20.5712 20.0091 20.6478C20.9224 21.0779 21.8356 21.5139 22.7429 21.944C22.955 22.0442 23.1671 22.1443 23.4028 22.2563C23.4028 22.162 23.4087 22.1031 23.4028 22.0383C23.3262 21.3077 23.5383 20.6773 24.0096 20.1176C24.5811 19.4341 25.1526 18.7448 25.7124 18.0554C26.2544 17.3897 26.8436 16.771 27.3267 16.0581C27.8452 15.2922 28.1633 14.4202 28.0278 13.5011C27.6508 10.8851 27.2089 8.27508 26.7906 5.64146ZM23.8034 23.5701C23.8034 23.4582 23.7033 23.4464 23.6385 23.4169C21.9181 22.5921 20.1918 21.7731 18.4714 20.9483C18.3359 20.8835 18.2769 20.8894 18.2062 21.0367C17.947 21.5964 17.6878 22.1561 17.405 22.7099C17.3048 22.9044 17.3696 22.9692 17.5405 23.0458C19.2432 23.847 20.94 24.6542 22.6369 25.4732C22.8018 25.5498 22.8784 25.5498 22.955 25.3671C23.2025 24.8133 23.4735 24.2654 23.7386 23.7174C23.7563 23.6703 23.7799 23.6232 23.8034 23.5701Z" fill="white" stroke="white" stroke-width="0.3"/>
<path d="M4.69184 8.05547C4.69184 8.62697 4.69773 9.20437 4.68595 9.77587C4.68005 9.94084 4.72719 10.0174 4.89805 10.0469C5.80538 10.2119 6.4417 10.7362 6.84234 11.5611C7.24298 12.3859 7.63773 13.2167 8.03247 14.0474C8.26815 14.5541 8.60398 14.9724 9.04586 15.3141C10.4304 16.41 11.1728 17.824 11.1905 19.5975C11.1964 19.839 11.273 19.8331 11.4379 19.733C11.5263 19.6799 11.6147 19.6446 11.7089 19.6092C11.98 19.5091 12.2097 19.5739 12.3335 19.8331C12.7989 20.7876 13.2585 21.748 13.7063 22.7142C13.8477 23.0265 13.7416 23.2445 13.394 23.4153C12.6339 23.7806 11.868 24.1459 11.1021 24.5053C9.82946 25.1122 8.55684 25.719 7.28422 26.3259C6.81288 26.5497 6.61845 26.479 6.39456 26.0136C5.98803 25.1593 5.5815 24.305 5.17496 23.4507C4.95697 22.997 5.00999 22.8261 5.44599 22.5905C5.55204 22.5374 5.59328 22.4726 5.59917 22.3607C5.61095 22.0779 5.64041 21.7951 5.6522 21.5182C5.66398 21.1352 5.5049 20.8171 5.26334 20.5284C4.23817 19.297 3.21889 18.0597 2.19962 16.8224C1.37477 15.8208 0.956453 14.6543 1.00359 13.364C1.03305 12.598 1.22158 11.8321 1.33942 11.0721C1.65757 9.05707 1.97573 7.04798 2.29389 5.03299C2.31156 4.91515 2.32334 4.79732 2.3587 4.68537C2.43529 4.44381 2.61204 4.32598 2.8536 4.34365C3.82575 4.40257 4.71541 5.30401 4.74486 6.28794C4.76254 6.87711 4.75076 7.47218 4.75076 8.06136C4.73308 8.05547 4.70951 8.05547 4.69184 8.05547ZM6.57131 22.019C6.61256 22.0131 6.64202 22.019 6.66558 22.0072C7.7968 21.471 8.93392 20.929 10.0651 20.3928C10.2006 20.328 10.2124 20.2279 10.2242 20.11C10.3656 18.4662 9.78822 17.1288 8.50971 16.1036C7.90875 15.6205 7.44919 15.0431 7.11925 14.342C6.73039 13.4995 6.33564 12.6569 5.91144 11.8321C5.60506 11.2311 5.06891 10.9542 4.39136 10.9307C4.16158 10.9248 4.13801 10.9837 4.23817 11.1899C4.792 12.3329 5.33993 13.4877 5.88198 14.6366C5.92322 14.7191 5.96446 14.8015 5.98803 14.8899C6.05873 15.1256 5.95857 15.3789 5.74057 15.4614C5.51079 15.5498 5.31047 15.5027 5.16318 15.2906C5.11015 15.214 5.06891 15.1315 5.03356 15.049C4.39725 13.7175 3.76683 12.3859 3.13641 11.0603C2.90074 10.5595 2.97733 10.3533 3.49581 10.1706C3.66667 10.1117 3.73737 10.0292 3.73737 9.84068C3.75505 8.90388 3.78451 7.96709 3.80807 7.02441C3.81396 6.77695 3.82575 6.5295 3.79629 6.28794C3.74915 5.89908 3.55473 5.5986 3.17765 5.40417C2.84182 7.5311 2.50599 9.62268 2.17605 11.7143C2.08178 12.2975 1.93449 12.8808 1.9286 13.47C1.91681 14.4893 2.25854 15.4202 2.91252 16.2156C3.90823 17.4234 4.90983 18.6312 5.90554 19.839C6.09408 20.0629 6.25905 20.2986 6.38278 20.5637C6.60667 21.0292 6.60666 21.5182 6.57131 22.019ZM12.6398 22.6671C12.6281 22.6376 12.6163 22.614 12.6104 22.5846C12.3276 21.9836 12.033 21.3886 11.7561 20.7876C11.6795 20.6226 11.5911 20.6992 11.4968 20.7463C9.78233 21.5653 8.06782 22.3784 6.35332 23.1914C6.20013 23.2621 6.14711 23.3211 6.23548 23.4919C6.5124 24.0457 6.77753 24.5996 7.03087 25.1652C7.10747 25.336 7.18406 25.336 7.33135 25.2594C7.71432 25.065 8.10318 24.8883 8.48614 24.7056C9.8059 24.0752 11.1315 23.4507 12.4513 22.8203C12.522 22.7908 12.6398 22.7908 12.6398 22.6671Z" fill="white" stroke="white" stroke-width="0.3"/>
<path d="M9.04584 6.92427C9.04584 5.7577 9.04584 4.59113 9.04584 3.42456C9.04584 2.94732 9.11654 2.85305 9.58199 2.69987C11.2788 2.15193 12.9757 1.60989 14.6666 1.05606C14.8728 0.985363 15.0672 0.979471 15.2793 1.05017C16.9997 1.60989 18.7201 2.16372 20.4405 2.72344C20.8294 2.84716 20.9178 2.95911 20.9178 3.37742C20.9178 5.75181 20.9178 8.13208 20.9178 10.5065C20.9178 10.9189 20.8353 11.0249 20.4346 11.1546C18.7142 11.7143 16.9938 12.2681 15.2734 12.8278C15.0731 12.8926 14.8846 12.8926 14.6902 12.8278C12.9698 12.2681 11.2494 11.7143 9.52896 11.1546C9.14011 11.0308 9.05762 10.913 9.05173 10.5006C9.04584 9.31044 9.04584 8.1203 9.04584 6.92427ZM14.5075 8.55629C14.5075 7.55469 14.5016 6.55309 14.5134 5.55149C14.5134 5.37473 14.4545 5.29814 14.2895 5.24511C12.9344 4.81502 11.5852 4.38492 10.2419 3.93714C10.018 3.86055 9.99441 3.93125 9.99441 4.13157C10.0003 6.11121 10.0003 8.08495 9.99441 10.0646C9.99441 10.259 10.0415 10.3474 10.2419 10.4063C11.5793 10.8246 12.9108 11.2547 14.2424 11.6966C14.4957 11.7791 14.5252 11.7025 14.5252 11.4786C14.5016 10.5065 14.5075 9.52844 14.5075 8.55629ZM19.9692 7.11281C19.9692 6.12888 19.9633 5.14496 19.9751 4.16103C19.9751 3.93714 19.9574 3.86055 19.6982 3.94303C18.3607 4.38492 17.0174 4.81502 15.6741 5.24511C15.5091 5.29814 15.4502 5.36884 15.4502 5.5456C15.4561 7.54291 15.4561 9.53433 15.4502 11.5316C15.4502 11.7496 15.515 11.7673 15.7035 11.7025C17.0528 11.2606 18.402 10.8246 19.7571 10.4004C19.9338 10.3474 19.9751 10.2649 19.9751 10.094C19.9633 9.10423 19.9692 8.10852 19.9692 7.11281ZM18.8144 3.20656C18.7908 3.19478 18.7732 3.1771 18.7496 3.17121C17.5418 2.78235 16.3281 2.3935 15.1203 1.99875C15.0083 1.9634 14.9082 1.98107 14.8021 2.01642C13.6355 2.3935 12.469 2.77057 11.3024 3.14764C11.2553 3.16532 11.1669 3.14175 11.161 3.24191C11.1846 3.2537 11.2081 3.27137 11.2317 3.28315C12.4336 3.67201 13.6355 4.05498 14.8375 4.44973C14.9612 4.49097 15.0672 4.47329 15.1792 4.43205C16.3222 4.06676 17.4652 3.69558 18.6023 3.3244C18.6671 3.29494 18.7673 3.30083 18.8144 3.20656Z" fill="white" stroke="white" stroke-width="0.3"/>
</svg>
