<svg width="30" height="29" viewBox="0 0 30 29" fill="none" xmlns="http://www.w3.org/2000/svg">
<path d="M11.1106 28.5456C7.9213 28.5456 4.72467 28.5456 1.53537 28.5456C1.0808 28.5456 1.00749 28.4723 1.00749 28.0251C1.00749 25.5103 1.02215 22.9955 1.00015 20.4807C0.985492 18.2812 2.01193 16.7049 3.84486 15.5905C4.86397 14.9673 5.99305 14.7107 7.17346 14.6667C7.37142 14.6593 7.46673 14.6227 7.43007 14.4101C7.42274 14.3587 7.42274 14.3001 7.43007 14.2488C7.48872 13.5742 7.38608 12.973 6.95351 12.3865C6.47695 11.734 6.32298 10.9348 6.33031 10.121C6.34498 8.42004 6.36697 6.71908 6.38897 5.01812C6.40363 3.85238 7.32009 2.53267 8.85976 2.58399C9.49028 2.60599 10.1208 2.6793 10.7513 2.64265C11.1473 2.62065 11.5358 2.59132 11.9097 2.44469C12.3203 2.29072 12.4376 2.12209 12.445 1.68219C12.445 1.59421 12.4376 1.4989 12.4303 1.41092C12.423 1.10299 12.5329 0.99301 12.8409 1.00034C14.1972 1.015 15.3117 1.99012 15.5096 3.33916C15.5463 3.59577 15.5609 3.84505 15.5609 4.10166C15.5609 6.10322 15.5536 8.10477 15.5609 10.1063C15.5683 11.2501 15.2017 12.2545 14.4685 13.1343C14.4025 13.215 14.3439 13.281 14.3439 13.3983C14.3512 13.7649 14.3512 14.1314 14.3439 14.498C14.3439 14.6373 14.4025 14.6667 14.5198 14.6593C15.6489 14.6153 16.7487 14.806 17.7751 15.2752C18.8089 15.7444 19.674 16.4336 20.3192 17.3794C20.9058 18.2445 21.2064 19.1977 21.2064 20.2388C21.2064 22.8342 21.2064 25.4296 21.2064 28.0324C21.2064 28.443 21.1037 28.5456 20.6858 28.5456C17.4965 28.5456 14.3072 28.5456 11.1106 28.5456ZM20.5465 23.7947C20.5465 22.9075 20.5465 22.0204 20.5465 21.1332C20.5465 20.6787 20.5685 20.2168 20.5172 19.7622C20.3266 18.1419 19.4101 17.0055 18.0537 16.1697C17.8704 16.0597 17.7751 16.0597 17.6432 16.243C16.624 17.6507 15.5903 19.0437 14.5638 20.4441C14.3292 20.7667 14.1386 20.7813 13.838 20.5247C13.6547 20.3707 13.4787 20.2168 13.3028 20.0555C13.2075 19.9675 13.1561 19.9822 13.1048 20.0921C12.9802 20.3414 12.8629 20.5834 12.7309 20.8253C12.6503 20.9719 12.6209 21.1186 12.6429 21.2945C12.9435 23.4134 13.2368 25.5323 13.5154 27.6511C13.5447 27.8638 13.618 27.8931 13.8087 27.8931C15.0331 27.8857 16.2575 27.8857 17.4819 27.8931C17.7165 27.8931 17.7678 27.8271 17.7605 27.6071C17.7531 25.7669 17.7531 23.934 17.7531 22.0937C17.7531 22.013 17.7458 21.9251 17.7605 21.8444C17.7825 21.6611 17.8924 21.5365 18.0831 21.5292C18.2737 21.5292 18.3837 21.6538 18.413 21.8371C18.4276 21.9177 18.4203 21.9984 18.4203 22.0864C18.4203 23.934 18.4276 25.7815 18.413 27.6291C18.413 27.8491 18.4716 27.9077 18.6843 27.9004C19.2268 27.8857 19.762 27.8857 20.3046 27.9004C20.5025 27.9077 20.5685 27.8564 20.5612 27.6438C20.5465 26.3608 20.5465 25.0777 20.5465 23.7947ZM1.66734 23.7947C1.66734 25.085 1.66734 26.3754 1.66001 27.6658C1.66001 27.8418 1.704 27.9004 1.88729 27.8931C2.40051 27.8784 2.91373 27.8711 3.41962 27.8931C3.67623 27.9004 3.75688 27.8491 3.75688 27.5705C3.74222 25.7302 3.74955 23.8973 3.74955 22.057C3.74955 21.9764 3.74222 21.8884 3.75688 21.8078C3.80087 21.6318 3.91085 21.5145 4.1088 21.5218C4.2921 21.5292 4.38741 21.6465 4.4094 21.8224C4.41674 21.9031 4.41674 21.9837 4.41674 22.0717C4.41674 23.9266 4.41674 25.7815 4.4094 27.6438C4.4094 27.8271 4.44606 27.8931 4.64402 27.8931C5.90507 27.8857 7.16613 27.8857 8.42718 27.8931C8.60315 27.8931 8.67646 27.8638 8.69846 27.6658C8.92574 25.8255 9.14569 23.9853 9.4243 22.1523C9.53427 21.4338 9.53427 20.7886 9.1017 20.1801C8.99906 20.0261 8.95507 19.9528 8.8011 20.1141C8.67646 20.2461 8.52983 20.3561 8.39053 20.4807C8.00194 20.8253 7.85531 20.8106 7.55471 20.3927C6.54293 19.0144 5.53116 17.636 4.51938 16.265C4.43873 16.155 4.38741 16.0304 4.20412 16.1477C2.63513 17.1008 1.682 18.4278 1.67467 20.3194C1.66734 21.4705 1.66734 22.6362 1.66734 23.7947ZM14.8938 9.54179C14.8938 9.23386 14.8791 8.9186 14.9011 8.61066C14.9158 8.40538 14.8278 8.28074 14.6811 8.17809C14.3805 7.96547 14.0433 7.91415 13.6914 7.92148C13.0315 7.93615 12.3863 8.06078 11.7265 8.11944C10.5607 8.22208 9.53427 8.00946 8.88175 6.90237C8.77177 6.71908 8.71312 6.85105 8.6398 6.91704C8.14125 7.40093 7.64269 7.88482 7.14413 8.36872C7.03416 8.47136 6.9975 8.58867 6.9975 8.7353C6.9975 9.18987 6.99017 9.65177 6.99017 10.1063C6.99017 11.2427 7.39341 12.2252 8.1999 13.0097C9.263 14.0361 10.5534 14.3661 11.9757 13.9701C13.4201 13.5669 14.3659 12.6138 14.7838 11.1548C14.9377 10.6196 14.8938 10.077 14.8938 9.54179ZM7.02683 7.5549C7.1588 7.43026 7.22478 7.3716 7.29077 7.31295C7.73067 6.88771 8.16324 6.45514 8.60315 6.0299C8.85976 5.78062 9.14569 5.83194 9.29966 6.16187C9.32165 6.20586 9.33632 6.24252 9.35098 6.28651C9.65158 6.9537 10.1428 7.35694 10.8906 7.43759C11.3525 7.48891 11.7998 7.42292 12.2543 7.38627C13.1341 7.31295 14.014 7.12966 14.8644 7.52557C14.8791 7.49624 14.8938 7.48158 14.8938 7.46692C14.8938 6.21319 14.9231 4.95947 14.8864 3.71308C14.8571 2.69397 14.2632 1.98279 13.3834 1.75551C13.1928 1.70419 13.1268 1.74818 13.0975 1.9388C13.0242 2.48135 12.6796 2.81861 12.203 3.03123C11.7558 3.23652 11.2719 3.27317 10.788 3.3025C10.1355 3.33916 9.49028 3.24385 8.84509 3.25118C7.93596 3.25118 7.28344 3.77906 7.09281 4.67353C7.08548 4.70286 7.07815 4.72485 7.07815 4.75418C7.01216 5.66331 7.05615 6.57245 7.02683 7.5549ZM11.1033 27.8857C11.6238 27.8857 12.1444 27.8857 12.6649 27.8857C12.8042 27.8857 12.8775 27.8784 12.8482 27.6951C12.5623 25.6496 12.2763 23.604 11.9977 21.5658C11.9757 21.4045 11.9317 21.3532 11.7631 21.3532C11.3085 21.3605 10.8467 21.3605 10.3921 21.3532C10.2235 21.3459 10.1795 21.4045 10.1648 21.5658C9.90819 23.604 9.63692 25.6422 9.36564 27.6805C9.34365 27.8638 9.39497 27.8931 9.5636 27.8931C10.0768 27.8857 10.59 27.8857 11.1033 27.8857ZM17.2032 15.7957C17.1739 15.7738 17.1666 15.7591 17.1519 15.7518C16.2061 15.3632 15.209 15.2972 14.1972 15.3265C14.1166 15.3265 14.0653 15.3852 14.014 15.4365C13.2661 16.155 12.511 16.8808 11.7558 17.592C11.6238 17.7167 11.6458 17.7753 11.7704 17.8853C12.511 18.5231 13.2515 19.161 13.9773 19.8062C14.1019 19.9162 14.1606 19.8942 14.2486 19.7695C14.6225 19.2563 15.0111 18.7431 15.3923 18.2299C16.0008 17.4161 16.602 16.6096 17.2032 15.7957ZM7.30543 15.3192C6.5356 15.3485 5.85375 15.4585 5.1939 15.6931C5.05459 15.7444 4.98861 15.7738 5.10592 15.9277C6.05171 17.2108 6.99017 18.4938 7.9213 19.7769C8.01661 19.9088 8.07526 19.9088 8.19257 19.8062C8.91841 19.1683 9.64425 18.5305 10.3848 17.8999C10.5461 17.7606 10.5167 17.6947 10.3701 17.5774C9.57826 16.9248 8.79377 16.2723 8.01661 15.6051C7.78199 15.3998 7.55471 15.2385 7.30543 15.3192ZM8.08993 13.7795C8.08993 14.1095 8.09726 14.3954 8.08993 14.6887C8.08993 14.7986 8.14125 14.8573 8.21456 14.9159C9.10903 15.6564 10.0035 16.3969 10.8906 17.1448C11.0006 17.2328 11.0666 17.2548 11.1839 17.1448C11.9684 16.4043 12.7676 15.6784 13.5521 14.9453C13.6107 14.8939 13.684 14.85 13.684 14.7473C13.684 14.4687 13.684 14.1901 13.684 13.8968C11.3085 15.1066 10.2235 15.0846 8.08993 13.7795ZM11.0813 20.7007C11.0813 20.6933 11.0813 20.686 11.0813 20.6787C11.3965 20.6787 11.7778 20.7886 12.0197 20.6493C12.2543 20.51 12.3497 20.1215 12.5036 19.8502C12.5329 19.7915 12.5623 19.7329 12.5989 19.6816C12.6796 19.5716 12.6576 19.4909 12.5476 19.403C12.1004 19.0217 11.6605 18.6405 11.2279 18.2519C11.1179 18.1492 11.0519 18.1492 10.942 18.2519C10.5167 18.6405 10.0842 19.0144 9.64425 19.3883C9.51961 19.4909 9.50495 19.5716 9.5856 19.7109C9.73956 19.9748 9.89353 20.2534 10.0255 20.532C10.0988 20.6787 10.1941 20.7227 10.3481 20.7153C10.59 20.6933 10.8393 20.7007 11.0813 20.7007Z" fill="white" stroke="white" stroke-width="0.3"/>
<path d="M29 9.40981C28.9926 12.2765 26.6685 14.6153 23.8311 14.608C20.9864 14.608 18.6696 12.2472 18.6769 9.36582C18.6916 6.52845 21.0011 4.23362 23.8458 4.24095C26.7051 4.24095 29.0073 6.55044 29 9.40981ZM23.8531 4.89348C21.3896 4.89348 19.3514 6.9097 19.3441 9.36582C19.3368 11.8879 21.353 13.9408 23.8384 13.9481C26.3165 13.9481 28.3401 11.9173 28.3474 9.40981C28.3474 6.93903 26.3239 4.89348 23.8531 4.89348Z" fill="white" stroke="white" stroke-width="0.3"/>
<path d="M24.1757 6.99034C24.1757 7.69418 24.1757 8.37603 24.1757 9.05788C24.1757 9.18252 24.249 9.20452 24.3443 9.23384C25.2535 9.54911 25.5981 9.97435 25.6054 10.7955C25.6127 11.58 25.1288 12.2252 24.3443 12.5038C24.2564 12.5331 24.183 12.5478 24.1684 12.6724C24.1464 12.841 24.0291 12.9584 23.8531 12.9584C23.6772 12.9584 23.5525 12.841 23.5379 12.6724C23.5232 12.5331 23.4352 12.5258 23.3399 12.4891C22.6874 12.2398 22.3061 11.7633 22.1742 11.0814C22.1595 11.0081 22.1522 10.9348 22.1522 10.8615C22.1522 10.6709 22.2108 10.5022 22.4308 10.4949C22.6361 10.4876 22.746 10.6269 22.7534 10.8248C22.7607 11.1108 22.8633 11.36 23.0613 11.5653C23.1786 11.69 23.3179 11.7926 23.5232 11.8439C23.5232 11.1328 23.5232 10.4436 23.5232 9.7544C23.5232 9.64442 23.4425 9.62976 23.3692 9.60043C22.4821 9.28517 22.1595 8.85993 22.1522 8.03144C22.1522 7.23229 22.5847 6.61642 23.3692 6.33048C23.4645 6.29383 23.5085 6.25717 23.5305 6.15452C23.5672 5.98589 23.6772 5.87592 23.8605 5.88325C24.0217 5.89058 24.1464 5.99323 24.1611 6.15452C24.1757 6.30849 24.2784 6.30849 24.381 6.34515C25.0848 6.57976 25.5541 7.17363 25.5981 7.87748C25.6054 8.03144 25.5907 8.17075 25.4588 8.27339C25.3635 8.34671 25.2608 8.3687 25.1508 8.32471C25.0042 8.26606 24.9455 8.15608 24.9382 8.00212C24.9162 7.55488 24.7036 7.22495 24.3004 7.027C24.271 7.01233 24.2344 7.005 24.1757 6.99034ZM24.183 11.8366C24.6816 11.69 24.9675 11.2574 24.9382 10.7075C24.9089 10.231 24.6669 9.96702 24.183 9.87904C24.183 10.5316 24.183 11.1767 24.183 11.8366ZM23.5159 6.99034C23.1786 7.12231 22.9953 7.27628 22.8707 7.52555C22.5774 8.0901 22.7974 8.74262 23.3472 8.93324C23.4425 8.9699 23.5159 9.00656 23.5159 8.84526C23.5085 8.2294 23.5159 7.62087 23.5159 6.99034Z" fill="white" stroke="white" stroke-width="0.3"/>
</svg>
