<svg width="28" height="28" viewBox="0 0 28 28" fill="none" xmlns="http://www.w3.org/2000/svg">
<path d="M0.00732422 2.47255C0.160719 2.24611 0.372549 2.18037 0.642816 2.19498C1.08109 2.20959 1.51936 2.18767 1.95763 2.20228C2.14024 2.20959 2.21328 2.16576 2.20598 1.96123C2.19137 1.48644 2.20598 1.01165 2.19868 0.536856C2.19868 0.317721 2.24981 0.142413 2.46894 0.0474542C2.68808 -0.0475043 2.85608 0.0401497 3.00947 0.193544C3.55001 0.734078 4.09054 1.27461 4.63107 1.81514C4.76986 1.95393 4.8283 2.10732 4.8283 2.30455C4.82099 2.85969 4.8283 3.41483 4.8283 3.96997C4.8283 4.15259 5.1643 4.64199 5.33231 4.69312C5.44918 4.72964 5.4857 4.62007 5.55144 4.56894C7.01965 3.26144 8.68507 2.33376 10.5769 1.80053C12.834 1.16504 15.0911 1.16504 17.3482 1.76401C17.5747 1.82245 17.7573 1.93202 17.7792 2.18767C17.8084 2.50177 17.5162 2.7136 17.1583 2.61864C16.6105 2.47985 16.0626 2.35568 15.5002 2.28994C12.3958 1.91741 9.57622 2.66247 7.04156 4.48129C6.72016 4.70773 6.42798 4.96339 6.1285 5.21904C6.00432 5.32861 6.01893 5.38705 6.1285 5.49661C6.55946 5.92027 6.98312 6.34394 7.39948 6.7749C7.51635 6.89177 7.57479 6.86256 7.68436 6.7676C8.96264 5.6427 10.4382 4.91225 12.1109 4.56894C12.8121 4.43016 13.5134 4.35711 14.2292 4.37902C14.4264 4.38633 14.5871 4.46668 14.6602 4.6566C14.7259 4.8319 14.6967 4.9926 14.5579 5.13869C14.4264 5.27017 14.2657 5.25557 14.0977 5.25557C11.9356 5.25557 10.0291 5.9568 8.36368 7.33004C8.16645 7.49074 8.18837 7.57109 8.35637 7.73179C8.75081 8.09702 9.12334 8.48416 9.49587 8.87129C9.63466 9.01738 9.72231 9.0393 9.89032 8.90051C10.7303 8.19928 11.7091 7.76831 12.7756 7.55648C12.8559 7.54187 12.9363 7.51996 13.0166 7.52727C13.2431 7.52727 13.4038 7.64414 13.4476 7.87058C13.4987 8.10432 13.3965 8.28693 13.1627 8.36728C13.0093 8.41842 12.8413 8.44033 12.6806 8.47685C11.8625 8.66677 11.1248 9.03199 10.4601 9.54331C10.3286 9.64557 10.314 9.71131 10.4382 9.83549C10.8545 10.2372 11.2709 10.6536 11.6726 11.0773C11.8114 11.2233 11.8918 11.216 12.0524 11.1065C14.0831 9.76244 16.7639 10.7851 17.3993 13.1371C17.9107 15.0436 16.6762 17.0523 14.7551 17.4541C12.7464 17.8704 10.8326 16.541 10.5404 14.5542C10.4089 13.6484 10.5989 12.8157 11.1029 12.0634C11.2051 11.91 11.1978 11.8296 11.0663 11.7054C10.65 11.311 10.2409 10.9019 9.84649 10.4856C9.6931 10.3249 9.62735 10.3541 9.49587 10.5148C6.9466 13.7434 8.73621 18.7032 12.7683 19.5359C16.0188 20.2079 19.0136 18.1918 19.6053 14.934C19.6637 14.6053 19.693 14.2693 19.6857 13.926C19.6857 13.6046 19.861 13.4074 20.1166 13.4074C20.3723 13.4074 20.5476 13.6192 20.5549 13.9333C20.6425 17.0743 18.2321 19.9668 15.1057 20.4635C11.6726 21.0114 8.50246 18.9734 7.64783 15.628C7.11461 13.5389 7.54557 11.6178 8.86769 9.91584C9.01378 9.72592 9.02108 9.62366 8.84577 9.45566C8.44403 9.08313 8.05689 8.69599 7.68436 8.29424C7.53827 8.14084 7.47253 8.17737 7.35565 8.31615C5.33961 10.8216 4.76986 13.5973 5.67562 16.6798C5.70484 16.7675 5.73405 16.8551 5.75597 16.9428C5.82171 17.1984 5.71945 17.4249 5.50031 17.4979C5.25926 17.5783 5.02552 17.476 4.93056 17.213C4.71873 16.636 4.57264 16.0443 4.49229 15.438C4.09785 12.5089 4.85751 9.92314 6.7786 7.67336C6.88817 7.54187 6.87356 7.48344 6.76399 7.37387C6.34033 6.97212 5.92397 6.55577 5.52222 6.13941C5.39805 6.00793 5.325 6.00793 5.20813 6.14671C3.6961 7.85597 2.74651 9.82819 2.36668 12.0707C2.05989 13.8603 2.17676 15.628 2.69538 17.3664C2.79034 17.6951 2.71729 17.907 2.47625 18.0092C2.22059 18.1188 1.97224 17.9873 1.87728 17.6732C1.43901 16.2488 1.25639 14.7879 1.35135 13.3051C1.51936 10.6025 2.44703 8.17737 4.14167 6.05906C4.29507 5.86914 4.46307 5.68653 4.62377 5.49661C4.66029 5.45279 4.72603 5.41626 4.71873 5.34322C4.69682 5.21904 4.1782 4.8246 4.03211 4.8246C3.45505 4.8246 2.8853 4.8246 2.30824 4.8246C2.13293 4.8246 1.98684 4.78808 1.86267 4.6566C1.23448 4.03571 0.620902 3.42213 0.00732422 2.80125C0.00732422 2.69168 0.00732422 2.58212 0.00732422 2.47255ZM16.6397 14.0283C16.647 12.0049 14.4775 10.7339 12.7245 11.7201C12.5419 11.8223 12.4834 11.8881 12.666 12.0634C13.1993 12.5747 13.7179 13.1006 14.2365 13.6265C14.4848 13.8749 14.4995 14.1232 14.3022 14.3205C14.105 14.5104 13.8567 14.4885 13.6083 14.2401C13.0897 13.7288 12.5711 13.2175 12.0671 12.6916C11.8918 12.5016 11.8187 12.5455 11.7091 12.7427C11.1832 13.6996 11.3001 14.8975 12.0159 15.7302C12.7391 16.5702 13.8786 16.8697 14.9158 16.4899C15.9531 16.1028 16.6324 15.1386 16.6397 14.0283ZM1.5851 3.07152C1.57049 3.09343 1.55588 3.11535 1.54127 3.13726C1.79693 3.37831 2.05259 3.61936 2.30824 3.86771C2.36668 3.92615 2.42511 3.94075 2.50546 3.94075C2.93643 3.94075 3.36009 3.93345 3.79106 3.94075C3.92254 3.94075 3.95906 3.89693 3.95906 3.76545C3.95176 3.34909 3.95906 2.92543 3.95906 2.50907C3.95906 2.45794 3.95906 2.3849 3.92984 2.35568C3.66688 2.07811 3.39661 1.81514 3.08252 1.50105C3.08252 1.9101 3.08982 2.2315 3.08252 2.5602C3.07522 2.89621 2.91452 3.05691 2.57851 3.06421C2.2352 3.07882 1.9065 3.07152 1.5851 3.07152Z" fill="white"/>
<path d="M0.0073045 22.6988C0.116872 22.2021 0.211831 21.7054 0.423661 21.2379C1.33672 19.2364 3.37468 18.1189 5.58064 18.4403C7.65512 18.7397 9.31324 20.4636 9.59081 22.5965C9.92682 25.2042 8.08609 27.6001 5.46377 27.958C5.41264 27.9653 5.36151 27.9872 5.31037 28.0092C4.98167 28.0092 4.65297 28.0092 4.32427 28.0092C4.27313 27.9945 4.222 27.9726 4.17087 27.958C2.15483 27.6147 0.832713 26.4679 0.197222 24.5322C0.109568 24.2619 0.0657405 23.9698 0 23.6849C0.0073045 23.3562 0.0073045 23.0275 0.0073045 22.6988ZM0.883845 23.2028C0.883845 25.3576 2.64423 27.1253 4.81367 27.1326C6.9685 27.1399 8.7508 25.3649 8.7581 23.2174C8.7581 21.048 7.00502 19.2657 4.85749 19.2657C2.65153 19.2511 0.883845 21.0114 0.883845 23.2028Z" fill="white"/>
<path d="M20.0143 9.49214C20.3795 9.77702 20.7228 10.0473 21.0662 10.3175C21.6578 10.7923 21.7674 11.5228 21.3364 12.0779C20.9055 12.6258 20.1604 12.6988 19.5614 12.2386C18.831 11.6762 18.1078 11.1064 17.392 10.5367C17.2678 10.4344 17.1436 10.3833 16.9756 10.3833C15.7996 10.3541 14.7916 9.5944 14.4556 8.50603C14.1123 7.38844 14.514 6.20511 15.5001 5.51849C16.2963 4.96335 17.0779 4.40821 17.7718 3.72889C18.232 3.28331 18.6265 2.79391 18.8748 2.18033C19.1305 1.54484 19.7733 1.28188 20.4672 1.46449C20.8982 1.58136 21.2707 1.8005 21.5994 2.09268C23.053 3.37827 23.9149 4.99987 24.2217 6.90635C24.2948 7.36653 24.2801 7.83402 24.1267 8.2869C23.8857 9.02465 23.2794 9.37527 22.5344 9.22187C21.9208 9.105 20.6206 9.23648 20.0143 9.49214ZM23.3817 7.39575C23.1479 5.46736 22.3591 3.83845 20.8178 2.60399C20.6352 2.4579 20.4234 2.34834 20.1823 2.30451C19.8901 2.24607 19.7367 2.33373 19.6272 2.6113C19.5103 2.89617 19.4957 3.20296 19.5395 3.50245C19.7806 5.27014 20.5622 6.74565 21.8916 7.92898C22.0815 8.09698 22.3006 8.23577 22.5417 8.32342C22.9726 8.48412 23.1991 8.36725 23.3086 7.92167C23.3598 7.74636 23.3598 7.57836 23.3817 7.39575ZM18.7141 3.99185C18.1298 4.60543 17.5381 5.14596 16.8807 5.60614C16.7638 5.68649 16.8222 5.75954 16.8661 5.83258C17.3993 6.8333 17.9398 7.83402 18.4731 8.84204C18.5534 8.99543 18.6338 8.99543 18.7725 8.9443C19.0647 8.83473 19.3569 8.73978 19.6564 8.65943C20.0947 8.54255 20.5475 8.4476 21.015 8.33803C19.8171 7.11818 19.0574 5.68649 18.7141 3.99185ZM15.208 7.55645C15.2006 8.92239 16.3913 9.79893 17.5381 9.4191C17.6769 9.37527 17.7572 9.33875 17.6623 9.16344C17.1509 8.22116 16.6469 7.27888 16.1429 6.32929C16.0699 6.1905 16.0114 6.19781 15.9019 6.28546C15.4563 6.65069 15.2153 7.11818 15.208 7.55645ZM18.2539 10.113C18.8675 10.5951 19.4665 11.0626 20.0654 11.5374C20.2992 11.72 20.511 11.7127 20.6425 11.5374C20.774 11.3548 20.7302 11.1795 20.4818 10.9823C20.1458 10.7193 19.7733 10.4929 19.4811 10.1788C19.1013 9.76971 18.7287 9.81354 18.3124 10.0619C18.3051 10.0692 18.2978 10.0765 18.2539 10.113Z" fill="white"/>
<path d="M26.6906 14.0063C26.6833 20.2005 22.2422 25.4671 16.121 26.5189C14.2073 26.8476 12.3154 26.7235 10.4454 26.1902C10.3505 26.161 10.2482 26.1391 10.1679 26.0807C9.98525 25.9565 9.91221 25.7812 9.99986 25.5621C10.0875 25.3429 10.292 25.2407 10.5331 25.3064C11.059 25.4525 11.5849 25.5913 12.1255 25.6716C15.8873 26.2122 19.2035 25.226 22.0158 22.6695C24.1925 20.6826 25.4197 18.1772 25.7484 15.2481C25.9675 13.2978 25.6899 11.3986 24.9449 9.5798C24.901 9.47754 24.8572 9.37527 24.8207 9.27301C24.7257 9.01005 24.8207 8.7763 25.0471 8.68135C25.2736 8.58639 25.5073 8.68135 25.6242 8.94431C25.8433 9.43371 26.0259 9.93772 26.1793 10.4563C26.5226 11.6105 26.6906 12.7938 26.6906 14.0063Z" fill="white"/>
<path d="M14.0027 23.6336C12.907 23.619 11.8625 23.4583 10.8472 23.1004C10.5404 22.9908 10.4235 22.7717 10.5112 22.516C10.5915 22.2823 10.8326 22.1873 11.1247 22.275C11.1759 22.2896 11.227 22.3115 11.2781 22.3261C13.9297 23.1442 16.4424 22.8228 18.7799 21.3254C21.8697 19.3386 23.3671 15.5402 22.5052 11.9683C22.4906 11.9099 22.4759 11.8442 22.4613 11.7784C22.4175 11.5009 22.5344 11.289 22.7754 11.2306C23.0092 11.1722 23.2283 11.3109 23.3014 11.5885C23.5643 12.5454 23.6739 13.5242 23.6008 14.5103C23.3671 17.7462 21.9135 20.2882 19.2108 22.0851C17.6404 23.1369 15.88 23.619 14.0027 23.6336Z" fill="white"/>
<path d="M24.492 4.15994C24.2948 4.14533 24.156 4.07228 24.0756 3.91158C23.9953 3.75089 24.0172 3.59019 24.1267 3.4514C24.1633 3.40027 24.2144 3.36375 24.2728 3.32722C25.2663 2.794 26.2597 2.26077 27.2531 1.73484C27.4722 1.61797 27.6767 1.65449 27.8374 1.85171C27.9908 2.05624 27.9324 2.34842 27.684 2.4799C26.676 3.02774 25.668 3.56097 24.6527 4.1015C24.6015 4.13802 24.5358 4.15263 24.492 4.15994Z" fill="white"/>
<path d="M25.4562 5.64999C25.0691 5.67191 24.8718 5.54043 24.8353 5.28477C24.7988 5.03642 24.9668 4.83189 25.2736 4.79537C26.004 4.70771 26.7345 4.62736 27.4722 4.55432C27.7717 4.5251 27.9763 4.6858 27.9982 4.94146C28.0201 5.19712 27.8448 5.38703 27.5526 5.42355C26.8295 5.5039 26.1063 5.58425 25.4562 5.64999Z" fill="white"/>
<path d="M25.5803 0.441911C25.573 0.573392 25.5146 0.690265 25.4342 0.785223C24.9668 1.34037 24.4993 1.90281 24.0245 2.45065C23.8346 2.67709 23.5716 2.70631 23.3744 2.5383C23.1845 2.3703 23.1699 2.11464 23.3598 1.8809C23.8273 1.31845 24.3094 0.7487 24.7841 0.186254C24.9156 0.0255547 25.0836 -0.0474903 25.2955 0.0328592C25.4781 0.113209 25.5584 0.251994 25.5803 0.441911Z" fill="white"/>
<path d="M7.00504 21.4278C7.00504 21.5885 6.93199 21.7054 6.82973 21.8003C5.69753 22.9325 4.56533 24.0647 3.43313 25.1969C3.20669 25.4233 2.94373 25.438 2.76112 25.248C2.5712 25.0581 2.59312 24.8025 2.81956 24.576C3.95175 23.4438 5.08395 22.3116 6.21615 21.1794C6.36224 21.0333 6.52294 20.953 6.73477 21.0406C6.91008 21.1137 6.99043 21.2598 7.00504 21.4278Z" fill="white"/>
<path d="M3.30165 22.7572C2.70268 22.7646 2.19867 22.2825 2.19137 21.6835C2.18406 21.0845 2.66616 20.5805 3.26513 20.5732C3.8641 20.5659 4.3608 21.048 4.37541 21.647C4.39002 22.2459 3.90062 22.7499 3.30165 22.7572ZM3.50618 21.6689C3.49157 21.5374 3.41852 21.4497 3.27974 21.4497C3.15556 21.4497 3.07521 21.5301 3.07521 21.6543C3.07521 21.7931 3.15556 21.8734 3.29435 21.8734C3.41852 21.8734 3.48426 21.7931 3.50618 21.6689Z" fill="white"/>
<path d="M6.36222 23.6337C6.96119 23.6337 7.45059 24.1378 7.44328 24.7367C7.43598 25.3357 6.93927 25.8251 6.3403 25.8178C5.74133 25.8105 5.25193 25.3138 5.25924 24.7148C5.26654 24.1158 5.75594 23.6264 6.36222 23.6337ZM6.3403 24.5103C6.20882 24.5322 6.12847 24.6126 6.13578 24.7513C6.15039 24.8755 6.23073 24.9486 6.35491 24.9413C6.4937 24.9339 6.57405 24.8463 6.55944 24.7075C6.55213 24.5833 6.46448 24.5176 6.3403 24.5103Z" fill="white"/>
</svg>
